<svg xmlns="http://www.w3.org/2000/svg" xmlns:xlink="http://www.w3.org/1999/xlink" width="2903" height="4063" viewBox="0 0 2903 4063"><defs><clipPath id="a"><rect width="2903" height="4063" transform="translate(-2521 3432)" fill="#fff"/></clipPath></defs><g transform="translate(2521 -3432)" clip-path="url(#a)"><path d="M0,0,2973,501H0Z" transform="translate(-2594 6215)" fill="#3e5066"/><rect width="2972.577" height="778" transform="translate(-2594 6715.197)" fill="#3e5066"/><path d="M215.761,53.99a4.3,4.3,0,1,1-4.3-4.3A4.3,4.3,0,0,1,215.761,53.99Z" transform="translate(-973.157 6465.496)" fill="#f5df4d"/><path d="M222.559,53.99a4.3,4.3,0,1,1-4.3-4.3A4.3,4.3,0,0,1,222.559,53.99Z" transform="translate(-954.69 6465.496)" fill="#f5df4d"/><path d="M229.364,53.99a4.3,4.3,0,1,1-4.3-4.3A4.3,4.3,0,0,1,229.364,53.99Z" transform="translate(-936.226 6465.496)" fill="#f5df4d"/><circle cx="4.301" cy="4.301" r="4.301" transform="translate(-690.197 6515.187)" fill="#f5df4d"/><circle cx="4.301" cy="4.301" r="4.301" transform="translate(-664.93 6515.187)" fill="#f5df4d"/><circle cx="4.301" cy="4.301" r="4.301" transform="translate(-639.663 6515.187)" fill="#f5df4d"/><circle cx="4.301" cy="4.301" r="4.301" transform="translate(-614.396 6515.187)" fill="#f5df4d"/><circle cx="4.301" cy="4.301" r="4.301" transform="translate(-589.128 6515.187)" fill="#f5df4d"/><path d="M215.761,61.19a4.3,4.3,0,1,1-4.3-4.3A4.3,4.3,0,0,1,215.761,61.19Z" transform="translate(-973.157 6485.043)" fill="#f5df4d"/><path d="M222.559,61.19a4.3,4.3,0,1,1-4.3-4.3A4.3,4.3,0,0,1,222.559,61.19Z" transform="translate(-954.69 6485.043)" fill="#f5df4d"/><path d="M229.364,61.19a4.3,4.3,0,1,1-4.3-4.3A4.3,4.3,0,0,1,229.364,61.19Z" transform="translate(-936.226 6485.043)" fill="#f5df4d"/><circle cx="4.301" cy="4.301" r="4.301" transform="translate(-690.197 6541.935)" fill="#f5df4d"/><circle cx="4.301" cy="4.301" r="4.301" transform="translate(-664.93 6541.935)" fill="#f5df4d"/><circle cx="4.301" cy="4.301" r="4.301" transform="translate(-639.663 6541.935)" fill="#f5df4d"/><circle cx="4.301" cy="4.301" r="4.301" transform="translate(-614.396 6541.935)" fill="#f5df4d"/><circle cx="4.301" cy="4.301" r="4.301" transform="translate(-589.128 6541.935)" fill="#f5df4d"/><path d="M215.761,68.39a4.3,4.3,0,1,1-4.3-4.3A4.3,4.3,0,0,1,215.761,68.39Z" transform="translate(-973.157 6504.591)" fill="#f5df4d"/><path d="M222.559,68.39a4.3,4.3,0,1,1-4.3-4.3A4.3,4.3,0,0,1,222.559,68.39Z" transform="translate(-954.69 6504.591)" fill="#f5df4d"/><path d="M229.364,68.39a4.3,4.3,0,1,1-4.3-4.3A4.3,4.3,0,0,1,229.364,68.39Z" transform="translate(-936.226 6504.591)" fill="#f5df4d"/><circle cx="4.301" cy="4.301" r="4.301" transform="translate(-690.197 6568.682)" fill="#f5df4d"/><circle cx="4.301" cy="4.301" r="4.301" transform="translate(-664.93 6568.682)" fill="#f5df4d"/><circle cx="4.301" cy="4.301" r="4.301" transform="translate(-639.663 6568.682)" fill="#f5df4d"/><circle cx="4.301" cy="4.301" r="4.301" transform="translate(-614.396 6568.682)" fill="#f5df4d"/><circle cx="4.301" cy="4.301" r="4.301" transform="translate(-589.128 6568.682)" fill="#f5df4d"/><path d="M215.761,75.59a4.3,4.3,0,1,1-4.3-4.3A4.3,4.3,0,0,1,215.761,75.59Z" transform="translate(-973.157 6524.139)" fill="#f5df4d"/><path d="M222.559,75.59a4.3,4.3,0,1,1-4.3-4.3A4.3,4.3,0,0,1,222.559,75.59Z" transform="translate(-954.69 6524.139)" fill="#f5df4d"/><path d="M229.364,75.59a4.3,4.3,0,1,1-4.3-4.3A4.3,4.3,0,0,1,229.364,75.59Z" transform="translate(-936.226 6524.139)" fill="#f5df4d"/><circle cx="4.301" cy="4.301" r="4.301" transform="translate(-690.197 6595.43)" fill="#f5df4d"/><circle cx="4.301" cy="4.301" r="4.301" transform="translate(-664.93 6595.43)" fill="#f5df4d"/><circle cx="4.301" cy="4.301" r="4.301" transform="translate(-639.663 6595.43)" fill="#f5df4d"/><circle cx="4.301" cy="4.301" r="4.301" transform="translate(-614.396 6595.43)" fill="#f5df4d"/><circle cx="4.301" cy="4.301" r="4.301" transform="translate(-589.128 6595.43)" fill="#f5df4d"/><path d="M2833.041,4594.915a1.018,1.018,0,0,1-.7-.281,1.136,1.136,0,0,1-.1-1.505,7.172,7.172,0,0,1,.433-.65c.221-.3.489-.649.746-.974a1.526,1.526,0,0,1,.284-.585,5.533,5.533,0,0,1,.678-.711c.064-.059.114-.1.162-.138l.043-.031c.389-.3,1.111-.794,1.687-1.164,1.661-1.067,2.13-1.175,2.609-1.024a1.053,1.053,0,0,1,.711.772,1.113,1.113,0,0,1,.025.188l86.552-31.342c.283-.084,28.853-8.7,78.01-24.349,45.37-14.446,118.052-38.012,206.664-68.247,99.595-33.982,198.6-69.288,294.262-104.938,119.577-44.562,234.24-89.788,340.806-134.423,271.236-113.608,492.281-224.117,656.994-328.455,23.48-14.874,46.124-29.826,67.3-44.443,21.748-15.01,42.563-30.088,61.867-44.816,19.8-15.108,38.573-30.274,55.79-45.075,17.644-15.168,34.153-30.382,49.069-45.217,15.272-15.189,29.3-30.411,41.708-45.241a485.252,485.252,0,0,0,33.706-45.145,346.378,346.378,0,0,0,25.067-44.924c3.424-7.466,6.485-14.983,9.1-22.342,2.639-7.434,4.894-14.917,6.7-22.241a207.01,207.01,0,0,0,4.686-25.765,187.4,187.4,0,0,0,1.211-25.592,178.714,178.714,0,0,0-2.389-25.4,181.254,181.254,0,0,0-6.114-25.2,195.4,195.4,0,0,0-9.968-24.986,222.436,222.436,0,0,0-13.956-24.753,264.325,264.325,0,0,0-18.076-24.5,323.734,323.734,0,0,0-22.327-24.223c-7.479-7.351-15.41-14.543-23.57-21.377-8.068-6.755-16.588-13.35-25.326-19.6-8.633-6.178-17.723-12.2-27.016-17.885-9.179-5.621-18.816-11.081-28.642-16.228a572.657,572.657,0,0,0-61.905-27.712c-21.216-8.069-43.972-15.4-67.635-21.776-22.978-6.2-47.486-11.68-72.844-16.3-24.559-4.476-50.643-8.277-77.528-11.295-25.958-2.914-53.442-5.186-81.689-6.754-27.17-1.507-55.878-2.409-85.327-2.679-28.193-.259-57.948.053-88.441.926-29.015.832-59.642,2.2-91.031,4.064-57.8,3.436-119.215,8.56-187.74,15.667-126.992,13.169-257.421,31.052-383.556,48.345-52.717,7.228-107.228,14.7-159.644,21.564-58.635,7.676-109.01,13.838-154,18.84-53.835,5.985-101.53,10.5-145.81,13.817-23.945,1.792-47.171,3.24-69.034,4.306-22.9,1.116-45.116,1.852-66.028,2.186-21.773.348-42.87.274-62.7-.222-20.555-.513-40.426-1.494-59.062-2.917-19.242-1.469-37.781-3.455-55.1-5.9-17.832-2.52-34.932-5.608-50.827-9.179a476.986,476.986,0,0,1-46.233-12.748,355.16,355.16,0,0,1-41.321-16.612,271.367,271.367,0,0,1-36.086-20.773,219.266,219.266,0,0,1-30.521-25.231,196.585,196.585,0,0,1-16.709-18.948,191.174,191.174,0,0,1-14.116-21.032,196.622,196.622,0,0,1-11.43-23.192,213.332,213.332,0,0,1-8.654-25.423,242.73,242.73,0,0,1-5.791-27.727,286.757,286.757,0,0,1-2.842-30.106c-.447-10.439-.382-21.395.191-32.562.578-11.27,1.692-23.078,3.309-35.1,1.669-12.4,3.746-24.932,6.173-37.234,2.4-12.157,5.206-24.436,8.345-36.5,3.1-11.914,6.612-23.95,10.437-35.776,3.776-11.677,7.965-23.478,12.449-35.074a713.75,713.75,0,0,1,30.617-68.112c11.206-21.838,23.894-43.881,37.712-65.515,13.405-20.988,28.266-42.205,44.17-63.063,15.389-20.183,32.21-40.624,49.994-60.757,17.156-19.421,35.722-39.137,55.182-58.6,18.7-18.7,38.8-37.74,59.737-56.583,20.027-18.024,41.445-36.433,63.659-54.715,21.122-17.382,43.646-35.211,66.949-52.993,21.976-16.769,45.394-34.068,69.6-51.416,22.571-16.174,46.671-32.99,71.628-49.984,96.567-65.751,196.984-128.16,294.1-188.514,167.4-104.04,325.52-202.309,440.446-302.912,14.554-12.74,28.343-25.468,40.982-37.83,13.085-12.8,25.369-25.624,36.511-38.123,11.49-12.89,22.135-25.844,31.638-38.5a461.692,461.692,0,0,0,26.364-38.971A365.363,365.363,0,0,0,3929,1586.927a300.307,300.307,0,0,0,14.625-40.173,262.169,262.169,0,0,0,8.165-40.914,248.278,248.278,0,0,0,1.31-41.758c-.8-15.018-2.241-30.024-4.281-44.6-2-14.266-4.622-28.517-7.805-42.356-3.113-13.534-6.843-27.048-11.089-40.166-4.149-12.82-8.9-25.616-14.134-38.033-5.106-12.125-10.805-24.223-16.939-35.956-5.984-11.448-12.546-22.865-19.5-33.934-6.783-10.789-14.128-21.544-21.832-31.966-7.5-10.148-15.549-20.26-23.918-30.053-58.723-68.711-138.7-128.6-237.723-178.007a1149.584,1149.584,0,0,0-124.783-52.976c-35.114-12.589-71.517-23.878-108.2-33.553-32.639-8.608-59.46-14.317-76.213-17.591-18.153-3.547-28.721-5.078-28.826-5.093h0c-.783-.1-23.913-3.043-63.182-10.5-23.345-4.435-47.745-9.575-72.525-15.277-30.974-7.127-62.63-15.158-94.089-23.87a2290.618,2290.618,0,0,1-235.713-79.26c-45.322-18.06-90.085-37.662-133.046-58.258-23.092-11.071-46.119-22.649-68.444-34.414-23.339-12.3-46.557-25.144-69.009-38.177-20.8-12.074-41.756-23.081-62.282-32.715-19.677-9.236-39.487-17.456-58.878-24.432-18.536-6.669-37.183-12.38-55.422-16.972a519.736,519.736,0,0,0-51.915-10.332,469.281,469.281,0,0,0-48.358-4.514,434.911,434.911,0,0,0-44.751.484,413.046,413.046,0,0,0-41.095,4.663c-12.579,2.076-25.158,4.775-37.387,8.023a391.312,391.312,0,0,0-63.448,22.855,381.188,381.188,0,0,0-48,26.483,347.326,347.326,0,0,0-32.115,23.565c-8.009,6.64-13.283,11.684-15.817,14.109-.537.514-.962.919-1.251,1.186-.165.152-.285.257-.376.331a1.032,1.032,0,0,1-1.551-1.356c.059-.093.142-.212.263-.375l.128.094c.248-.218.792-.738,1.405-1.325,2.551-2.441,7.859-7.518,15.923-14.2a349.367,349.367,0,0,1,32.3-23.7,383.225,383.225,0,0,1,48.248-26.623,393.416,393.416,0,0,1,63.773-22.972c12.291-3.263,24.933-5.976,37.575-8.063a415.144,415.144,0,0,1,41.294-4.685,436.983,436.983,0,0,1,44.958-.486,471.381,471.381,0,0,1,48.565,4.533,521.612,521.612,0,0,1,52.116,10.372c18.3,4.608,37.013,10.337,55.611,17.029,19.449,7,39.317,15.242,59.051,24.5,20.578,9.658,41.585,20.692,62.436,32.8,22.428,13.019,45.623,25.851,68.938,38.137,22.3,11.753,45.306,23.319,68.376,34.38,42.92,20.577,87.642,40.159,132.921,58.2a2288.661,2288.661,0,0,0,235.506,79.19c31.432,8.7,63.059,16.728,94,23.849,24.755,5.7,49.13,10.831,72.449,15.26,39.695,7.541,62.845,10.457,63.075,10.486l.018,0c.1.015,10.7,1.551,28.892,5.1,16.777,3.278,43.637,8.994,76.323,17.613,36.736,9.687,73.194,20.992,108.362,33.6A1151.7,1151.7,0,0,1,3596.72,987.2c22.154,11.053,43.666,22.8,63.937,34.922,21.833,13.054,42.8,26.881,62.326,41.1a707.438,707.438,0,0,1,58.79,47.713c9.495,8.617,18.736,17.524,27.466,26.474,8.988,9.214,17.688,18.733,25.859,28.292,8.4,9.829,16.479,19.979,24.01,30.165,7.734,10.463,15.109,21.26,21.919,32.093,6.987,11.114,13.577,22.578,19.587,34.073,6.16,11.783,11.884,23.932,17.012,36.108,5.252,12.47,10.029,25.321,14.2,38.2,4.264,13.175,8.011,26.746,11.137,40.337,3.2,13.9,5.833,28.205,7.837,42.531,2.048,14.635,3.494,29.7,4.3,44.776a250.267,250.267,0,0,1-1.321,42.095,264.138,264.138,0,0,1-8.227,41.228,302.345,302.345,0,0,1-14.722,40.442,367.409,367.409,0,0,1-20.805,39.745,463.64,463.64,0,0,1-26.478,39.141c-9.536,12.7-20.217,25.7-31.744,38.633-11.172,12.533-23.488,25.392-36.605,38.222-12.666,12.388-26.481,25.141-41.063,37.905-115.049,100.71-273.235,199.022-440.708,303.106-97.094,60.343-197.493,122.741-294.025,188.469-24.945,16.985-49.031,33.793-71.59,49.956-24.194,17.336-47.6,34.623-69.556,51.381-23.283,17.766-45.788,35.581-66.891,52.947-22.192,18.264-43.587,36.653-63.593,54.658-20.91,18.82-40.983,37.832-59.661,56.51-19.431,19.432-37.969,39.116-55.1,58.507-17.752,20.1-34.542,40.5-49.9,60.645-15.87,20.814-30.7,41.986-44.075,62.927-13.785,21.582-26.441,43.569-37.618,65.351a711.642,711.642,0,0,0-30.531,67.919c-4.471,11.562-8.646,23.327-12.411,34.969-3.813,11.789-7.313,23.788-10.4,35.665-3.129,12.023-5.927,24.263-8.318,36.381-2.419,12.263-4.489,24.75-6.153,37.114-1.61,11.966-2.719,23.719-3.294,34.933-.57,11.106-.634,22-.191,32.375a284.92,284.92,0,0,0,2.822,29.9,240.671,240.671,0,0,0,5.742,27.5,211.331,211.331,0,0,0,8.572,25.183,194.589,194.589,0,0,0,11.313,22.955,189.344,189.344,0,0,0,13.968,20.812,194.674,194.674,0,0,0,16.539,18.754,217.2,217.2,0,0,0,30.241,25,269.269,269.269,0,0,0,35.819,20.618,353.131,353.131,0,0,0,41.087,16.518,474.937,474.937,0,0,0,46.038,12.694c15.843,3.559,32.89,6.638,50.668,9.15,17.28,2.442,35.776,4.423,54.975,5.889,18.6,1.42,38.439,2.4,58.96,2.912,19.808.494,40.877.569,62.623.22,20.891-.334,43.084-1.069,65.963-2.184,21.846-1.065,45.055-2.512,68.983-4.3,44.256-3.311,91.927-7.828,145.738-13.811,44.981-5,95.344-11.162,153.966-18.836,52.409-6.861,106.918-14.334,159.631-21.562,126.151-17.3,256.6-35.181,383.622-48.354,68.555-7.109,129.994-12.236,187.828-15.673,31.409-1.867,62.057-3.235,91.092-4.067,30.517-.875,60.3-1.187,88.516-.927,29.479.271,58.219,1.173,85.419,2.682,28.285,1.57,55.807,3.845,81.8,6.763,26.931,3.023,53.06,6.83,77.664,11.315,25.412,4.632,49.974,10.129,73.005,16.339,23.728,6.4,46.547,13.745,67.825,21.837a574.585,574.585,0,0,1,62.123,27.81c9.865,5.167,19.541,10.649,28.759,16.293,9.333,5.715,18.462,11.759,27.135,17.965,8.778,6.281,17.339,12.907,25.445,19.695,8.2,6.867,16.171,14.1,23.689,21.484a325.751,325.751,0,0,1,22.465,24.374,266.345,266.345,0,0,1,18.212,24.686,224.316,224.316,0,0,1,14.081,24.976,197.356,197.356,0,0,1,10.07,25.242,183.309,183.309,0,0,1,6.181,25.481,180.767,180.767,0,0,1,2.416,25.689,189.38,189.38,0,0,1-1.223,25.867,209.068,209.068,0,0,1-4.732,26.015c-1.825,7.388-4.1,14.935-6.759,22.431-2.632,7.415-5.715,14.987-9.164,22.506a348.337,348.337,0,0,1-25.212,45.186,487.175,487.175,0,0,1-33.846,45.333c-12.442,14.878-26.518,30.145-41.833,45.376-14.951,14.87-31.5,30.116-49.177,45.316-17.247,14.826-36.047,30.016-55.881,45.148-19.329,14.747-40.17,29.845-61.945,44.873-21.2,14.632-43.866,29.6-67.368,44.487-22.857,14.479-47.132,29.279-72.151,43.99-24.3,14.29-49.971,28.885-76.293,43.381-50.284,27.693-104.94,56.119-162.45,84.49-53.8,26.539-111.441,53.695-171.329,80.713-55.608,25.087-114.513,50.67-175.077,76.038-106.591,44.645-221.28,89.882-340.882,134.453-95.681,35.656-194.7,70.968-294.314,104.956-88.625,30.239-161.32,53.809-206.7,68.257-48.538,15.455-77.012,24.049-78.006,24.348l-89.581,32.441-.9.83-.005-.006c-.73.654-1.3,1.148-1.743,1.5a7.159,7.159,0,0,1-.746.54A1.457,1.457,0,0,1,2833.041,4594.915Z" transform="translate(-4481.577 2901.938)" fill="#f5df4d" opacity="0.61"/><path d="M-119.145,3875.926l-.622-1.9,597.118-195.362c.283-.085,28.853-8.7,78.011-24.35,45.37-14.446,118.052-38.012,206.663-68.246,99.595-33.982,198.6-69.288,294.262-104.938,119.577-44.562,234.24-89.788,340.806-134.423,271.236-113.608,492.281-224.116,656.994-328.455,23.48-14.874,46.124-29.826,67.3-44.443,21.748-15.01,42.563-30.088,61.866-44.816,19.8-15.108,38.573-30.274,55.79-45.075,17.644-15.168,34.153-30.382,49.069-45.217,15.272-15.189,29.3-30.411,41.708-45.241a485.13,485.13,0,0,0,33.706-45.144,346.291,346.291,0,0,0,25.067-44.925c3.425-7.466,6.485-14.983,9.1-22.342,2.638-7.434,4.894-14.917,6.7-22.241a207.155,207.155,0,0,0,4.686-25.765,187.358,187.358,0,0,0,1.211-25.592,178.857,178.857,0,0,0-2.388-25.4,181.317,181.317,0,0,0-6.114-25.2,195.342,195.342,0,0,0-9.969-24.986,222.509,222.509,0,0,0-13.955-24.753,264.333,264.333,0,0,0-18.075-24.5,323.738,323.738,0,0,0-22.327-24.223c-7.479-7.351-15.41-14.543-23.571-21.377-8.067-6.755-16.588-13.35-25.325-19.6-8.634-6.178-17.723-12.2-27.016-17.885-9.179-5.621-18.816-11.081-28.642-16.228A572.649,572.649,0,0,0,2171,2355.58c-21.216-8.069-43.971-15.4-67.635-21.776-22.977-6.2-47.485-11.68-72.843-16.3-24.559-4.476-50.643-8.277-77.528-11.295-25.957-2.914-53.442-5.186-81.69-6.754-27.171-1.507-55.878-2.409-85.327-2.679-28.192-.259-57.948.052-88.441.926-29.015.832-59.642,2.2-91.031,4.064-57.8,3.436-119.215,8.56-187.74,15.666-126.992,13.169-257.421,31.052-383.556,48.346-52.717,7.227-107.228,14.7-159.644,21.563-58.635,7.676-109.01,13.839-154,18.841-53.835,5.985-101.529,10.5-145.81,13.817-23.945,1.792-47.171,3.24-69.034,4.306-22.9,1.116-45.116,1.852-66.028,2.187-21.773.348-42.87.273-62.7-.221-20.555-.513-40.426-1.495-59.063-2.917-19.242-1.469-37.781-3.455-55.1-5.9-17.831-2.519-34.932-5.608-50.826-9.179a476.959,476.959,0,0,1-46.233-12.748,355.206,355.206,0,0,1-41.321-16.612,271.336,271.336,0,0,1-36.086-20.773,219.25,219.25,0,0,1-30.52-25.231,196.6,196.6,0,0,1-16.709-18.947,191.24,191.24,0,0,1-14.116-21.032,196.5,196.5,0,0,1-11.43-23.192,213.222,213.222,0,0,1-8.654-25.423,242.74,242.74,0,0,1-5.791-27.727,286.727,286.727,0,0,1-2.842-30.106c-.446-10.439-.382-21.395.191-32.562.578-11.27,1.692-23.078,3.309-35.1,1.669-12.4,3.746-24.932,6.173-37.234,2.4-12.156,5.206-24.436,8.345-36.5,3.1-11.914,6.612-23.95,10.436-35.776,3.776-11.677,7.965-23.477,12.449-35.074a713.808,713.808,0,0,1,30.617-68.112c11.206-21.838,23.894-43.881,37.712-65.515,13.406-20.988,28.267-42.205,44.171-63.063,15.389-20.183,32.209-40.624,49.993-60.757,17.156-19.422,35.722-39.137,55.182-58.6,18.7-18.7,38.8-37.74,59.738-56.583,20.026-18.024,41.445-36.433,63.659-54.715,21.121-17.382,43.646-35.212,66.948-52.993,21.976-16.77,45.395-34.068,69.6-51.416,22.571-16.174,46.671-32.99,71.628-49.984,96.567-65.752,196.984-128.161,294.1-188.515,167.4-104.039,325.521-202.309,440.446-302.912,14.554-12.74,28.343-25.468,40.982-37.83,13.085-12.8,25.369-25.624,36.51-38.123,11.49-12.889,22.135-25.844,31.638-38.5a461.71,461.71,0,0,0,26.364-38.971,365.3,365.3,0,0,0,20.692-39.527,300.317,300.317,0,0,0,14.625-40.173,262.114,262.114,0,0,0,8.165-40.914,248.188,248.188,0,0,0,1.31-41.758c-.8-15.019-2.241-30.026-4.281-44.605-2-14.267-4.623-28.519-7.806-42.359-3.113-13.535-6.845-27.051-11.091-40.17-4.15-12.821-8.906-25.618-14.136-38.036-5.107-12.126-10.807-24.224-16.941-35.958-5.985-11.449-12.548-22.866-19.508-33.936-6.783-10.789-14.13-21.545-21.834-31.968-7.5-10.149-15.551-20.261-23.922-30.054-58.73-68.713-138.721-128.6-237.75-178.009a1149.656,1149.656,0,0,0-124.79-52.972C987.106,44.62,950.7,33.333,914.023,23.661c-32.634-8.605-59.448-14.312-76.2-17.584C819.688,2.533,809.138,1,809.034.99L808.969.98l-.063-.017c-.083-.023-8.482-2.369-24.373-6.2-14.666-3.541-38.893-9.109-71.026-15.537C677.391-28,638.853-34.817,598.964-41.032,549.1-48.8,496.98-55.648,444.041-61.385,309.289-75.989,168.506-83.574,25.6-83.928c-41.307-.1-83.345.407-124.945,1.514-43.789,1.166-88.3,3.025-132.3,5.528-46.142,2.625-92.993,6.029-139.254,10.119-48.363,4.275-97.424,9.418-145.82,15.286L-869.938-8.651l-.241-1.985,353.227-42.829c48.421-5.871,97.507-11.017,145.9-15.295,46.285-4.092,93.162-7.5,139.327-10.124,44.018-2.5,88.553-4.364,132.365-5.53,41.623-1.107,83.683-1.617,125.012-1.514,142.979.356,283.839,7.946,418.666,22.561C497.285-57.626,549.439-50.773,599.329-43c39.914,6.219,78.477,13.039,114.618,20.269,32.158,6.433,56.406,12.008,71.085,15.552,15.192,3.667,23.554,5.977,24.352,6.2.917.134,11.381,1.685,28.827,5.094,16.777,3.278,43.638,8.994,76.323,17.613,36.736,9.687,73.194,20.992,108.362,33.6A1151.707,1151.707,0,0,1,1147.9,108.39c22.154,11.053,43.665,22.8,63.937,34.922,21.833,13.054,42.8,26.881,62.326,41.1a707.444,707.444,0,0,1,58.789,47.713c9.495,8.617,18.736,17.524,27.466,26.474,8.988,9.214,17.688,18.733,25.859,28.292,8.4,9.829,16.479,19.978,24.01,30.165,7.734,10.463,15.109,21.26,21.919,32.092,6.987,11.114,13.577,22.578,19.587,34.073,6.16,11.783,11.884,23.932,17.012,36.108,5.252,12.47,10.028,25.321,14.2,38.2,4.264,13.175,8.011,26.746,11.137,40.337,3.2,13.9,5.833,28.205,7.838,42.531,2.048,14.635,3.494,29.7,4.3,44.776a250.267,250.267,0,0,1-1.32,42.095,264.178,264.178,0,0,1-8.227,41.228,302.259,302.259,0,0,1-14.722,40.442,367.2,367.2,0,0,1-20.805,39.745,463.692,463.692,0,0,1-26.479,39.141c-9.536,12.7-20.217,25.7-31.744,38.633-11.172,12.533-23.488,25.392-36.605,38.222-12.666,12.388-26.482,25.141-41.063,37.905C1210.261,1003.29,1052.076,1101.6,884.6,1205.685c-97.094,60.343-197.494,122.741-294.026,188.469-24.945,16.985-49.031,33.793-71.589,49.956-24.194,17.336-47.6,34.623-69.557,51.38-23.283,17.766-45.788,35.581-66.891,52.947-22.192,18.264-43.587,36.653-63.592,54.658-20.91,18.819-40.983,37.832-59.662,56.51-19.431,19.432-37.968,39.116-55.1,58.507-17.752,20.1-34.542,40.5-49.9,60.645-15.87,20.814-30.7,41.986-44.075,62.927-13.784,21.582-26.441,43.569-37.618,65.351a711.809,711.809,0,0,0-30.531,67.92c-4.471,11.562-8.647,23.327-12.412,34.968-3.813,11.789-7.313,23.788-10.4,35.665-3.128,12.023-5.927,24.263-8.317,36.38-2.419,12.263-4.489,24.75-6.153,37.114-1.61,11.966-2.718,23.719-3.294,34.933-.57,11.106-.634,22-.191,32.375a284.853,284.853,0,0,0,2.822,29.9,240.7,240.7,0,0,0,5.742,27.5,211.336,211.336,0,0,0,8.573,25.184,194.6,194.6,0,0,0,11.313,22.954,189.227,189.227,0,0,0,13.967,20.812,194.6,194.6,0,0,0,16.539,18.754,217.194,217.194,0,0,0,30.242,25,269.275,269.275,0,0,0,35.819,20.619,353.038,353.038,0,0,0,41.087,16.517,474.947,474.947,0,0,0,46.038,12.694c15.842,3.559,32.889,6.637,50.668,9.15,17.28,2.442,35.776,4.423,54.975,5.889,18.6,1.42,38.439,2.4,58.96,2.912,19.807.495,40.877.568,62.623.221,20.891-.334,43.084-1.069,65.963-2.184,21.845-1.065,45.054-2.512,68.982-4.3,44.256-3.311,91.927-7.829,145.738-13.811,44.981-5,95.344-11.162,153.966-18.836,52.409-6.861,106.918-14.334,159.632-21.562,126.151-17.3,256.6-35.181,383.621-48.354,68.555-7.109,129.994-12.236,187.827-15.673,31.41-1.867,62.057-3.235,91.093-4.067,23.585-.676,46.734-1.015,69.057-1.015q9.843,0,19.46.088c29.479.271,58.218,1.173,85.419,2.682,28.285,1.569,55.807,3.845,81.8,6.763,26.93,3.023,53.06,6.83,77.664,11.315,25.412,4.632,49.974,10.129,73.005,16.339,23.728,6.4,46.547,13.745,67.825,21.837a574.556,574.556,0,0,1,62.123,27.81c9.866,5.167,19.542,10.649,28.759,16.293,9.333,5.715,18.462,11.759,27.135,17.965,8.778,6.281,17.339,12.907,25.446,19.695,8.2,6.867,16.171,14.1,23.689,21.484a325.647,325.647,0,0,1,22.465,24.374,266.3,266.3,0,0,1,18.213,24.686,224.316,224.316,0,0,1,14.081,24.976,197.415,197.415,0,0,1,10.071,25.242,183.343,183.343,0,0,1,6.181,25.481,180.873,180.873,0,0,1,2.415,25.689,189.3,189.3,0,0,1-1.223,25.867,209.062,209.062,0,0,1-4.731,26.015c-1.825,7.388-4.1,14.935-6.76,22.431-2.632,7.415-5.715,14.987-9.164,22.506a348.258,348.258,0,0,1-25.212,45.187,487.227,487.227,0,0,1-33.845,45.332c-12.443,14.878-26.518,30.145-41.833,45.377-14.95,14.869-31.5,30.116-49.177,45.316-17.246,14.826-36.047,30.017-55.882,45.149-19.329,14.747-40.17,29.844-61.945,44.873-21.2,14.631-43.865,29.6-67.368,44.486-22.857,14.479-47.133,29.279-72.151,43.99-24.3,14.289-49.971,28.885-76.293,43.382-50.284,27.693-104.94,56.119-162.45,84.49-53.8,26.539-111.441,53.695-171.328,80.713-55.609,25.087-114.513,50.67-175.077,76.038-106.591,44.646-221.28,89.882-340.882,134.453-95.681,35.656-194.7,70.969-294.314,104.956-88.625,30.239-161.32,53.81-206.7,68.257-48.586,15.47-77.068,24.066-78.009,24.349Z" transform="translate(-1669.164 3725.817) rotate(12)" fill="#707070" opacity="0.35"/><g transform="translate(-1137.473 4184.775)"><path d="M215.761,53.99a4.3,4.3,0,1,1-4.3-4.3A4.3,4.3,0,0,1,215.761,53.99Z" transform="translate(-207.157 -49.691)" fill="#f5df4d"/><path d="M222.559,53.99a4.3,4.3,0,1,1-4.3-4.3A4.3,4.3,0,0,1,222.559,53.99Z" transform="translate(-188.69 -49.691)" fill="#f5df4d"/><path d="M229.364,53.99a4.3,4.3,0,1,1-4.3-4.3A4.3,4.3,0,0,1,229.364,53.99Z" transform="translate(-170.226 -49.691)" fill="#f5df4d"/><circle cx="4.301" cy="4.301" r="4.301" transform="translate(75.803)" fill="#f5df4d"/><circle cx="4.301" cy="4.301" r="4.301" transform="translate(101.07)" fill="#f5df4d"/><circle cx="4.301" cy="4.301" r="4.301" transform="translate(126.337)" fill="#f5df4d"/><circle cx="4.301" cy="4.301" r="4.301" transform="translate(151.604)" fill="#f5df4d"/><circle cx="4.301" cy="4.301" r="4.301" transform="translate(176.872)" fill="#f5df4d"/></g><g transform="translate(-1137.473 4211.523)"><path d="M215.761,61.19a4.3,4.3,0,1,1-4.3-4.3A4.3,4.3,0,0,1,215.761,61.19Z" transform="translate(-207.157 -56.891)" fill="#f5df4d"/><path d="M222.559,61.19a4.3,4.3,0,1,1-4.3-4.3A4.3,4.3,0,0,1,222.559,61.19Z" transform="translate(-188.69 -56.891)" fill="#f5df4d"/><path d="M229.364,61.19a4.3,4.3,0,1,1-4.3-4.3A4.3,4.3,0,0,1,229.364,61.19Z" transform="translate(-170.226 -56.891)" fill="#f5df4d"/><circle cx="4.301" cy="4.301" r="4.301" transform="translate(75.803 0)" fill="#f5df4d"/><circle cx="4.301" cy="4.301" r="4.301" transform="translate(101.07)" fill="#f5df4d"/><circle cx="4.301" cy="4.301" r="4.301" transform="translate(126.337 0)" fill="#f5df4d"/><circle cx="4.301" cy="4.301" r="4.301" transform="translate(151.604)" fill="#f5df4d"/><circle cx="4.301" cy="4.301" r="4.301" transform="translate(176.872 0)" fill="#f5df4d"/></g><g transform="translate(-1137.473 4238.271)"><path d="M215.761,68.39a4.3,4.3,0,1,1-4.3-4.3A4.3,4.3,0,0,1,215.761,68.39Z" transform="translate(-207.157 -64.091)" fill="#f5df4d"/><path d="M222.559,68.39a4.3,4.3,0,1,1-4.3-4.3A4.3,4.3,0,0,1,222.559,68.39Z" transform="translate(-188.69 -64.091)" fill="#f5df4d"/><path d="M229.364,68.39a4.3,4.3,0,1,1-4.3-4.3A4.3,4.3,0,0,1,229.364,68.39Z" transform="translate(-170.226 -64.091)" fill="#f5df4d"/><circle cx="4.301" cy="4.301" r="4.301" transform="translate(75.803)" fill="#f5df4d"/><circle cx="4.301" cy="4.301" r="4.301" transform="translate(101.07)" fill="#f5df4d"/><circle cx="4.301" cy="4.301" r="4.301" transform="translate(126.337)" fill="#f5df4d"/><circle cx="4.301" cy="4.301" r="4.301" transform="translate(151.604)" fill="#f5df4d"/><circle cx="4.301" cy="4.301" r="4.301" transform="translate(176.872)" fill="#f5df4d"/></g><g transform="translate(-1137.473 4265.018)"><path d="M215.761,75.59a4.3,4.3,0,1,1-4.3-4.3A4.3,4.3,0,0,1,215.761,75.59Z" transform="translate(-207.157 -71.291)" fill="#f5df4d"/><path d="M222.559,75.59a4.3,4.3,0,1,1-4.3-4.3A4.3,4.3,0,0,1,222.559,75.59Z" transform="translate(-188.69 -71.291)" fill="#f5df4d"/><path d="M229.364,75.59a4.3,4.3,0,1,1-4.3-4.3A4.3,4.3,0,0,1,229.364,75.59Z" transform="translate(-170.226 -71.291)" fill="#f5df4d"/><circle cx="4.301" cy="4.301" r="4.301" transform="translate(75.803 0)" fill="#f5df4d"/><circle cx="4.301" cy="4.301" r="4.301" transform="translate(101.07 0)" fill="#f5df4d"/><circle cx="4.301" cy="4.301" r="4.301" transform="translate(126.337 0)" fill="#f5df4d"/><circle cx="4.301" cy="4.301" r="4.301" transform="translate(151.604)" fill="#f5df4d"/><circle cx="4.301" cy="4.301" r="4.301" transform="translate(176.872 0)" fill="#f5df4d"/></g></g></svg>