<svg xmlns="http://www.w3.org/2000/svg" width="434" height="392.221" viewBox="0 0 434 392.221">
  <g id="광명원_배너1_글자" transform="translate(-240 -391.779)">
    <rect id="사각형_183" data-name="사각형 183" width="204" height="56" rx="28" transform="translate(240 728)" fill="#ffeb64"/>
    <text id="함께_걸으러_가기" data-name="함께 걸으러 가기" transform="translate(274 764)" fill="#707070" font-size="20" font-family="NotoSansKR-Bold, Noto Sans KR" font-weight="700"><tspan x="0" y="0">함께 걸으러 가기</tspan></text>
    <text id="향기로운_사랑의_종소리가_울려퍼지는_인천광명원에서_행복을_함께_만들어갑니다." data-name="향기로운 사랑의 종소리가 울려퍼지는 인천광명원에서 
행복을 함께 만들어갑니다." transform="translate(246 599)" fill="#707070" font-size="20" font-family="GyeonggiBatangR, GyeonggiBatang" letter-spacing="-0.025em"><tspan x="0" y="0">향기로운 사랑의 종소리가 울려퍼지는 인천광명원에서 </tspan><tspan x="0" y="28">행복을 함께 만들어갑니다.</tspan></text>
    <path id="패스_491" data-name="패스 491" d="M38.112-44.352C38.112-38.4,33.6-33.5,26.592-33.5s-11.52-4.9-11.52-10.848S19.584-55.3,26.592-55.3,38.112-50.3,38.112-44.352Zm37.92,52.7C76.032,5.664,74.3,4.8,71.9,4.8H33.216V-15.264c0-1.824-.96-3.456-3.072-3.264,0,0-2.5.288-4.032.288s-3.84-.288-3.84-.288c-2.016-.192-3.648.768-3.648,3.36,0,2.5,1.824,3.168,3.648,3.168h2.3V5.376c0,5.568,3.072,6.816,7.872,6.816H72C74.4,12.192,76.032,11.52,76.032,8.352Zm-3.744-76.9a2.773,2.773,0,0,0-2.976-2.976s-3.072.384-5.088.384a43,43,0,0,1-4.608-.384c-2.016-.192-3.648.768-3.648,3.36,0,2.4,1.824,3.168,3.648,3.168h4.032v50.5c0,3.072,2.112,4.224,4.32,4.224a3.971,3.971,0,0,0,4.32-4.32ZM22.464-62.016C13.44-60.48,6.72-53.76,6.72-44.352,6.72-33.6,15.552-26.4,26.592-26.4s19.872-7.2,19.872-17.952c0-9.216-6.528-15.936-15.36-17.664v-4.032c0-1.92-1.632-3.36-4.416-3.36s-4.224,1.44-4.224,3.36ZM155.616,8.352c0-2.688-1.728-3.552-4.128-3.552h-38.5V-14.88c0-1.824-.96-3.456-3.072-3.264,0,0-2.5.288-4.032.288s-3.84-.288-3.84-.288c-2.016-.192-3.648.768-3.648,3.36,0,2.5,1.824,3.168,3.648,3.168h2.3V5.376c0,5.568,3.072,6.816,7.872,6.816h39.36C153.984,12.192,155.616,11.52,155.616,8.352Zm-12.768-21.12c0,3.072,2.112,4.224,4.32,4.224a3.971,3.971,0,0,0,4.32-4.32v-55.68a2.773,2.773,0,0,0-2.976-2.976s-3.072.384-5.088.384a43,43,0,0,1-4.608-.384c-2.016-.192-3.648.768-3.648,3.36,0,2.4,1.824,3.168,3.648,3.168h4.032v20.064H130.08a3.291,3.291,0,0,0-3.648,3.648c0,2.4,1.248,3.648,3.648,3.648h12.768ZM89.568-59.9c-2.688,0-4.224,1.056-4.224,3.648,0,2.5,1.92,3.648,4.224,3.648h13.056c0,8.352-7.488,22.464-17.088,27.168-1.92.96-2.4,3.072-.96,5.088,1.344,1.92,3.264,2.208,5.28,1.056,7.872-4.416,15.36-14.88,17.28-20.448,2.5,5.664,9.888,13.248,16.992,17.568,3.168,1.92,4.7,1.152,6.048-.576a3.931,3.931,0,0,0-1.248-5.856c-10.56-5.184-17.184-15.456-17.184-24h13.44c3.264-.384,3.648-1.728,3.648-3.84,0-1.824-.576-3.456-3.84-3.456H111.456v-6.624c0-1.92-1.632-3.36-4.416-3.36s-4.224,1.44-4.224,3.36V-59.9ZM229.92-58.176c0-3.36-.768-5.856-5.376-5.856H193.152a3.53,3.53,0,0,0-3.648,3.648,3.585,3.585,0,0,0,3.648,3.648h28.32v4.128c0,3.36.1,6.432-.864,9.408-1.056,3.168-.288,4.608,2.208,5.76,2.592,1.152,4.608-.864,5.184-2.4C230.112-45.7,229.824-50.016,229.92-58.176Zm32.256,16.224A3.582,3.582,0,0,0,258.24-45.7h-8.16V-68.544A2.726,2.726,0,0,0,247.1-71.52a43,43,0,0,1-4.608.384c-2.016,0-5.088-.384-5.088-.384-2.016-.192-3.648.768-3.648,3.36,0,2.4,1.824,3.168,3.648,3.168h4.032v25.44c-7.488,6.624-23.616,8.16-30.432,8.352V-44.064a2.773,2.773,0,0,0-2.976-2.976s-2.5.288-3.84.288c-1.248,0-3.744-.288-3.744-.288-2.016-.192-3.264.768-3.264,3.36,0,2.4,1.44,3.168,3.264,3.168h1.92v9.12l-14.208-.48c-3.072-.1-4.32,1.056-4.512,3.648-.192,2.3,1.44,3.648,3.936,3.744l20.64.672c10.56.384,24.48-2.592,33.216-7.1v9.5a3.874,3.874,0,0,0,4.224,4.224c2.208,0,4.416-1.152,4.416-4.32v-16.7h8.16C260.64-38.208,262.176-39.552,262.176-41.952ZM247.2-3.168c0-9.024-7.488-17.376-20.064-17.376s-20.064,8.352-20.064,17.376,7.488,17.28,20.064,17.28S247.2,5.856,247.2-3.168Zm-8.352,0c0,5.76-4.032,10.176-11.712,10.176S215.424,2.592,215.424-3.168s4.032-10.272,11.712-10.272S238.848-8.928,238.848-3.168Zm82.848.1c0,5.76-4.032,10.08-11.616,10.08s-11.616-4.32-11.616-10.08S302.5-13.248,310.08-13.248,321.7-8.832,321.7-3.072ZM276.384-33.984V-56.16h20.928v22.176Zm29.568-23.808c0-4.32-1.824-5.76-5.76-5.76H264.96c-2.208,0-3.456.96-3.456,3.456,0,2.4,1.632,3.072,3.264,3.072h2.976v23.04c0,4.8,2.208,7.392,7.3,7.392h23.424c3.84,0,7.488-1.44,7.488-7.392Zm-.192,37.92c-9.888,1.632-15.552,8.928-15.552,16.8,0,8.928,7.392,17.088,19.872,17.088s19.872-8.16,19.872-17.088c0-7.872-5.664-15.168-15.552-16.8v-2.976c0-1.92-1.536-3.36-4.32-3.36s-4.32,1.44-4.32,3.36Zm17.088-20.544h-9.6c-2.4,0-3.936,1.152-3.936,3.456,0,2.4,1.536,3.456,3.936,3.456h9.6v9.312c0,3.072,2.112,4.224,4.32,4.224a3.971,3.971,0,0,0,4.32-4.32V-68.544a2.773,2.773,0,0,0-2.976-2.976s-3.072.384-4.992.384a45.89,45.89,0,0,1-4.7-.384c-2.016-.192-3.648.768-3.648,3.36,0,2.4,1.824,3.168,3.648,3.168h4.032v10.176h-9.6c-2.4,0-3.936,1.152-3.936,3.456,0,2.4,1.536,3.456,3.936,3.456h9.6Zm55.872-9.216c0,5.28-4.7,7.776-9.408,7.776s-9.408-2.5-9.408-7.776,4.7-7.776,9.408-7.776S378.72-54.912,378.72-49.632Zm24,10.464c-8.736,7.68-27.168,9.12-33.408,8.928l-22.752-.672c-3.072-.1-4.32.96-4.512,3.552-.192,2.3,1.44,3.648,3.936,3.744l18.912.576v7.392a4.469,4.469,0,0,0,.768,2.688c-.864,0-1.728.1-2.5.1-1.44,0-3.936-.288-3.936-.288-2.016-.192-3.648.768-3.648,3.36,0,2.5,1.824,3.168,3.648,3.168h2.688v12c0,5.568,3.072,6.816,7.872,6.816H410.3c2.4,0,4.032-.672,4.032-3.84,0-2.688-1.728-3.552-4.128-3.552H370.56V-9.888a3.9,3.9,0,0,0-.384-1.824c1.824-.192,3.36-1.344,3.36-4.032v-7.584c9.888-.768,21.7-3.072,29.184-7.3v9.7H389.664c-2.4,0-3.744,1.152-3.744,3.456,0,2.4,1.344,3.456,3.744,3.456H402.72v3.552c0,3.072,2.112,3.936,4.32,3.936s4.32-.864,4.32-4.032V-68.544a2.773,2.773,0,0,0-2.976-2.976,49.008,49.008,0,0,1-4.9.384,46.029,46.029,0,0,1-4.8-.384c-2.016-.192-3.648.768-3.648,3.36,0,2.4,1.824,3.168,3.648,3.168h4.032ZM364.9-64.032c-7.1,1.44-13.056,6.24-13.056,14.4,0,9.792,8.64,14.784,17.472,14.784,9.024,0,17.472-4.992,17.472-14.784,0-8.256-6.048-13.056-13.248-14.4v-2.976c0-1.92-1.632-3.36-4.416-3.36s-4.224,1.44-4.224,3.36Z" transform="translate(234 539)" fill="#2d2d2d"/>
    <path id="패스_477" data-name="패스 477" d="M81.59,292.407a2.54,2.54,0,1,1,2.54,2.54A2.538,2.538,0,0,1,81.59,292.407Zm-7.963,1.727a2.545,2.545,0,1,1,2.9-2.121,2.525,2.525,0,0,1-2.5,2.146C73.894,294.159,73.754,294.147,73.627,294.134ZM63.365,291.7a2.527,2.527,0,1,1,.775.127A2.746,2.746,0,0,1,63.365,291.7Zm-9.754-4.013a2.513,2.513,0,1,1,1.143.279A2.451,2.451,0,0,1,53.611,287.682ZM44.593,282.2a2.531,2.531,0,1,1,1.486.483A2.537,2.537,0,0,1,44.593,282.2Zm-8.052-6.809a2.541,2.541,0,1,1,3.607-.011,2.588,2.588,0,0,1-1.816.748A2.511,2.511,0,0,1,36.541,275.387Zm-6.9-7.962a2.553,2.553,0,1,1,2.045,1.027A2.562,2.562,0,0,1,29.645,267.425Zm-5.576-8.941a2.542,2.542,0,1,1,3.429,1.078,2.623,2.623,0,0,1-1.181.281A2.526,2.526,0,0,1,24.069,258.484Zm-4.128-9.7a2.538,2.538,0,1,1,3.213,1.6,2.508,2.508,0,0,1-.8.127A2.548,2.548,0,0,1,19.942,248.78Zm-2.553-10.237a2.537,2.537,0,1,1,2.921,2.083,2.337,2.337,0,0,1-.419.038A2.534,2.534,0,0,1,17.389,238.544Zm-.94-10.5a2.54,2.54,0,1,1,5.08-.051,2.529,2.529,0,0,1-2.5,2.566A2.559,2.559,0,0,1,16.449,228.041Zm2.845-7.633a2.552,2.552,0,1,1,.368.025C19.548,220.433,19.421,220.42,19.294,220.408Zm1.842-9.983a2.534,2.534,0,1,1,.749.114A2.621,2.621,0,0,1,21.136,210.425Zm3.378-9.589a2.528,2.528,0,1,1,1.118.267A2.575,2.575,0,0,1,24.514,200.836Zm4.839-8.928a2.539,2.539,0,1,1,3.543-.622,2.521,2.521,0,0,1-2.083,1.08A2.485,2.485,0,0,1,29.353,191.908Zm6.16-8.078a2.546,2.546,0,1,1,1.765.711A2.508,2.508,0,0,1,35.513,183.83Zm7.328-7.023a2.539,2.539,0,1,1,3.569.5,2.591,2.591,0,0,1-1.537.508A2.543,2.543,0,0,1,42.841,176.807Zm8.332-5.8a2.532,2.532,0,1,1,2.248,1.346A2.551,2.551,0,0,1,51.172,171Zm9.132-4.445a2.534,2.534,0,1,1,3.226,1.562,2.369,2.369,0,0,1-.826.152A2.544,2.544,0,0,1,60.3,166.557ZM70.02,163.6a2.536,2.536,0,1,1,2.947,2.057,2.778,2.778,0,0,1-.457.038A2.529,2.529,0,0,1,70.02,163.6Zm10.046-1.4a2.541,2.541,0,1,1,2.6,2.477h-.064A2.552,2.552,0,0,1,80.066,162.2Z" transform="translate(722.272 375.33) rotate(90)" fill="#f5df4d"/>
    <path id="패스_478" data-name="패스 478" d="M76.636,274.07a2.54,2.54,0,1,1,2.54,2.527A2.538,2.538,0,0,1,76.636,274.07Zm-8.039,1.5a2.518,2.518,0,1,1,.5.052A2.1,2.1,0,0,1,68.6,275.568ZM58.41,272.494a2.536,2.536,0,1,1,.965.192A2.583,2.583,0,0,1,58.41,272.494Zm-9.386-5.029a2.527,2.527,0,1,1,1.41.432A2.524,2.524,0,0,1,49.025,267.465Zm-8.217-6.742a2.545,2.545,0,1,1,1.791.737A2.522,2.522,0,0,1,40.807,260.722ZM34.038,252.5a2.545,2.545,0,1,1,3.531.7,2.606,2.606,0,0,1-1.41.419A2.577,2.577,0,0,1,34.038,252.5Zm-5.017-9.386a2.537,2.537,0,1,1,3.315,1.372,2.412,2.412,0,0,1-.978.2A2.54,2.54,0,0,1,29.021,243.119Zm-3.1-10.173a2.538,2.538,0,1,1,2.985,1.994,2.188,2.188,0,0,1-.5.051A2.549,2.549,0,0,1,25.922,232.946Zm-1.041-10.592a2.54,2.54,0,1,1,2.54,2.54A2.539,2.539,0,0,1,24.881,222.354Zm3.023-7.595a2.524,2.524,0,1,1,.5.051A3.277,3.277,0,0,1,27.9,214.759Zm2.451-9.856a2.54,2.54,0,1,1,.965.191A2.612,2.612,0,0,1,30.355,204.9Zm4.344-9.182a2.541,2.541,0,1,1,3.518-.7,2.567,2.567,0,0,1-2.108,1.13A2.488,2.488,0,0,1,34.7,195.721Zm6.045-8.154a2.542,2.542,0,1,1,3.594-.013,2.545,2.545,0,0,1-3.594.013Zm7.506-6.833a2.551,2.551,0,1,1,2.108,1.118A2.552,2.552,0,0,1,48.25,180.734Zm8.7-5.245a2.539,2.539,0,1,1,3.328,1.372,2.728,2.728,0,0,1-.978.19A2.532,2.532,0,0,1,56.95,175.489ZM66.5,172.06a2.546,2.546,0,1,1,2.985,1.981,2.188,2.188,0,0,1-.5.051A2.538,2.538,0,0,1,66.5,172.06Zm10.046-1.5a2.54,2.54,0,1,1,2.54,2.54A2.539,2.539,0,0,1,76.547,170.561Z" transform="translate(717.322 380.284) rotate(90)" fill="#f5df4d"/>
    <path id="패스_479" data-name="패스 479" d="M71.6,255.434a2.54,2.54,0,1,1,2.54,2.54A2.548,2.548,0,0,1,71.6,255.434Zm-7.9,1.194a2.582,2.582,0,1,1,.648.076A2.821,2.821,0,0,1,63.7,256.628Zm-9.754-4a2.549,2.549,0,1,1,1.257.33A2.542,2.542,0,0,1,53.948,252.627Zm-8.382-6.376a2.53,2.53,0,1,1,1.778.737A2.489,2.489,0,0,1,45.565,246.252Zm-6.49-8.293a2.545,2.545,0,1,1,3.48.889,2.511,2.511,0,0,1-1.283.356A2.554,2.554,0,0,1,39.075,237.958Zm-4.128-9.69a2.5,2.5,0,1,1,2.438,1.854A2.541,2.541,0,0,1,34.948,228.268Zm-1.5-10.427a2.54,2.54,0,1,1,2.566,2.5A2.54,2.54,0,0,1,33.449,217.841Zm3.048-7.379a2.543,2.543,0,1,1,.622.076A2.69,2.69,0,0,1,36.5,210.462Zm3.01-9.436a2.544,2.544,0,1,1,1.232.318A2.555,2.555,0,0,1,39.507,201.025Zm5.347-8.332a2.538,2.538,0,1,1,3.582-.076,2.547,2.547,0,0,1-3.582.076Zm7.277-6.706a2.542,2.542,0,1,1,3.493.851,2.474,2.474,0,0,1-1.321.368A2.547,2.547,0,0,1,52.132,185.988Zm8.763-4.6a2.542,2.542,0,1,1,3.162,1.715,2.374,2.374,0,0,1-.724.1A2.549,2.549,0,0,1,60.9,181.39Zm9.652-2.185a2.541,2.541,0,1,1,2.616,2.464h-.076A2.541,2.541,0,0,1,70.547,179.206Z" transform="translate(712.288 385.318) rotate(90)" fill="#f5df4d"/>
  </g>
</svg>
