<?xml version="1.0" encoding="utf-8"?>
<!-- Generator: Adobe Illustrator 27.7.0, SVG Export Plug-In . SVG Version: 6.00 Build 0)  -->
<svg version="1.1" id="Layer_1" xmlns="http://www.w3.org/2000/svg" xmlns:xlink="http://www.w3.org/1999/xlink" x="0px" y="0px"
	 viewBox="0 0 434 392.2" style="enable-background:new 0 0 434 392.2;" xml:space="preserve">
<style type="text/css">
	.st0{fill:#FFEB64;}
	.st1{enable-background:new    ;}
	.st2{fill:#707070;}
	.st3{fill:#2D2D2D;}
	.st4{fill:#F5DF4D;}
</style>
<path id="사각형_183" class="st0" d="M28.7,336.2h148c15.5,0,28,12.5,28,28l0,0c0,15.5-12.5,28-28,28h-148c-15.5,0-28-12.5-28-28
	l0,0C0.7,348.7,13.3,336.2,28.7,336.2z"/>
<g class="st1">
	<path class="st2" d="M42,361.1c0.1-0.4,0.3-0.8,0.5-1.1h-0.7c-0.2,0-0.3,0-0.4-0.1c-0.1-0.1-0.1-0.2-0.1-0.4v-1.2
		c0-0.1,0-0.3,0.1-0.4c0.1-0.1,0.2-0.1,0.4-0.1H45v-1.2c0-0.1,0.1-0.3,0.2-0.4c0.1-0.1,0.2-0.1,0.4-0.1h1.5c0.1,0,0.3,0,0.4,0.1
		c0.1,0.1,0.1,0.2,0.1,0.4v1.2h3.3c0.1,0,0.3,0,0.4,0.1c0.1,0.1,0.2,0.2,0.2,0.4v1.2c0,0.1-0.1,0.3-0.2,0.4
		c-0.1,0.1-0.2,0.1-0.4,0.1h-0.7c0.5,0.7,0.7,1.5,0.7,2.4c0,0.6-0.1,1.2-0.4,1.7c-0.2,0.5-0.6,1-1,1.4c-0.4,0.4-0.9,0.7-1.4,0.9
		s-1.1,0.3-1.8,0.3c-0.6,0-1.2-0.1-1.8-0.3c-0.6-0.2-1-0.5-1.4-0.9c-0.4-0.4-0.7-0.9-1-1.4c-0.2-0.5-0.4-1.1-0.4-1.7
		C41.8,361.9,41.9,361.5,42,361.1z M44.6,363.2c0.1,0.3,0.2,0.5,0.4,0.7c0.2,0.2,0.4,0.4,0.6,0.5c0.2,0.1,0.5,0.2,0.8,0.2
		c0.3,0,0.5-0.1,0.8-0.2c0.2-0.1,0.4-0.3,0.6-0.5s0.3-0.4,0.4-0.7s0.1-0.6,0.1-0.9c0-0.3,0-0.6-0.1-0.9s-0.2-0.5-0.4-0.7
		s-0.4-0.4-0.6-0.5c-0.2-0.1-0.5-0.2-0.8-0.2c-0.3,0-0.5,0.1-0.8,0.2c-0.2,0.1-0.4,0.3-0.6,0.5c-0.2,0.2-0.3,0.4-0.4,0.7
		s-0.1,0.6-0.1,0.9C44.4,362.6,44.5,362.9,44.6,363.2z M55.2,373c0,0.3-0.1,0.6-0.2,0.8c-0.1,0.3-0.3,0.5-0.5,0.7s-0.5,0.3-0.8,0.5
		c-0.3,0.1-0.6,0.2-1,0.2h-5.7c-0.3,0-0.7-0.1-1-0.2c-0.3-0.1-0.5-0.3-0.8-0.5c-0.2-0.2-0.4-0.4-0.5-0.7c-0.1-0.3-0.2-0.5-0.2-0.8
		v-4.4c0-0.1,0.1-0.3,0.1-0.4c0.1-0.1,0.2-0.1,0.4-0.1h9.5c0.1,0,0.3,0,0.4,0.1c0.1,0.1,0.1,0.2,0.1,0.4V373z M52.6,370.3h-5.4v2.3
		c0,0.1,0,0.1,0.1,0.2c0,0.1,0.1,0.1,0.2,0.1h4.9c0.1,0,0.1,0,0.2-0.1c0-0.1,0.1-0.1,0.1-0.2V370.3z M52.6,356.6
		c0-0.1,0.1-0.3,0.1-0.4c0.1-0.1,0.2-0.1,0.4-0.1h1.5c0.1,0,0.3,0,0.4,0.1c0.1,0.1,0.1,0.2,0.1,0.4v3.9h1.4c0.1,0,0.3,0,0.4,0.1
		c0.1,0.1,0.1,0.2,0.1,0.4v1.2c0,0.1,0,0.3-0.1,0.4c-0.1,0.1-0.2,0.1-0.4,0.1h-1.4v3.9c0,0.1,0,0.3-0.1,0.4
		c-0.1,0.1-0.2,0.1-0.4,0.1h-1.5c-0.2,0-0.3,0-0.4-0.1c-0.1-0.1-0.1-0.2-0.1-0.4V356.6z"/>
	<path class="st2" d="M61.3,361.1c0,0.7-0.1,1.4-0.2,2.1c-0.2,0.7-0.4,1.3-0.6,1.9c-0.3,0.6-0.6,1.1-0.9,1.6
		c-0.4,0.5-0.7,0.9-1.2,1.1c-0.1,0.1-0.2,0.1-0.3,0.1c-0.2,0-0.4-0.1-0.5-0.3l-0.5-1.1c0-0.1-0.1-0.1-0.1-0.2c0-0.2,0.1-0.3,0.3-0.5
		c0.3-0.2,0.5-0.5,0.7-0.8c0.2-0.3,0.4-0.7,0.6-1.1c0.2-0.4,0.3-0.9,0.4-1.4c0.1-0.5,0.1-1,0.1-1.5v-1.3h-1.2c-0.1,0-0.3,0-0.4-0.1
		c-0.1-0.1-0.2-0.2-0.2-0.4v-1.2c0-0.1,0.1-0.3,0.2-0.4c0.1-0.1,0.2-0.1,0.4-0.1h2.9c0.1,0,0.3,0,0.4,0.1c0.1,0.1,0.2,0.2,0.2,0.4
		V361.1z M64.6,364.3c-0.3,0.9-0.6,1.8-1.1,2.5c-0.4,0.8-0.9,1.3-1.5,1.7c-0.1,0.1-0.2,0.1-0.3,0.1c-0.2,0-0.4-0.1-0.5-0.3l-0.5-1.1
		c0-0.1-0.1-0.1-0.1-0.2c0-0.2,0.1-0.3,0.3-0.5c0.3-0.2,0.5-0.5,0.7-0.9c0.2-0.4,0.4-0.8,0.6-1.3c0.2-0.5,0.3-1,0.4-1.6
		c0.1-0.6,0.1-1.1,0.1-1.7v-1.3h-1c-0.2,0-0.3,0-0.4-0.1c-0.1-0.1-0.1-0.2-0.1-0.4v-1.2c0-0.1,0-0.3,0.1-0.4
		c0.1-0.1,0.2-0.1,0.4-0.1h2.7c0.1,0,0.3,0,0.4,0.1c0.1,0.1,0.2,0.2,0.2,0.4v3c0,0.2,0,0.3,0,0.5c0,0.2,0,0.3,0,0.5h1v-5.3
		c0-0.1,0.1-0.3,0.2-0.4c0.1-0.1,0.2-0.1,0.4-0.1h1.3c0.1,0,0.3,0,0.4,0.1c0.1,0.1,0.2,0.2,0.2,0.4v16.6c0,0.1-0.1,0.3-0.2,0.4
		c-0.1,0.1-0.2,0.1-0.4,0.1h-1.3c-0.2,0-0.3,0-0.4-0.1c-0.1-0.1-0.2-0.2-0.2-0.4v-9.1H64.6z M69.2,356.6c0-0.1,0.1-0.3,0.2-0.4
		c0.1-0.1,0.2-0.1,0.4-0.1h1.3c0.1,0,0.3,0,0.4,0.1c0.1,0.1,0.1,0.2,0.1,0.4v17.6c0,0.1,0,0.3-0.1,0.4c-0.1,0.1-0.2,0.1-0.4,0.1
		h-1.3c-0.1,0-0.3,0-0.4-0.1c-0.1-0.1-0.2-0.2-0.2-0.4V356.6z"/>
	<path class="st2" d="M91,362.6h-4.4c-0.7,0.7-1.5,1.3-2.5,1.8s-2.1,0.9-3.2,1.2c-0.1,0-0.3,0-0.4-0.1c-0.1,0-0.2-0.1-0.3-0.3
		l-0.5-1.1v-0.1c0,0,0,0,0-0.1c0-0.2,0.1-0.3,0.4-0.4c0.8-0.2,1.5-0.4,2.2-0.7c0.7-0.3,1.3-0.7,1.8-1.1c0.5-0.4,0.9-0.9,1.2-1.3
		c0.3-0.5,0.5-1,0.5-1.4h-5.5c-0.1,0-0.3,0-0.4-0.1c-0.1-0.1-0.2-0.2-0.2-0.4v-1.2c0-0.1,0.1-0.3,0.2-0.4c0.1-0.1,0.2-0.1,0.4-0.1
		h7.6c0.2,0,0.3,0,0.4,0.1c0.1,0.1,0.2,0.2,0.2,0.4v1.6c0,0.5-0.1,1-0.3,1.5H91v-3.8c0-0.1,0.1-0.3,0.2-0.4c0.1-0.1,0.2-0.1,0.4-0.1
		h1.5c0.1,0,0.3,0,0.4,0.1c0.1,0.1,0.1,0.2,0.1,0.4v8.6c0,0.1,0,0.3-0.1,0.4c-0.1,0.1-0.2,0.1-0.4,0.1h-1.5c-0.2,0-0.3,0-0.4-0.1
		c-0.1-0.1-0.2-0.2-0.2-0.4V362.6z M85,375.1c-0.7,0-1.3-0.2-1.7-0.5c-0.5-0.4-0.7-0.8-0.7-1.4v-2.8c0-0.1,0.1-0.3,0.2-0.4
		c0.1-0.1,0.2-0.1,0.4-0.1H91v-1.1h-7.8c-0.2,0-0.3,0-0.4-0.1c-0.1-0.1-0.1-0.2-0.1-0.4v-1.1c0-0.1,0.1-0.3,0.1-0.4
		c0.1-0.1,0.2-0.1,0.4-0.1h9.9c0.1,0,0.3,0,0.4,0.1c0.1,0.1,0.1,0.2,0.1,0.4v4.2c0,0.1,0,0.3-0.1,0.4c-0.1,0.1-0.2,0.1-0.4,0.1h-7.9
		v0.8c0,0.1,0,0.2,0.1,0.2c0,0.1,0.1,0.1,0.2,0.1h7.8c0.2,0,0.3,0,0.4,0.1c0.1,0.1,0.1,0.2,0.1,0.4v1.1c0,0.1,0,0.3-0.1,0.4
		c-0.1,0.1-0.2,0.1-0.4,0.1H85z"/>
	<path class="st2" d="M94.9,369.6c0-0.1,0-0.3,0.1-0.4c0.1-0.1,0.2-0.1,0.4-0.1H110c0.1,0,0.3,0,0.4,0.1c0.1,0.1,0.2,0.2,0.2,0.4
		v1.2c0,0.1-0.1,0.3-0.2,0.4c-0.1,0.1-0.2,0.1-0.4,0.1H95.4c-0.2,0-0.3,0-0.4-0.1c-0.1-0.1-0.1-0.2-0.1-0.4V369.6z M98.2,359.3
		c0.3-0.6,0.6-1.1,1-1.6c0.4-0.4,1-0.8,1.5-1c0.6-0.3,1.2-0.4,1.9-0.4s1.3,0.1,1.9,0.4c0.6,0.3,1.1,0.6,1.6,1c0.4,0.4,0.8,1,1,1.6
		c0.3,0.6,0.4,1.2,0.4,1.9s-0.1,1.3-0.4,1.9c-0.3,0.6-0.6,1.1-1,1.6c-0.4,0.4-1,0.8-1.6,1c-0.6,0.3-1.2,0.4-1.9,0.4
		s-1.3-0.1-1.9-0.4c-0.6-0.3-1.1-0.6-1.5-1c-0.4-0.4-0.8-1-1-1.6c-0.3-0.6-0.4-1.2-0.4-1.9S97.9,359.9,98.2,359.3z M100.6,362.3
		c0.1,0.3,0.3,0.6,0.5,0.9c0.2,0.2,0.4,0.4,0.7,0.6c0.3,0.1,0.6,0.2,0.9,0.2s0.6-0.1,0.9-0.2c0.3-0.1,0.5-0.3,0.7-0.6
		s0.4-0.5,0.5-0.9c0.1-0.3,0.2-0.7,0.2-1s-0.1-0.7-0.2-1s-0.3-0.6-0.5-0.9c-0.2-0.2-0.5-0.4-0.7-0.6c-0.3-0.1-0.6-0.2-0.9-0.2
		s-0.6,0.1-0.9,0.2c-0.3,0.1-0.5,0.3-0.7,0.6c-0.2,0.2-0.4,0.5-0.5,0.9c-0.1,0.3-0.2,0.7-0.2,1S100.5,361.9,100.6,362.3z"/>
	<path class="st2" d="M119.2,368.3c-0.5,0.1-1,0.1-1.5,0.1s-1.1,0.1-1.7,0.1c-0.6,0-1.2,0-1.8,0c-0.3,0-0.6-0.1-0.9-0.2
		c-0.3-0.1-0.6-0.3-0.8-0.4c-0.2-0.2-0.4-0.4-0.5-0.7c-0.1-0.3-0.2-0.5-0.2-0.8v-4c0-0.1,0.1-0.3,0.2-0.4c0.1-0.1,0.2-0.1,0.4-0.1
		h4.5v-2.2h-4.4c-0.1,0-0.3,0-0.4-0.1c-0.1-0.1-0.2-0.2-0.2-0.4V358c0-0.1,0.1-0.3,0.2-0.4c0.1-0.1,0.2-0.1,0.4-0.1h6.5
		c0.1,0,0.3,0,0.4,0.1c0.1,0.1,0.2,0.2,0.2,0.4v5.6c0,0.1-0.1,0.3-0.2,0.4c-0.1,0.1-0.2,0.1-0.4,0.1h-4.5v1.9c0,0.1,0,0.2,0.1,0.2
		c0,0.1,0.1,0.1,0.1,0.1c0.5,0,1.1,0,1.6,0c0.6,0,1.1-0.1,1.6-0.1c0.5,0,1-0.1,1.4-0.1c0.4-0.1,0.8-0.1,1.1-0.2c0.1,0,0.3,0,0.4,0.1
		s0.2,0.2,0.2,0.4v1.2c0,0.1-0.1,0.3-0.1,0.4c-0.1,0.1-0.2,0.2-0.4,0.2C120,368.2,119.6,368.2,119.2,368.3z M120,362
		c0-0.1,0.1-0.3,0.2-0.4c0.1-0.1,0.2-0.1,0.4-0.1h2.5v-4.9c0-0.1,0.1-0.3,0.2-0.4c0.1-0.1,0.2-0.1,0.4-0.1h1.5c0.1,0,0.3,0,0.4,0.1
		c0.1,0.1,0.1,0.2,0.1,0.4v17.6c0,0.1,0,0.3-0.1,0.4c-0.1,0.1-0.2,0.1-0.4,0.1h-1.5c-0.2,0-0.3,0-0.4-0.1c-0.1-0.1-0.2-0.2-0.2-0.4
		v-10.5h-2.5c-0.2,0-0.3,0-0.4-0.1c-0.1-0.1-0.2-0.2-0.2-0.4V362z"/>
	<path class="st2" d="M142.4,359.7c0,1-0.2,2-0.6,2.9c-0.4,0.9-0.9,1.8-1.6,2.6c-0.7,0.8-1.5,1.5-2.4,2c-0.9,0.6-1.9,1-2.9,1.2
		c-0.1,0-0.3,0-0.4-0.1c-0.1,0-0.2-0.1-0.3-0.3l-0.5-1.1v-0.1c0,0,0,0,0-0.1c0-0.1,0-0.2,0.1-0.2c0.1-0.1,0.2-0.1,0.3-0.2
		c0.8-0.2,1.5-0.5,2.2-0.9c0.7-0.4,1.3-0.9,1.8-1.5c0.5-0.6,0.9-1.2,1.2-2c0.3-0.7,0.5-1.4,0.5-2.2h-5.5c-0.1,0-0.3,0-0.4-0.1
		c-0.1-0.1-0.2-0.2-0.2-0.4v-1.2c0-0.1,0.1-0.3,0.2-0.4c0.1-0.1,0.2-0.1,0.4-0.1h7.6c0.2,0,0.3,0,0.4,0.1c0.1,0.1,0.2,0.2,0.2,0.4
		V359.7z M144.6,356.6c0-0.1,0.1-0.3,0.1-0.4c0.1-0.1,0.2-0.1,0.4-0.1h1.5c0.1,0,0.3,0,0.4,0.1c0.1,0.1,0.1,0.2,0.1,0.4v5.3h1.4
		c0.1,0,0.3,0,0.4,0.1c0.1,0.1,0.1,0.2,0.1,0.4v1.2c0,0.1,0,0.3-0.1,0.4c-0.1,0.1-0.2,0.1-0.4,0.1h-1.4v10.1c0,0.1,0,0.3-0.1,0.4
		c-0.1,0.1-0.2,0.1-0.4,0.1h-1.5c-0.2,0-0.3,0-0.4-0.1c-0.1-0.1-0.1-0.2-0.1-0.4V356.6z"/>
	<path class="st2" d="M158.4,359.7c0,1-0.2,2-0.6,2.9c-0.4,0.9-0.9,1.8-1.6,2.6c-0.7,0.8-1.5,1.5-2.4,2c-0.9,0.6-1.9,1-2.9,1.2
		c-0.1,0-0.3,0-0.4-0.1c-0.1,0-0.2-0.1-0.3-0.3l-0.5-1.1v-0.1c0,0,0,0,0-0.1c0-0.1,0-0.2,0.1-0.2c0.1-0.1,0.2-0.1,0.3-0.2
		c0.8-0.2,1.5-0.5,2.2-0.9c0.7-0.4,1.3-0.9,1.8-1.5c0.5-0.6,0.9-1.2,1.2-2c0.3-0.7,0.5-1.4,0.5-2.2h-5.5c-0.1,0-0.3,0-0.4-0.1
		c-0.1-0.1-0.2-0.2-0.2-0.4v-1.2c0-0.1,0.1-0.3,0.2-0.4c0.1-0.1,0.2-0.1,0.4-0.1h7.6c0.2,0,0.3,0,0.4,0.1c0.1,0.1,0.2,0.2,0.2,0.4
		V359.7z M161,356.6c0-0.1,0.1-0.3,0.2-0.4c0.1-0.1,0.2-0.1,0.4-0.1h1.5c0.1,0,0.3,0,0.4,0.1c0.1,0.1,0.1,0.2,0.1,0.4v17.6
		c0,0.1,0,0.3-0.1,0.4c-0.1,0.1-0.2,0.1-0.4,0.1h-1.5c-0.2,0-0.3,0-0.4-0.1c-0.1-0.1-0.2-0.2-0.2-0.4V356.6z"/>
</g>
<g class="st1">
	<path class="st2" d="M7.2,194.1c-0.1,0-0.2,0-0.3-0.1s-0.1-0.2-0.1-0.3v-0.4c0-0.1,0-0.2,0.1-0.3C7,193,7.1,193,7.2,193h3.6v-1.4
		c0-0.1,0-0.2,0.1-0.3c0.1-0.1,0.2-0.1,0.3-0.1h0.6c0.1,0,0.2,0,0.3,0.1c0.1,0.1,0.1,0.2,0.1,0.3v1.4h3.6c0.3,0,0.4,0.1,0.4,0.4v0.4
		c0,0.3-0.1,0.4-0.4,0.4h-1.6c0.5,0.6,0.8,1.1,1.1,1.6c0.3,0.5,0.4,1,0.4,1.5c0,0.5-0.1,1-0.3,1.5s-0.5,0.9-0.9,1.2
		c-0.4,0.3-0.8,0.6-1.3,0.8c-0.5,0.2-1,0.3-1.6,0.3s-1.1-0.1-1.6-0.3s-0.9-0.5-1.3-0.8s-0.7-0.8-0.9-1.2c-0.2-0.5-0.3-1-0.3-1.5
		c0-0.4,0.1-0.9,0.4-1.5c0.3-0.5,0.6-1.1,1-1.6H7.2z M9,198.2c0.1,0.3,0.3,0.6,0.6,0.9c0.2,0.3,0.5,0.4,0.9,0.6
		c0.3,0.1,0.7,0.2,1.1,0.2c0.4,0,0.7-0.1,1.1-0.2c0.3-0.1,0.6-0.3,0.9-0.6c0.2-0.3,0.4-0.5,0.6-0.9c0.1-0.3,0.2-0.7,0.2-1.1
		s-0.1-0.8-0.2-1.1c-0.1-0.3-0.3-0.6-0.6-0.9c-0.2-0.3-0.5-0.5-0.9-0.6s-0.7-0.2-1.1-0.2c-0.4,0-0.7,0.1-1.1,0.2
		c-0.3,0.1-0.6,0.3-0.9,0.6c-0.2,0.3-0.4,0.5-0.6,0.9c-0.1,0.3-0.2,0.7-0.2,1.1S8.9,197.9,9,198.2z M11.9,204.9
		c0.2-0.5,0.5-0.9,0.9-1.2s0.8-0.6,1.3-0.8c0.5-0.2,1-0.3,1.6-0.3c0.6,0,1.1,0.1,1.6,0.3s0.9,0.5,1.3,0.8s0.7,0.7,0.9,1.2
		c0.2,0.5,0.3,1,0.3,1.5c0,0.5-0.1,1-0.3,1.5s-0.5,0.9-0.9,1.2s-0.8,0.6-1.3,0.8s-1,0.3-1.6,0.3c-0.6,0-1.1-0.1-1.6-0.3
		c-0.5-0.2-0.9-0.5-1.3-0.8s-0.7-0.8-0.9-1.2c-0.2-0.5-0.3-1-0.3-1.5C11.6,205.9,11.7,205.4,11.9,204.9z M13.2,207.6
		c0.1,0.3,0.3,0.6,0.6,0.9c0.2,0.3,0.5,0.5,0.9,0.6c0.3,0.1,0.7,0.2,1.1,0.2c0.4,0,0.7-0.1,1.1-0.2c0.3-0.1,0.6-0.3,0.9-0.6
		s0.4-0.5,0.6-0.9s0.2-0.7,0.2-1.1s-0.1-0.8-0.2-1.1c-0.1-0.3-0.3-0.6-0.6-0.9c-0.2-0.3-0.5-0.5-0.9-0.6s-0.7-0.2-1.1-0.2
		c-0.4,0-0.7,0.1-1.1,0.2c-0.3,0.1-0.6,0.3-0.9,0.6c-0.2,0.3-0.4,0.5-0.6,0.9c-0.1,0.3-0.2,0.7-0.2,1.1S13,207.2,13.2,207.6z
		 M19.2,201.3c-0.3,0-0.4-0.1-0.4-0.4v-9.2c0-0.3,0.1-0.4,0.4-0.4h0.6c0.1,0,0.2,0,0.3,0.1s0.1,0.2,0.1,0.3v2.1h1.6
		c0.1,0,0.2,0,0.3,0.1s0.1,0.2,0.1,0.3v0.4c0,0.1,0,0.2-0.1,0.3s-0.2,0.1-0.3,0.1h-1.6v2.8h1.6c0.1,0,0.2,0,0.3,0.1s0.1,0.2,0.1,0.3
		v0.4c0,0.1,0,0.2-0.1,0.3s-0.2,0.1-0.3,0.1h-1.6l0,1.9c0,0.1,0,0.2-0.1,0.3c-0.1,0.1-0.2,0.1-0.3,0.1H19.2z"/>
	<path class="st2" d="M23.2,193.4v-0.3c0-0.1,0-0.2,0.1-0.3s0.2-0.1,0.3-0.1h7.6c0.1,0,0.2,0,0.3,0.1s0.1,0.2,0.1,0.3v0.7
		c0,1.1-0.2,2.2-0.6,3.2c-0.4,1-0.9,2-1.6,2.8s-1.5,1.6-2.5,2.2c-1,0.6-2,1-3.1,1.3c-0.1,0-0.2,0-0.3,0c-0.1-0.1-0.2-0.1-0.2-0.2
		l-0.1-0.4c-0.1-0.2,0-0.4,0.3-0.5c1-0.2,1.9-0.6,2.8-1.2s1.6-1.2,2.2-1.9c0.6-0.7,1.1-1.6,1.5-2.5c0.4-0.9,0.5-1.8,0.5-2.8h-6.8
		c-0.1,0-0.2,0-0.3-0.1S23.2,193.5,23.2,193.4z M35.5,209.2v-17.6c0-0.1,0-0.2,0.1-0.3s0.2-0.1,0.3-0.1h0.5c0.1,0,0.2,0,0.3,0.1
		s0.1,0.2,0.1,0.3v17.6c0,0.1,0,0.2-0.1,0.3s-0.2,0.1-0.3,0.1h-0.5c-0.1,0-0.2,0-0.3-0.1S35.5,209.3,35.5,209.2z"/>
	<path class="st2" d="M38.3,205.5c0-0.1,0-0.2,0.1-0.3c0.1-0.1,0.2-0.1,0.3-0.1h6.7v-3.7h-2.8c-0.5,0-0.8-0.1-1.1-0.4
		c-0.3-0.3-0.5-0.7-0.5-1.1v-3.5c0-0.1,0-0.2,0.1-0.3s0.2-0.1,0.3-0.1h8.3v-3h-8.2c-0.1,0-0.2,0-0.3-0.1s-0.1-0.2-0.1-0.3v-0.3
		c0-0.1,0-0.2,0.1-0.3s0.2-0.1,0.3-0.1h9c0.1,0,0.2,0,0.3,0.1s0.1,0.2,0.1,0.3v4.5c0,0.1,0,0.2-0.1,0.3s-0.2,0.1-0.3,0.1h-8.3v2.8
		c0,0.1,0,0.2,0.1,0.3c0.1,0.1,0.2,0.1,0.3,0.1h8.1c0.1,0,0.2,0,0.3,0.1c0.1,0.1,0.1,0.2,0.1,0.3v0.3c0,0.1,0,0.2-0.1,0.3
		c-0.1,0.1-0.2,0.1-0.3,0.1h-4v3.7h6.7c0.1,0,0.2,0,0.3,0.1s0.1,0.2,0.1,0.3v0.3c0,0.1,0,0.2-0.1,0.3s-0.2,0.1-0.3,0.1H38.7
		c-0.1,0-0.2,0-0.3-0.1c-0.1-0.1-0.1-0.2-0.1-0.3V205.5z"/>
	<path class="st2" d="M69.3,201.4c0.1,0,0.2,0,0.3,0.1s0.1,0.2,0.1,0.3v0.3c0,0.1,0,0.2-0.1,0.3s-0.2,0.1-0.3,0.1h-6.2v2.8
		c0,0.1,0,0.2-0.1,0.3s-0.2,0.1-0.3,0.1h-0.5c-0.1,0-0.2,0-0.3-0.1s-0.1-0.2-0.1-0.3v-2.8h-7.2c-0.1,0-0.2,0-0.3-0.1
		c-0.1-0.1-0.1-0.2-0.1-0.3v-0.3c0-0.1,0-0.2,0.1-0.3c0.1-0.1,0.2-0.1,0.3-0.1H69.3z M58.7,209.9c-0.4,0-0.8-0.1-1.1-0.4
		c-0.3-0.3-0.5-0.7-0.5-1.1v-3.7c0-0.1,0-0.2,0.1-0.3s0.2-0.1,0.3-0.1h0.4c0.1,0,0.2,0,0.3,0.1s0.1,0.2,0.1,0.3v3.7
		c0,0.1,0,0.2,0.1,0.3c0.1,0.1,0.2,0.1,0.3,0.1h8.1c0.1,0,0.2,0,0.3,0.1s0.1,0.2,0.1,0.3v0.3c0,0.1,0,0.2-0.1,0.3s-0.2,0.1-0.3,0.1
		H58.7z M58,194c0.2-0.5,0.5-1,0.9-1.4c0.4-0.4,0.9-0.7,1.4-0.9c0.5-0.2,1.1-0.3,1.7-0.3s1.2,0.1,1.7,0.3c0.5,0.2,1,0.5,1.4,0.9
		s0.7,0.8,0.9,1.4c0.2,0.5,0.3,1.1,0.3,1.7s-0.1,1.2-0.3,1.7c-0.2,0.5-0.5,1-0.9,1.4c-0.4,0.4-0.9,0.7-1.4,0.9
		c-0.5,0.2-1.1,0.3-1.7,0.3s-1.2-0.1-1.7-0.3c-0.5-0.2-1-0.5-1.4-0.9c-0.4-0.4-0.7-0.8-0.9-1.4c-0.2-0.5-0.3-1.1-0.3-1.7
		S57.8,194.6,58,194z M59.1,197c0.2,0.4,0.4,0.7,0.7,1c0.3,0.3,0.6,0.5,1,0.7c0.4,0.2,0.8,0.2,1.2,0.2s0.9-0.1,1.2-0.2
		c0.4-0.2,0.7-0.4,1-0.7c0.3-0.3,0.5-0.6,0.7-1s0.2-0.8,0.2-1.2s-0.1-0.9-0.2-1.2s-0.4-0.7-0.7-1c-0.3-0.3-0.6-0.5-1-0.7
		s-0.8-0.2-1.2-0.2s-0.9,0.1-1.2,0.2s-0.7,0.4-1,0.7c-0.3,0.3-0.5,0.6-0.7,1c-0.2,0.4-0.2,0.8-0.2,1.2S58.9,196.6,59.1,197z"/>
	<path class="st2" d="M83.1,201c-0.7-0.8-1.3-1.7-1.7-2.7c-0.2,0.5-0.4,1-0.7,1.4s-0.6,0.9-1,1.3c-0.4,0.4-0.7,0.8-1.1,1.1
		s-0.8,0.6-1.3,0.9c-0.1,0.1-0.2,0.1-0.3,0s-0.2-0.1-0.2-0.2l-0.1-0.4c0-0.1,0-0.2,0-0.3c0-0.1,0.1-0.2,0.2-0.2
		c0.5-0.3,1.1-0.7,1.5-1.2s0.9-1,1.2-1.6c0.3-0.6,0.6-1.2,0.8-1.8c0.2-0.6,0.3-1.2,0.3-1.8v-2.6c0-0.1,0-0.2,0.1-0.3
		c0.1-0.1,0.2-0.1,0.3-0.1h0.5c0.1,0,0.2,0,0.3,0.1c0.1,0.1,0.1,0.2,0.1,0.3v2.6c0,0.6,0.1,1.2,0.3,1.8c0.2,0.6,0.5,1.2,0.8,1.8
		c0.3,0.6,0.8,1.1,1.2,1.6c0.5,0.5,1,0.9,1.5,1.2c0.1,0.1,0.2,0.1,0.2,0.2c0,0.1,0,0.2,0,0.3l-0.1,0.4c-0.1,0.3-0.3,0.3-0.5,0.2
		C84.6,202.5,83.8,201.9,83.1,201z M89.1,191.6c0-0.1,0-0.2,0.1-0.3s0.2-0.1,0.3-0.1H90c0.1,0,0.2,0,0.3,0.1s0.1,0.2,0.1,0.3v5.8
		h1.5c0.1,0,0.2,0,0.3,0.1s0.1,0.2,0.1,0.3v0.3c0,0.1,0,0.2-0.1,0.3s-0.2,0.1-0.3,0.1h-1.5v10.6c0,0.1,0,0.2-0.1,0.3
		s-0.2,0.1-0.3,0.1h-0.5c-0.1,0-0.2,0-0.3-0.1s-0.1-0.2-0.1-0.3V191.6z"/>
	<path class="st2" d="M105.2,191.6c0-0.1,0-0.2,0.1-0.3s0.2-0.1,0.3-0.1h0.5c0.1,0,0.2,0,0.3,0.1s0.1,0.2,0.1,0.3v3.7h1.5
		c0.1,0,0.2,0,0.3,0.1s0.1,0.2,0.1,0.3v0.3c0,0.1,0,0.2-0.1,0.3s-0.2,0.1-0.3,0.1h-1.5v4.3c0,0.1,0,0.2-0.1,0.3s-0.2,0.1-0.3,0.1
		h-0.5c-0.1,0-0.2,0-0.3-0.1s-0.1-0.2-0.1-0.3v-1c-0.6,0.1-1.2,0.3-2.1,0.4c-0.8,0.1-1.7,0.2-2.6,0.3c-0.9,0.1-1.9,0.2-2.9,0.2
		c-1,0-1.9,0.1-2.9,0.1c-0.4,0-0.8-0.1-1.1-0.4c-0.3-0.3-0.5-0.7-0.5-1.1v-3.1c0-0.1,0-0.2,0.1-0.3s0.2-0.1,0.3-0.1h6.7v-2.8h-6.6
		c-0.1,0-0.2,0-0.3-0.1c-0.1-0.1-0.1-0.2-0.1-0.3v-0.3c0-0.1,0-0.2,0.1-0.3c0.1-0.1,0.2-0.1,0.3-0.1h7.4c0.1,0,0.2,0,0.3,0.1
		c0.1,0.1,0.1,0.2,0.1,0.3v4.3c0,0.1,0,0.2-0.1,0.3c-0.1,0.1-0.2,0.1-0.3,0.1h-6.7v2.4c0,0.1,0,0.2,0.1,0.3c0.1,0.1,0.2,0.1,0.3,0.1
		c0.9,0,1.9,0,2.9-0.1s2-0.1,2.9-0.2s1.8-0.2,2.6-0.3c0.8-0.1,1.5-0.2,2-0.4V191.6z M97.6,204.2c0.2-0.5,0.5-1,0.9-1.4
		c0.4-0.4,0.9-0.7,1.4-0.9c0.5-0.2,1.1-0.3,1.7-0.3c0.6,0,1.2,0.1,1.7,0.3c0.5,0.2,1,0.5,1.4,0.9c0.4,0.4,0.7,0.8,0.9,1.4
		c0.2,0.5,0.3,1.1,0.3,1.7c0,0.6-0.1,1.2-0.3,1.7c-0.2,0.5-0.5,1-0.9,1.4c-0.4,0.4-0.9,0.7-1.4,0.9s-1.1,0.3-1.7,0.3
		c-0.6,0-1.2-0.1-1.7-0.3c-0.5-0.2-1-0.5-1.4-0.9c-0.4-0.4-0.7-0.8-0.9-1.4c-0.2-0.5-0.3-1.1-0.3-1.7
		C97.3,205.3,97.4,204.8,97.6,204.2z M98.7,207.2c0.2,0.4,0.4,0.7,0.7,1c0.3,0.3,0.6,0.5,1,0.7c0.4,0.2,0.8,0.2,1.2,0.2
		s0.9-0.1,1.2-0.2s0.7-0.4,1-0.7c0.3-0.3,0.5-0.6,0.7-1c0.2-0.4,0.2-0.8,0.2-1.2c0-0.4-0.1-0.9-0.2-1.2s-0.4-0.7-0.7-1
		c-0.3-0.3-0.6-0.5-1-0.7c-0.4-0.2-0.8-0.2-1.2-0.2s-0.9,0.1-1.2,0.2c-0.4,0.2-0.7,0.4-1,0.7c-0.3,0.3-0.5,0.6-0.7,1
		c-0.2,0.4-0.2,0.8-0.2,1.2C98.5,206.4,98.6,206.8,98.7,207.2z"/>
	<path class="st2" d="M121.5,204.8c-0.3,0.2-0.7,0.4-1.1,0.6c-0.4,0.2-0.9,0.3-1.3,0.4c-0.5,0.1-0.9,0.2-1.4,0.3
		c-0.4,0.1-0.9,0.1-1.2,0.1h-7.8c-0.1,0-0.2,0-0.3-0.1c-0.1-0.1-0.1-0.2-0.1-0.3v-0.3c0-0.1,0-0.2,0.1-0.3c0.1-0.1,0.2-0.1,0.3-0.1
		h7.8c0.4,0,0.8,0,1.3-0.1c0.5-0.1,0.9-0.2,1.4-0.3c0.5-0.1,0.9-0.3,1.3-0.4c0.4-0.2,0.8-0.4,1.1-0.5v-12.1c0-0.1,0-0.2,0.1-0.3
		s0.2-0.1,0.3-0.1h0.5c0.1,0,0.2,0,0.3,0.1s0.1,0.2,0.1,0.3v17.6c0,0.1,0,0.2-0.1,0.3s-0.2,0.1-0.3,0.1h-0.5c-0.1,0-0.2,0-0.3-0.1
		s-0.1-0.2-0.1-0.3V204.8z M109.4,194.3c0.2-0.6,0.6-1.1,1-1.5c0.4-0.4,0.9-0.8,1.5-1c0.6-0.2,1.1-0.4,1.8-0.4
		c0.6,0,1.2,0.1,1.8,0.4c0.6,0.2,1,0.6,1.4,1c0.4,0.4,0.7,0.9,1,1.5c0.2,0.6,0.4,1.2,0.4,1.9s-0.1,1.3-0.4,1.9
		c-0.2,0.6-0.6,1.1-1,1.5c-0.4,0.4-0.9,0.8-1.4,1c-0.6,0.2-1.2,0.4-1.8,0.4c-0.6,0-1.2-0.1-1.8-0.4c-0.6-0.2-1-0.6-1.5-1
		c-0.4-0.4-0.7-0.9-1-1.5c-0.2-0.6-0.4-1.2-0.4-1.9S109.2,194.9,109.4,194.3z M110.6,197.7c0.2,0.4,0.4,0.8,0.7,1.2
		c0.3,0.3,0.7,0.6,1.1,0.8c0.4,0.2,0.8,0.3,1.3,0.3c0.5,0,0.9-0.1,1.3-0.3c0.4-0.2,0.8-0.5,1.1-0.8c0.3-0.3,0.5-0.7,0.7-1.2
		c0.2-0.4,0.3-0.9,0.3-1.5s-0.1-1-0.3-1.5c-0.2-0.4-0.4-0.8-0.7-1.2c-0.3-0.3-0.7-0.6-1.1-0.8c-0.4-0.2-0.8-0.3-1.3-0.3
		c-0.5,0-0.9,0.1-1.3,0.3c-0.4,0.2-0.8,0.5-1.1,0.8c-0.3,0.3-0.5,0.7-0.7,1.2c-0.2,0.4-0.3,0.9-0.3,1.5S110.4,197.2,110.6,197.7z"/>
	<path class="st2" d="M130.3,200c0-0.1,0-0.2,0.1-0.3c0.1-0.1,0.2-0.1,0.3-0.1h6.7v-1.9c0-0.1,0-0.2,0.1-0.3s0.2-0.1,0.3-0.1h0.5
		c0.1,0,0.2,0,0.3,0.1s0.1,0.2,0.1,0.3v1.9h6.7c0.1,0,0.2,0,0.3,0.1s0.1,0.2,0.1,0.3v0.3c0,0.1,0,0.2-0.1,0.3s-0.2,0.1-0.3,0.1
		h-14.6c-0.1,0-0.2,0-0.3-0.1c-0.1-0.1-0.1-0.2-0.1-0.3V200z M138.6,192.7c0,0.4,0.1,0.8,0.4,1.1s0.6,0.8,1,1.1
		c0.4,0.4,0.9,0.7,1.5,1c0.6,0.3,1.2,0.6,1.8,0.8c0.3,0.1,0.3,0.2,0.2,0.5l-0.1,0.4c0,0.1-0.1,0.2-0.2,0.2c-0.1,0.1-0.2,0.1-0.3,0
		c-1.1-0.3-2-0.8-2.9-1.4c-0.9-0.6-1.5-1.3-2-1.9c-0.5,0.7-1.1,1.3-2,1.9c-0.9,0.6-1.8,1.1-2.9,1.4c-0.1,0-0.2,0-0.3,0
		s-0.2-0.1-0.2-0.2l-0.1-0.4c-0.1-0.3,0-0.4,0.2-0.5c0.7-0.2,1.3-0.5,1.8-0.8s1.1-0.6,1.5-1c0.4-0.4,0.7-0.7,1-1.1
		c0.2-0.4,0.4-0.8,0.4-1.1h-4.2c-0.1,0-0.2,0-0.3-0.1c-0.1-0.1-0.1-0.2-0.1-0.3V192c0-0.1,0-0.2,0.1-0.3c0.1-0.1,0.2-0.1,0.3-0.1
		h9.5c0.1,0,0.2,0,0.3,0.1c0.1,0.1,0.1,0.2,0.1,0.3v0.3c0,0.1,0,0.2-0.1,0.3s-0.2,0.1-0.3,0.1H138.6z M134,204.5
		c0.2-0.5,0.5-0.9,0.9-1.3c0.4-0.4,0.9-0.7,1.4-0.9s1.1-0.3,1.7-0.3s1.2,0.1,1.7,0.3c0.5,0.2,1,0.5,1.4,0.9c0.4,0.4,0.7,0.8,0.9,1.3
		c0.2,0.5,0.3,1,0.3,1.6s-0.1,1.1-0.3,1.6c-0.2,0.5-0.5,0.9-0.9,1.3c-0.4,0.4-0.9,0.7-1.4,0.9c-0.5,0.2-1.1,0.3-1.7,0.3
		s-1.2-0.1-1.7-0.3c-0.5-0.2-1-0.5-1.4-0.9c-0.4-0.4-0.7-0.8-0.9-1.3c-0.2-0.5-0.3-1-0.3-1.6S133.8,205,134,204.5z M135.1,207.3
		c0.2,0.4,0.4,0.7,0.7,1c0.3,0.3,0.6,0.5,1,0.6c0.4,0.2,0.8,0.2,1.2,0.2s0.9-0.1,1.2-0.2c0.4-0.2,0.7-0.4,1-0.6
		c0.3-0.3,0.5-0.6,0.7-1c0.2-0.4,0.2-0.7,0.2-1.2s-0.1-0.8-0.2-1.2c-0.2-0.4-0.4-0.7-0.7-1c-0.3-0.3-0.6-0.5-1-0.6s-0.8-0.2-1.2-0.2
		s-0.9,0.1-1.2,0.2s-0.7,0.4-1,0.6c-0.3,0.3-0.5,0.6-0.7,1c-0.2,0.4-0.2,0.7-0.2,1.2S134.9,206.9,135.1,207.3z"/>
	<path class="st2" d="M146.3,205.5c0-0.1,0-0.2,0.1-0.3c0.1-0.1,0.2-0.1,0.3-0.1h6.7v-4.3c0-0.1,0-0.2,0.1-0.3s0.2-0.1,0.3-0.1h0.5
		c0.1,0,0.2,0,0.3,0.1s0.1,0.2,0.1,0.3v4.3h6.7c0.1,0,0.2,0,0.3,0.1s0.1,0.2,0.1,0.3v0.3c0,0.1,0,0.2-0.1,0.3s-0.2,0.1-0.3,0.1
		h-14.6c-0.1,0-0.2,0-0.3-0.1c-0.1-0.1-0.1-0.2-0.1-0.3V205.5z M157.4,200c-0.5-0.3-0.9-0.6-1.4-1c-0.4-0.4-0.8-0.8-1.1-1.2
		s-0.6-0.9-0.8-1.4c-0.2,0.5-0.5,0.9-0.8,1.4c-0.3,0.4-0.7,0.8-1.1,1.2c-0.4,0.4-0.9,0.7-1.4,1c-0.5,0.3-1,0.5-1.6,0.7
		c-0.1,0-0.2,0-0.3,0c-0.1-0.1-0.2-0.1-0.2-0.2l-0.1-0.4c0-0.1,0-0.2,0-0.3c0-0.1,0.1-0.2,0.2-0.2c0.7-0.2,1.3-0.6,1.8-1
		c0.6-0.4,1-0.9,1.5-1.4c0.4-0.5,0.7-1,1-1.6s0.4-1.1,0.4-1.7v-1.8c0-0.1,0-0.2,0.1-0.3s0.2-0.1,0.3-0.1h0.5c0.1,0,0.2,0,0.3,0.1
		s0.1,0.2,0.1,0.3v1.8c0,0.6,0.1,1.1,0.4,1.7c0.2,0.6,0.6,1.1,1,1.6c0.4,0.5,0.9,1,1.5,1.4c0.6,0.4,1.2,0.7,1.8,1
		c0.1,0,0.2,0.1,0.2,0.2c0,0.1,0,0.2,0,0.3l-0.1,0.4c0,0.1-0.1,0.2-0.2,0.2c-0.1,0.1-0.2,0.1-0.3,0
		C158.4,200.5,157.9,200.3,157.4,200z"/>
	<path class="st2" d="M175.5,191.6c0-0.1,0-0.2,0.1-0.3s0.2-0.1,0.3-0.1h0.5c0.1,0,0.2,0,0.3,0.1s0.1,0.2,0.1,0.3v17.6
		c0,0.1,0,0.2-0.1,0.3s-0.2,0.1-0.3,0.1h-0.5c-0.1,0-0.2,0-0.3-0.1s-0.1-0.2-0.1-0.3v-6.8c-0.6,0.1-1.3,0.3-2.1,0.4
		c-0.8,0.1-1.8,0.2-2.7,0.3c-1,0.1-2,0.2-3,0.2s-2,0.1-2.9,0.1c-0.4,0-0.8-0.1-1.1-0.4c-0.3-0.3-0.5-0.7-0.5-1.1v-4
		c0-0.1,0-0.2,0.1-0.3s0.2-0.1,0.3-0.1h6.7v-3.7h-6.6c-0.1,0-0.2,0-0.3-0.1c-0.1-0.1-0.1-0.2-0.1-0.3V193c0-0.1,0-0.2,0.1-0.3
		c0.1-0.1,0.2-0.1,0.3-0.1h7.4c0.1,0,0.2,0,0.3,0.1c0.1,0.1,0.1,0.2,0.1,0.3v5.2c0,0.1,0,0.2-0.1,0.3c-0.1,0.1-0.2,0.1-0.3,0.1h-6.7
		v3.3c0,0.1,0,0.2,0.1,0.3c0.1,0.1,0.2,0.1,0.3,0.1c0.9,0,1.9,0,3-0.1c1,0,2-0.1,3-0.2s1.9-0.2,2.7-0.3s1.5-0.2,2.1-0.4V191.6z"/>
	<path class="st2" d="M179.2,193.4v-0.3c0-0.1,0-0.2,0.1-0.3s0.2-0.1,0.3-0.1h7.6c0.1,0,0.2,0,0.3,0.1s0.1,0.2,0.1,0.3v0.7
		c0,1.1-0.2,2.2-0.6,3.2c-0.4,1-0.9,2-1.6,2.8c-0.7,0.9-1.5,1.6-2.5,2.2c-1,0.6-2,1-3.1,1.3c-0.1,0-0.2,0-0.3,0
		c-0.1-0.1-0.2-0.1-0.2-0.2l-0.1-0.4c-0.1-0.2,0-0.4,0.3-0.5c1-0.2,1.9-0.6,2.8-1.2s1.6-1.2,2.2-1.9c0.6-0.7,1.1-1.6,1.5-2.5
		c0.4-0.9,0.5-1.8,0.5-2.8h-6.8c-0.1,0-0.2,0-0.3-0.1S179.2,193.5,179.2,193.4z M191.1,209.2v-17.6c0-0.1,0-0.2,0.1-0.3
		s0.2-0.1,0.3-0.1h0.5c0.1,0,0.2,0,0.3,0.1s0.1,0.2,0.1,0.3v5.8h1.5c0.1,0,0.2,0,0.3,0.1s0.1,0.2,0.1,0.3v0.3c0,0.1,0,0.2-0.1,0.3
		s-0.2,0.1-0.3,0.1h-1.5v10.6c0,0.1,0,0.2-0.1,0.3s-0.2,0.1-0.3,0.1h-0.5c-0.1,0-0.2,0-0.3-0.1S191.1,209.3,191.1,209.2z"/>
	<path class="st2" d="M215.7,200.9c0,0.1,0,0.2-0.1,0.3c-0.1,0.1-0.2,0.1-0.3,0.1h-6.7v1.5h4c0.1,0,0.2,0,0.3,0.1
		c0.1,0.1,0.1,0.2,0.1,0.3v3.4c0,0.1,0,0.2-0.1,0.3c-0.1,0.1-0.2,0.1-0.3,0.1h-8.6v1.5c0,0.1,0,0.2,0.1,0.3c0.1,0.1,0.2,0.1,0.3,0.1
		h8.3c0.1,0,0.2,0,0.3,0.1s0.1,0.2,0.1,0.3v0.3c0,0.1,0,0.2-0.1,0.3s-0.2,0.1-0.3,0.1h-8.3c-0.5,0-0.8-0.1-1.1-0.4
		c-0.3-0.3-0.5-0.7-0.5-1.1v-2.2c0-0.1,0-0.2,0.1-0.3c0.1-0.1,0.2-0.1,0.3-0.1h8.6v-1.9h-8.5c-0.1,0-0.2,0-0.3-0.1s-0.1-0.2-0.1-0.3
		v-0.3c0-0.1,0-0.2,0.1-0.3s0.2-0.1,0.3-0.1h4v-1.5h-6.7c-0.1,0-0.2,0-0.3-0.1c-0.1-0.1-0.1-0.2-0.1-0.3v-0.3c0-0.1,0-0.2,0.1-0.3
		c0.1-0.1,0.2-0.1,0.3-0.1h14.6c0.1,0,0.2,0,0.3,0.1c0.1,0.1,0.1,0.2,0.1,0.3V200.9z M204,193.7c0.2-0.5,0.5-0.9,0.9-1.3
		c0.4-0.4,0.9-0.6,1.4-0.9c0.5-0.2,1.1-0.3,1.7-0.3s1.2,0.1,1.7,0.3c0.5,0.2,1,0.5,1.4,0.9c0.4,0.4,0.7,0.8,0.9,1.3
		c0.2,0.5,0.3,1,0.3,1.6s-0.1,1.1-0.3,1.6c-0.2,0.5-0.5,0.9-0.9,1.3c-0.4,0.4-0.9,0.6-1.4,0.9c-0.5,0.2-1.1,0.3-1.7,0.3
		s-1.2-0.1-1.7-0.3c-0.5-0.2-1-0.5-1.4-0.9c-0.4-0.4-0.7-0.8-0.9-1.3c-0.2-0.5-0.3-1-0.3-1.6S203.7,194.1,204,193.7z M205.1,196.4
		c0.2,0.4,0.4,0.7,0.7,0.9c0.3,0.3,0.6,0.5,1,0.6s0.8,0.2,1.2,0.2s0.9-0.1,1.2-0.2s0.7-0.4,1-0.6c0.3-0.3,0.5-0.6,0.7-0.9
		c0.2-0.4,0.2-0.7,0.2-1.1s-0.1-0.8-0.2-1.1s-0.4-0.7-0.7-0.9c-0.3-0.3-0.6-0.5-1-0.6c-0.4-0.1-0.8-0.2-1.2-0.2s-0.9,0.1-1.2,0.2
		c-0.4,0.1-0.7,0.4-1,0.6c-0.3,0.3-0.5,0.6-0.7,0.9c-0.2,0.4-0.2,0.7-0.2,1.1S204.9,196,205.1,196.4z"/>
	<path class="st2" d="M226,202.5c0,0.1,0,0.2-0.1,0.3c-0.1,0.1-0.2,0.1-0.3,0.2c-0.4,0.1-0.9,0.1-1.4,0.2c-0.5,0.1-1.1,0.1-1.7,0.1
		s-1.2,0.1-1.9,0.1c-0.6,0-1.3,0-1.8,0c-0.4,0-0.8-0.1-1.1-0.4c-0.3-0.3-0.5-0.7-0.5-1.1v-4c0-0.1,0-0.2,0.1-0.3s0.2-0.1,0.3-0.1
		h5.7v-3.7h-5.6c-0.1,0-0.2,0-0.3-0.1c-0.1-0.1-0.1-0.2-0.1-0.3V193c0-0.1,0-0.2,0.1-0.3c0.1-0.1,0.2-0.1,0.3-0.1h6.5
		c0.1,0,0.2,0,0.3,0.1c0.1,0.1,0.1,0.2,0.1,0.3v5.2c0,0.1,0,0.2-0.1,0.3s-0.2,0.1-0.3,0.1h-5.7v3.3c0,0.1,0,0.2,0.1,0.3
		c0.1,0.1,0.2,0.1,0.3,0.1c0.6,0,1.2,0,1.9,0c0.6,0,1.3-0.1,1.9-0.1s1.2-0.1,1.7-0.1c0.5-0.1,1-0.1,1.4-0.2c0.3,0,0.4,0.1,0.4,0.3
		V202.5z M229.5,198.7v-2.9h-3.2c-0.1,0-0.2,0-0.3-0.1c-0.1-0.1-0.1-0.2-0.1-0.3v-0.3c0-0.1,0-0.2,0.1-0.3c0.1-0.1,0.2-0.1,0.3-0.1
		h3.2v-3c0-0.1,0-0.2,0.1-0.3c0.1-0.1,0.2-0.1,0.3-0.1h0.5c0.1,0,0.2,0,0.3,0.1c0.1,0.1,0.1,0.2,0.1,0.3v17.6c0,0.1,0,0.2-0.1,0.3
		c-0.1,0.1-0.2,0.1-0.3,0.1h-0.5c-0.1,0-0.2,0-0.3-0.1c-0.1-0.1-0.1-0.2-0.1-0.3v-9.4h-3.2c-0.1,0-0.2,0-0.3-0.1
		c-0.1-0.1-0.1-0.2-0.1-0.3v-0.3c0-0.1,0-0.2,0.1-0.3c0.1-0.1,0.2-0.1,0.3-0.1H229.5z"/>
	<path class="st2" d="M233.4,193.9c-0.1,0-0.2,0-0.3-0.1s-0.1-0.2-0.1-0.3v-0.4c0-0.1,0-0.2,0.1-0.3s0.2-0.1,0.3-0.1h7.8
		c0.1,0,0.2,0,0.3,0.1s0.1,0.2,0.1,0.3v0.4c0,0.1,0,0.2-0.1,0.3s-0.2,0.1-0.3,0.1h-1v7.2c0.2,0,0.4-0.1,0.6-0.1
		c0.2,0,0.4-0.1,0.5-0.1c0.1,0,0.2,0,0.3,0.1c0.1,0.1,0.1,0.2,0.1,0.3v0.3c0,0.1,0,0.2-0.1,0.2s-0.1,0.1-0.2,0.1
		c-0.4,0.1-0.8,0.1-1.2,0.2c-0.4,0.1-0.9,0.1-1.3,0.1s-0.9,0.1-1.3,0.1c-0.4,0-0.9,0-1.2,0h-2.9c-0.1,0-0.2,0-0.3-0.1
		s-0.1-0.2-0.1-0.3v-0.4c0-0.1,0-0.2,0.1-0.3s0.2-0.1,0.3-0.1h1v-7.4H233.4z M238.8,201.2v-7.3h-3v7.4c0.2,0,0.4,0,0.7,0
		s0.6,0,0.9,0s0.6,0,0.9,0C238.4,201.3,238.7,201.3,238.8,201.2L238.8,201.2z M245.6,209.7c-0.3,0-0.4-0.1-0.4-0.4V198h-2.6
		c-0.1,0-0.2,0-0.3-0.1s-0.1-0.2-0.1-0.3v-0.4c0-0.1,0-0.2,0.1-0.3s0.2-0.1,0.3-0.1h2.6l0-5.2c0-0.3,0.1-0.4,0.4-0.4h0.6
		c0.1,0,0.2,0,0.3,0.1s0.1,0.2,0.1,0.3v17.6c0,0.1,0,0.2-0.1,0.3s-0.2,0.1-0.3,0.1H245.6z"/>
	<path class="st2" d="M254,193.7v1.8c0,0.6,0.1,1.2,0.3,1.8c0.2,0.6,0.5,1.2,0.8,1.8c0.3,0.6,0.8,1.1,1.2,1.6c0.5,0.5,1,0.9,1.5,1.2
		c0.1,0.1,0.2,0.1,0.2,0.2c0,0.1,0,0.2,0,0.3l-0.1,0.4c-0.1,0.3-0.3,0.3-0.5,0.2c-0.9-0.5-1.7-1.2-2.4-2s-1.3-1.7-1.7-2.7
		c-0.2,0.5-0.4,1-0.7,1.4c-0.3,0.5-0.6,0.9-1,1.3c-0.4,0.4-0.7,0.8-1.1,1.1s-0.8,0.6-1.3,0.9c-0.1,0.1-0.2,0.1-0.3,0
		c-0.1,0-0.2-0.1-0.2-0.2l-0.1-0.4c0-0.1,0-0.2,0-0.3c0-0.1,0.1-0.2,0.2-0.2c0.5-0.3,1.1-0.7,1.5-1.2s0.9-1,1.2-1.6
		c0.3-0.6,0.6-1.2,0.8-1.8c0.2-0.6,0.3-1.2,0.3-1.8v-1.8h-3.4c-0.1,0-0.2,0-0.3-0.1s-0.1-0.2-0.1-0.3V193c0-0.1,0-0.2,0.1-0.3
		c0.1-0.1,0.2-0.1,0.3-0.1h8c0.1,0,0.2,0,0.3,0.1c0.1,0.1,0.1,0.2,0.1,0.3v0.3c0,0.1,0,0.2-0.1,0.3c-0.1,0.1-0.2,0.1-0.3,0.1H254z
		 M261.5,191.6c0-0.1,0-0.2,0.1-0.3s0.2-0.1,0.3-0.1h0.5c0.1,0,0.2,0,0.3,0.1s0.1,0.2,0.1,0.3v17.6c0,0.1,0,0.2-0.1,0.3
		s-0.2,0.1-0.3,0.1h-0.5c-0.1,0-0.2,0-0.3-0.1s-0.1-0.2-0.1-0.3V191.6z"/>
	<path class="st2" d="M264.3,201.4v-0.3c0-0.1,0-0.2,0.1-0.3c0.1-0.1,0.2-0.1,0.3-0.1h14.6c0.1,0,0.2,0,0.3,0.1
		c0.1,0.1,0.1,0.2,0.1,0.3v0.3c0,0.1,0,0.2-0.1,0.3c-0.1,0.1-0.2,0.1-0.3,0.1h-14.6c-0.1,0-0.2,0-0.3-0.1
		C264.4,201.6,264.3,201.5,264.3,201.4z M276.8,209.9h-8.1c-0.4,0-0.8-0.1-1.1-0.4c-0.3-0.3-0.5-0.7-0.5-1.1v-4.1
		c0-0.1,0-0.2,0.1-0.3c0.1-0.1,0.2-0.1,0.3-0.1h0.5c0.1,0,0.2,0,0.3,0.1c0.1,0.1,0.1,0.2,0.1,0.3v4.1c0,0.1,0,0.2,0.1,0.3
		s0.2,0.1,0.3,0.1h8.1c0.1,0,0.2,0,0.3,0.1s0.1,0.2,0.1,0.3v0.3c0,0.1,0,0.2-0.1,0.3S276.9,209.9,276.8,209.9z M276.7,198.3h-7.9
		c-0.5,0-0.8-0.1-1.1-0.4s-0.5-0.7-0.5-1.1v-4.9c0-0.1,0-0.2,0.1-0.3s0.2-0.1,0.3-0.1h0.5c0.1,0,0.2,0,0.3,0.1s0.1,0.2,0.1,0.3v4.9
		c0,0.1,0,0.2,0.1,0.3c0.1,0.1,0.2,0.1,0.3,0.1h7.9c0.1,0,0.2,0,0.3,0.1c0.1,0.1,0.1,0.2,0.1,0.3v0.3c0,0.1,0,0.2-0.1,0.3
		C276.9,198.3,276.8,198.3,276.7,198.3z"/>
	<path class="st2" d="M287.1,194.5c0.2-0.6,0.6-1.1,1-1.5s0.9-0.8,1.5-1c0.6-0.2,1.2-0.4,1.9-0.4c0.7,0,1.3,0.1,1.9,0.4
		c0.6,0.2,1.1,0.6,1.5,1c0.4,0.4,0.8,0.9,1,1.5s0.4,1.2,0.4,1.9s-0.1,1.3-0.4,1.9s-0.6,1.1-1,1.5c-0.4,0.4-0.9,0.8-1.5,1
		c-0.6,0.2-1.2,0.4-1.9,0.4c-0.7,0-1.3-0.1-1.9-0.4c-0.6-0.2-1.1-0.6-1.5-1c-0.4-0.4-0.8-0.9-1-1.5c-0.2-0.6-0.4-1.2-0.4-1.9
		S286.8,195.1,287.1,194.5z M288.2,197.9c0.2,0.4,0.4,0.8,0.8,1.2c0.3,0.3,0.7,0.6,1.1,0.8c0.4,0.2,0.9,0.3,1.4,0.3
		c0.5,0,1-0.1,1.4-0.3c0.4-0.2,0.8-0.5,1.1-0.8c0.3-0.3,0.6-0.7,0.8-1.2c0.2-0.4,0.3-0.9,0.3-1.5c0-0.5-0.1-1-0.3-1.5
		c-0.2-0.4-0.4-0.8-0.8-1.2c-0.3-0.3-0.7-0.6-1.1-0.8c-0.4-0.2-0.9-0.3-1.4-0.3c-0.5,0-1,0.1-1.4,0.3c-0.4,0.2-0.8,0.5-1.1,0.8
		c-0.3,0.3-0.6,0.7-0.8,1.2c-0.2,0.4-0.3,0.9-0.3,1.5C287.9,196.9,288,197.4,288.2,197.9z M291.7,209.9c-0.5,0-0.8-0.1-1.1-0.4
		c-0.3-0.3-0.5-0.7-0.5-1.1v-4.8c0-0.1,0-0.2,0.1-0.3c0.1-0.1,0.2-0.1,0.3-0.1h0.5c0.1,0,0.2,0,0.3,0.1c0.1,0.1,0.1,0.2,0.1,0.3v4.8
		c0,0.1,0,0.2,0.1,0.3c0.1,0.1,0.2,0.1,0.3,0.1h8.7c0.1,0,0.2,0,0.3,0.1c0.1,0.1,0.1,0.2,0.1,0.3v0.3c0,0.1,0,0.2-0.1,0.3
		c-0.1,0.1-0.2,0.1-0.3,0.1H291.7z M299.5,191.6c0-0.1,0-0.2,0.1-0.3c0.1-0.1,0.2-0.1,0.3-0.1h0.5c0.1,0,0.2,0,0.3,0.1
		c0.1,0.1,0.1,0.2,0.1,0.3v11.2c0,0.1,0,0.2-0.1,0.3c-0.1,0.1-0.2,0.1-0.3,0.1h-0.5c-0.1,0-0.2,0-0.3-0.1c-0.1-0.1-0.1-0.2-0.1-0.3
		V191.6z"/>
	<path class="st2" d="M308,193.9v1.2c0,0.5,0.1,1,0.3,1.5s0.5,1,0.8,1.5s0.8,1,1.2,1.4c0.5,0.4,1,0.8,1.5,1.1
		c0.1,0.1,0.2,0.1,0.2,0.2s0,0.2,0,0.3l-0.1,0.4c-0.1,0.3-0.3,0.3-0.5,0.2c-0.9-0.5-1.7-1.1-2.4-1.9c-0.7-0.8-1.3-1.6-1.7-2.4
		c-0.4,0.9-1,1.7-1.7,2.4c-0.7,0.8-1.5,1.4-2.4,1.9c-0.1,0.1-0.2,0.1-0.3,0c-0.1,0-0.2-0.1-0.2-0.2l-0.1-0.4c0-0.1,0-0.2,0-0.3
		s0.1-0.2,0.2-0.2c0.5-0.3,1.1-0.7,1.5-1.1c0.5-0.4,0.9-0.9,1.2-1.4s0.6-1,0.8-1.5c0.2-0.5,0.3-1,0.3-1.5v-1.2h-3.4
		c-0.1,0-0.2,0-0.3-0.1s-0.1-0.2-0.1-0.3v-0.3c0-0.1,0-0.2,0.1-0.3s0.2-0.1,0.3-0.1h3.4v-1.3c0-0.1,0-0.2,0.1-0.3
		c0.1-0.1,0.2-0.1,0.3-0.1h0.5c0.1,0,0.2,0,0.3,0.1c0.1,0.1,0.1,0.2,0.1,0.3v1.3h3.4c0.1,0,0.2,0,0.3,0.1c0.1,0.1,0.1,0.2,0.1,0.3
		v0.3c0,0.1,0,0.2-0.1,0.3c-0.1,0.1-0.2,0.1-0.3,0.1H308z M307.7,209.9c-0.5,0-0.8-0.1-1.1-0.4s-0.5-0.7-0.5-1.1V204
		c0-0.1,0-0.2,0.1-0.3c0.1-0.1,0.2-0.1,0.3-0.1h0.5c0.1,0,0.2,0,0.3,0.1c0.1,0.1,0.1,0.2,0.1,0.3v4.4c0,0.1,0,0.2,0.1,0.3
		s0.2,0.1,0.3,0.1h8.7c0.1,0,0.2,0,0.3,0.1s0.1,0.2,0.1,0.3v0.3c0,0.1,0,0.2-0.1,0.3s-0.2,0.1-0.3,0.1H307.7z M311.4,197.1
		c0-0.1,0-0.2,0.1-0.3c0.1-0.1,0.2-0.1,0.3-0.1h3.7v-5c0-0.1,0-0.2,0.1-0.3s0.2-0.1,0.3-0.1h0.5c0.1,0,0.2,0,0.3,0.1
		s0.1,0.2,0.1,0.3v11.6c0,0.1,0,0.2-0.1,0.3s-0.2,0.1-0.3,0.1h-0.5c-0.1,0-0.2,0-0.3-0.1s-0.1-0.2-0.1-0.3v-5.4h-3.7
		c-0.1,0-0.2,0-0.3-0.1c-0.1-0.1-0.1-0.2-0.1-0.3V197.1z"/>
	<path class="st2" d="M331.2,198.7c-0.3,0.2-0.7,0.4-1.1,0.5c-0.4,0.2-0.9,0.3-1.3,0.4c-0.5,0.1-0.9,0.2-1.4,0.3
		c-0.4,0.1-0.9,0.1-1.2,0.1h-7.4c-0.1,0-0.2,0-0.3-0.1s-0.1-0.2-0.1-0.3v-0.3c0-0.1,0-0.2,0.1-0.3s0.2-0.1,0.3-0.1h3.5v-3.1
		c0-0.1,0-0.2,0.1-0.3s0.2-0.1,0.3-0.1h0.4c0.1,0,0.2,0,0.3,0.1s0.1,0.2,0.1,0.3v3.1h2.7c0.4,0,0.8,0,1.3-0.1s0.9-0.2,1.4-0.3
		s0.9-0.3,1.3-0.4c0.4-0.2,0.8-0.3,1.1-0.5v-5.9c0-0.1,0-0.2,0.1-0.3s0.2-0.1,0.3-0.1h0.5c0.1,0,0.2,0,0.3,0.1s0.1,0.2,0.1,0.3v3.2
		h1.5c0.1,0,0.2,0,0.3,0.1s0.1,0.2,0.1,0.3v0.3c0,0.1,0,0.2-0.1,0.3s-0.2,0.1-0.3,0.1h-1.5v4.2c0,0.1,0,0.2-0.1,0.3
		s-0.2,0.1-0.3,0.1h-0.5c-0.1,0-0.2,0-0.3-0.1s-0.1-0.2-0.1-0.3V198.7z M326.4,197.3c-0.2,0-0.3-0.1-0.3-0.4c0.1-0.3,0.1-0.7,0.2-1
		c0.1-0.4,0.1-0.7,0.2-1.1s0.1-0.7,0.1-1.1c0-0.3,0-0.7,0-0.9h-7.1c-0.1,0-0.2,0-0.3-0.1c-0.1-0.1-0.1-0.2-0.1-0.3v-0.3
		c0-0.1,0-0.2,0.1-0.3c0.1-0.1,0.2-0.1,0.3-0.1h8c0.1,0,0.2,0,0.3,0.1s0.1,0.2,0.1,0.3v0.7c0,0.3,0,0.6,0,0.9c0,0.3-0.1,0.7-0.1,1.1
		c0,0.4-0.1,0.7-0.1,1.1c-0.1,0.4-0.1,0.7-0.2,1c0,0.1-0.1,0.2-0.2,0.3c-0.1,0.1-0.2,0.1-0.3,0.1H326.4z M323.6,204.2
		c0.2-0.5,0.5-1,0.9-1.4c0.4-0.4,0.9-0.7,1.4-0.9c0.5-0.2,1.1-0.3,1.7-0.3s1.2,0.1,1.7,0.3c0.5,0.2,1,0.5,1.4,0.9
		c0.4,0.4,0.7,0.8,0.9,1.4c0.2,0.5,0.3,1.1,0.3,1.7c0,0.6-0.1,1.2-0.3,1.7c-0.2,0.5-0.5,1-0.9,1.4c-0.4,0.4-0.9,0.7-1.4,0.9
		s-1.1,0.3-1.7,0.3s-1.2-0.1-1.7-0.3c-0.5-0.2-1-0.5-1.4-0.9c-0.4-0.4-0.7-0.8-0.9-1.4c-0.2-0.5-0.3-1.1-0.3-1.7
		C323.3,205.3,323.4,204.8,323.6,204.2z M324.7,207.2c0.2,0.4,0.4,0.7,0.7,1c0.3,0.3,0.6,0.5,1,0.7s0.8,0.2,1.2,0.2
		c0.4,0,0.9-0.1,1.2-0.2c0.4-0.2,0.7-0.4,1-0.7c0.3-0.3,0.5-0.6,0.7-1c0.2-0.4,0.2-0.8,0.2-1.2c0-0.4-0.1-0.9-0.2-1.2
		s-0.4-0.7-0.7-1c-0.3-0.3-0.6-0.5-1-0.7c-0.4-0.2-0.8-0.2-1.2-0.2c-0.4,0-0.9,0.1-1.2,0.2c-0.4,0.2-0.7,0.4-1,0.7
		c-0.3,0.3-0.5,0.6-0.7,1s-0.2,0.8-0.2,1.2C324.5,206.4,324.6,206.8,324.7,207.2z"/>
	<path class="st2" d="M347.5,193.4v-1.8c0-0.1,0-0.2,0.1-0.3s0.2-0.1,0.3-0.1h0.5c0.1,0,0.2,0,0.3,0.1s0.1,0.2,0.1,0.3v9.2
		c0,0.1,0,0.2-0.1,0.3s-0.2,0.1-0.3,0.1h-0.5c-0.1,0-0.2,0-0.3-0.1s-0.1-0.2-0.1-0.3v-2.4h-3.9v0.7c0,0.4-0.2,0.8-0.5,1.1
		c-0.3,0.3-0.7,0.4-1.1,0.4h-5.2c-0.5,0-0.8-0.1-1.1-0.4c-0.3-0.3-0.5-0.7-0.5-1.1v-6.9c0-0.1,0-0.2,0.1-0.3s0.2-0.1,0.3-0.1h7.6
		c0.1,0,0.2,0,0.3,0.1s0.1,0.2,0.1,0.3v1.2H347.5z M336.5,192.9v6.2c0,0.1,0,0.2,0.1,0.3c0.1,0.1,0.2,0.1,0.3,0.1h5.2
		c0.1,0,0.2,0,0.3-0.1s0.1-0.2,0.1-0.3v-6.2H336.5z M339.6,204.2c0.2-0.5,0.5-1,0.9-1.4c0.4-0.4,0.9-0.7,1.4-0.9
		c0.5-0.2,1.1-0.3,1.7-0.3s1.2,0.1,1.7,0.3c0.5,0.2,1,0.5,1.4,0.9c0.4,0.4,0.7,0.8,0.9,1.4c0.2,0.5,0.3,1.1,0.3,1.7
		c0,0.6-0.1,1.2-0.3,1.7c-0.2,0.5-0.5,1-0.9,1.4s-0.9,0.7-1.4,0.9c-0.5,0.2-1.1,0.3-1.7,0.3s-1.2-0.1-1.7-0.3
		c-0.5-0.2-1-0.5-1.4-0.9s-0.7-0.8-0.9-1.4c-0.2-0.5-0.3-1.1-0.3-1.7C339.2,205.3,339.3,204.8,339.6,204.2z M340.7,207.2
		c0.2,0.4,0.4,0.7,0.7,1c0.3,0.3,0.6,0.5,1,0.7s0.8,0.2,1.2,0.2c0.4,0,0.9-0.1,1.2-0.2s0.7-0.4,1-0.7c0.3-0.3,0.5-0.6,0.7-1
		c0.2-0.4,0.2-0.8,0.2-1.2c0-0.4-0.1-0.9-0.2-1.2c-0.2-0.4-0.4-0.7-0.7-1c-0.3-0.3-0.6-0.5-1-0.7c-0.4-0.2-0.8-0.2-1.2-0.2
		c-0.4,0-0.8,0.1-1.2,0.2c-0.4,0.2-0.7,0.4-1,0.7c-0.3,0.3-0.5,0.6-0.7,1s-0.2,0.8-0.2,1.2C340.5,206.4,340.5,206.8,340.7,207.2z
		 M343.6,194.5v2.8h3.9v-2.8H343.6z"/>
	<path class="st2" d="M361,199.6c0.1,0,0.2,0,0.3,0.1c0.1,0.1,0.1,0.2,0.1,0.3v0.3c0,0.1,0,0.2-0.1,0.3c-0.1,0.1-0.2,0.1-0.3,0.1
		h-4.7v2.5c0,0.1,0,0.2-0.1,0.3s-0.2,0.1-0.3,0.1h-0.5c-0.1,0-0.2,0-0.3-0.1s-0.1-0.2-0.1-0.3v-2.5h-4.3c-0.1,0-0.2,0-0.3-0.1
		s-0.1-0.2-0.1-0.3V200c0-0.1,0-0.2,0.1-0.3s0.2-0.1,0.3-0.1H361z M351.6,193.2c0.2-0.4,0.5-0.8,0.9-1.1c0.4-0.3,0.9-0.6,1.4-0.8
		s1.1-0.3,1.7-0.3s1.2,0.1,1.7,0.3c0.5,0.2,1,0.4,1.4,0.8c0.4,0.3,0.7,0.7,0.9,1.1c0.2,0.4,0.3,0.9,0.3,1.4s-0.1,1-0.3,1.4
		c-0.2,0.4-0.5,0.8-0.9,1.1c-0.4,0.3-0.9,0.6-1.4,0.8c-0.5,0.2-1.1,0.3-1.7,0.3s-1.2-0.1-1.7-0.3c-0.5-0.2-1-0.4-1.4-0.8
		c-0.4-0.3-0.7-0.7-0.9-1.1c-0.2-0.4-0.3-0.9-0.3-1.4S351.4,193.6,351.6,193.2z M352.7,195.6c0.2,0.3,0.4,0.6,0.7,0.8
		c0.3,0.2,0.6,0.4,1,0.5c0.4,0.1,0.8,0.2,1.2,0.2c0.4,0,0.9-0.1,1.2-0.2c0.4-0.1,0.7-0.3,1-0.5c0.3-0.2,0.5-0.5,0.7-0.8
		s0.2-0.6,0.2-1s-0.1-0.7-0.2-1c-0.2-0.3-0.4-0.6-0.7-0.8c-0.3-0.2-0.6-0.4-1-0.5s-0.8-0.2-1.2-0.2c-0.4,0-0.9,0.1-1.2,0.2
		c-0.4,0.1-0.7,0.3-1,0.5c-0.3,0.2-0.5,0.5-0.7,0.8c-0.2,0.3-0.2,0.6-0.2,1S352.6,195.3,352.7,195.6z M355.7,209.9
		c-0.5,0-0.8-0.1-1.1-0.4s-0.5-0.7-0.5-1.1v-3.3c0-0.1,0-0.2,0.1-0.3c0.1-0.1,0.2-0.1,0.3-0.1h0.5c0.1,0,0.2,0,0.3,0.1
		c0.1,0.1,0.1,0.2,0.1,0.3v3.3c0,0.1,0,0.2,0.1,0.3s0.2,0.1,0.3,0.1h8.7c0.1,0,0.2,0,0.3,0.1c0.1,0.1,0.1,0.2,0.1,0.3v0.3
		c0,0.1,0,0.2-0.1,0.3c-0.1,0.1-0.2,0.1-0.3,0.1H355.7z M363.5,203.8h-4.1c-0.1,0-0.2,0-0.3-0.1s-0.1-0.2-0.1-0.3v-0.3
		c0-0.1,0-0.2,0.1-0.3s0.2-0.1,0.3-0.1h4.1v-11.1c0-0.1,0-0.2,0.1-0.3c0.1-0.1,0.2-0.1,0.3-0.1h0.5c0.1,0,0.2,0,0.3,0.1
		c0.1,0.1,0.1,0.2,0.1,0.3V205c0,0.1,0,0.2-0.1,0.3c-0.1,0.1-0.2,0.1-0.3,0.1h-0.5c-0.1,0-0.2,0-0.3-0.1c-0.1-0.1-0.1-0.2-0.1-0.3
		V203.8z"/>
	<path class="st2" d="M367,195.8c0.2-0.6,0.5-1.1,0.8-1.6s0.7-0.8,1.2-1.1c0.5-0.3,1-0.4,1.5-0.4c0.5,0,1,0.1,1.4,0.3
		c0.4,0.2,0.8,0.5,1.2,0.9c0.3,0.4,0.6,0.9,0.8,1.4s0.3,1.1,0.4,1.8h1.8v-5.3c0-0.1,0-0.2,0.1-0.3c0.1-0.1,0.2-0.1,0.3-0.1h0.5
		c0.1,0,0.2,0,0.3,0.1c0.1,0.1,0.1,0.2,0.1,0.3v16.6c0,0.1,0,0.2-0.1,0.3c-0.1,0.1-0.2,0.1-0.3,0.1h-0.5c-0.1,0-0.2,0-0.3-0.1
		c-0.1-0.1-0.1-0.2-0.1-0.3v-10.1h-1.8c-0.1,0.6-0.2,1.2-0.4,1.8s-0.5,1-0.8,1.4c-0.3,0.4-0.7,0.7-1.2,0.9c-0.4,0.2-0.9,0.3-1.4,0.3
		c-0.5,0-1-0.1-1.5-0.4c-0.5-0.3-0.9-0.6-1.2-1.1c-0.3-0.4-0.6-1-0.8-1.6s-0.3-1.3-0.3-2C366.7,197,366.8,196.4,367,195.8z
		 M368.1,199.3c0.1,0.5,0.3,0.9,0.5,1.2s0.5,0.6,0.8,0.8c0.3,0.2,0.7,0.3,1,0.3s0.7-0.1,1-0.3s0.6-0.5,0.8-0.8s0.4-0.8,0.5-1.2
		c0.1-0.5,0.2-1,0.2-1.5s-0.1-1.1-0.2-1.5c-0.1-0.5-0.3-0.9-0.5-1.2s-0.5-0.6-0.8-0.8s-0.6-0.3-1-0.3s-0.7,0.1-1,0.3
		c-0.3,0.2-0.6,0.5-0.8,0.8s-0.4,0.8-0.5,1.2c-0.1,0.5-0.2,1-0.2,1.5S368,198.8,368.1,199.3z M379.5,191.6c0-0.1,0-0.2,0.1-0.3
		c0.1-0.1,0.2-0.1,0.3-0.1h0.5c0.1,0,0.2,0,0.3,0.1c0.1,0.1,0.1,0.2,0.1,0.3v17.6c0,0.1,0,0.2-0.1,0.3c-0.1,0.1-0.2,0.1-0.3,0.1
		h-0.5c-0.1,0-0.2,0-0.3-0.1c-0.1-0.1-0.1-0.2-0.1-0.3V191.6z"/>
	<path class="st2" d="M389.1,201c-0.7-0.8-1.3-1.7-1.7-2.7c-0.2,0.5-0.4,1-0.7,1.4c-0.3,0.5-0.6,0.9-1,1.3c-0.4,0.4-0.7,0.8-1.1,1.1
		s-0.8,0.6-1.3,0.9c-0.1,0.1-0.2,0.1-0.3,0c-0.1,0-0.2-0.1-0.2-0.2l-0.1-0.4c0-0.1,0-0.2,0-0.3c0-0.1,0.1-0.2,0.2-0.2
		c0.5-0.3,1.1-0.7,1.5-1.2c0.5-0.5,0.9-1,1.2-1.6c0.3-0.6,0.6-1.2,0.8-1.8c0.2-0.6,0.3-1.2,0.3-1.8v-2.6c0-0.1,0-0.2,0.1-0.3
		s0.2-0.1,0.3-0.1h0.5c0.1,0,0.2,0,0.3,0.1s0.1,0.2,0.1,0.3v2.6c0,0.6,0.1,1.2,0.3,1.8c0.2,0.6,0.5,1.2,0.8,1.8
		c0.3,0.6,0.8,1.1,1.2,1.6c0.5,0.5,1,0.9,1.6,1.2c0.1,0.1,0.2,0.1,0.2,0.2c0,0.1,0,0.2,0,0.3l-0.1,0.4c-0.1,0.3-0.3,0.3-0.5,0.2
		C390.6,202.5,389.8,201.9,389.1,201z M391.2,196.9c0-0.1,0-0.2,0.1-0.3s0.2-0.1,0.3-0.1h3.9v-4.8c0-0.1,0-0.2,0.1-0.3
		s0.2-0.1,0.3-0.1h0.5c0.1,0,0.2,0,0.3,0.1s0.1,0.2,0.1,0.3v17.6c0,0.1,0,0.2-0.1,0.3s-0.2,0.1-0.3,0.1h-0.5c-0.1,0-0.2,0-0.3-0.1
		s-0.1-0.2-0.1-0.3v-11.6h-3.9c-0.1,0-0.2,0-0.3-0.1s-0.1-0.2-0.1-0.3V196.9z"/>
</g>
<g class="st1">
	<path class="st2" d="M7.2,222.1c-0.1,0-0.2,0-0.3-0.1s-0.1-0.2-0.1-0.3v-0.4c0-0.1,0-0.2,0.1-0.3C7,221,7.1,221,7.2,221h2.6v-1.4
		c0-0.1,0-0.2,0.1-0.3c0.1-0.1,0.2-0.1,0.3-0.1h0.6c0.1,0,0.2,0,0.3,0.1c0.1,0.1,0.1,0.2,0.1,0.3v1.4h2.6c0.1,0,0.2,0,0.3,0.1
		c0.1,0.1,0.1,0.2,0.1,0.3v0.4c0,0.1,0,0.2-0.1,0.3s-0.2,0.1-0.3,0.1h-1.2c0.3,0.5,0.6,1.1,0.8,1.6c0.2,0.5,0.3,1,0.3,1.5
		c0,0.5-0.1,1-0.2,1.5c-0.2,0.5-0.4,0.9-0.7,1.2c-0.3,0.3-0.6,0.6-1,0.8c-0.4,0.2-0.8,0.3-1.3,0.3c-0.5,0-0.9-0.1-1.3-0.3
		c-0.4-0.2-0.8-0.5-1.1-0.8c-0.3-0.3-0.5-0.8-0.7-1.2c-0.2-0.5-0.2-1-0.2-1.5c0-0.5,0.1-0.9,0.3-1.5c0.2-0.5,0.5-1.1,0.9-1.6H7.2z
		 M8.5,226.2c0.1,0.3,0.3,0.6,0.5,0.9c0.2,0.3,0.4,0.4,0.7,0.6c0.3,0.1,0.5,0.2,0.8,0.2c0.3,0,0.6-0.1,0.8-0.2
		c0.3-0.1,0.5-0.3,0.7-0.6c0.2-0.3,0.3-0.5,0.4-0.9c0.1-0.3,0.2-0.7,0.2-1.1s-0.1-0.8-0.2-1.1c-0.1-0.3-0.3-0.6-0.4-0.9
		c-0.2-0.3-0.4-0.5-0.7-0.6s-0.5-0.2-0.8-0.2c-0.3,0-0.6,0.1-0.8,0.2c-0.3,0.1-0.5,0.3-0.7,0.6c-0.2,0.3-0.3,0.5-0.5,0.9
		c-0.1,0.3-0.2,0.7-0.2,1.1S8.4,225.9,8.5,226.2z M11.9,232.9c0.2-0.5,0.5-0.9,0.9-1.2s0.8-0.6,1.3-0.8c0.5-0.2,1-0.3,1.6-0.3
		c0.6,0,1.1,0.1,1.6,0.3s0.9,0.5,1.3,0.8s0.7,0.7,0.9,1.2c0.2,0.5,0.3,1,0.3,1.5c0,0.5-0.1,1-0.3,1.5s-0.5,0.9-0.9,1.2
		s-0.8,0.6-1.3,0.8s-1,0.3-1.6,0.3c-0.6,0-1.1-0.1-1.6-0.3c-0.5-0.2-0.9-0.5-1.3-0.8s-0.7-0.8-0.9-1.2c-0.2-0.5-0.3-1-0.3-1.5
		C11.6,233.9,11.7,233.4,11.9,232.9z M13.2,235.6c0.1,0.3,0.3,0.6,0.6,0.9c0.2,0.3,0.5,0.5,0.9,0.6c0.3,0.1,0.7,0.2,1.1,0.2
		c0.4,0,0.7-0.1,1.1-0.2c0.3-0.1,0.6-0.3,0.9-0.6s0.4-0.5,0.6-0.9s0.2-0.7,0.2-1.1s-0.1-0.8-0.2-1.1c-0.1-0.3-0.3-0.6-0.6-0.9
		c-0.2-0.3-0.5-0.5-0.9-0.6s-0.7-0.2-1.1-0.2c-0.4,0-0.7,0.1-1.1,0.2c-0.3,0.1-0.6,0.3-0.9,0.6c-0.2,0.3-0.4,0.5-0.6,0.9
		c-0.1,0.3-0.2,0.7-0.2,1.1S13,235.2,13.2,235.6z M19.8,229.4c-0.1,0-0.2,0-0.3-0.1s-0.1-0.2-0.1-0.3v-4h-2.3v3.4
		c0,0.1,0,0.2-0.1,0.3c-0.1,0.1-0.2,0.1-0.3,0.1h-0.4c-0.1,0-0.2,0-0.3-0.1s-0.1-0.2-0.1-0.3v-8.6c0-0.1,0-0.2,0.1-0.3
		s0.2-0.1,0.3-0.1h0.4c0.1,0,0.2,0,0.3,0.1c0.1,0.1,0.1,0.2,0.1,0.3v4h2.4l0-4.1c0-0.1,0-0.2,0.1-0.3s0.2-0.1,0.3-0.1h0.4
		c0.1,0,0.2,0,0.3,0.1s0.1,0.2,0.1,0.3v9.3c0,0.1,0,0.2-0.1,0.3s-0.2,0.1-0.3,0.1H19.8z"/>
	<path class="st2" d="M26.2,222h7.6v-2.1c0-0.1,0-0.2,0.1-0.3c0.1-0.1,0.2-0.1,0.3-0.1h0.5c0.1,0,0.2,0,0.3,0.1
		c0.1,0.1,0.1,0.2,0.1,0.3v5.2c0,0.4-0.2,0.8-0.5,1.1c-0.3,0.3-0.7,0.4-1.1,0.4h-2.8v2h6.7c0.1,0,0.2,0,0.3,0.1
		c0.1,0.1,0.1,0.2,0.1,0.3v0.3c0,0.1,0,0.2-0.1,0.3c-0.1,0.1-0.2,0.1-0.3,0.1H22.7c-0.1,0-0.2,0-0.3-0.1c-0.1-0.1-0.1-0.2-0.1-0.3
		v-0.3c0-0.1,0-0.2,0.1-0.3c0.1-0.1,0.2-0.1,0.3-0.1h6.7v-2h-2.8c-0.5,0-0.8-0.1-1.1-0.4c-0.3-0.3-0.5-0.7-0.5-1.1v-5.2
		c0-0.1,0-0.2,0.1-0.3s0.2-0.1,0.3-0.1h0.5c0.1,0,0.2,0,0.3,0.1s0.1,0.2,0.1,0.3V222z M33.9,231.7c0.1,0,0.1,0,0.1,0
		c0,0,0.1,0,0.1,0h0.5c0.1,0,0.2,0,0.3,0.1c0.1,0.1,0.1,0.2,0.1,0.3v5.6c0,0.1,0,0.2-0.1,0.3c-0.1,0.1-0.2,0.1-0.3,0.1h-0.5
		c-0.1,0-0.2,0-0.3-0.1c-0.1-0.1-0.1-0.2-0.1-0.3v-4.9h-8.5c-0.1,0-0.2,0-0.3-0.1c-0.1-0.1-0.1-0.2-0.1-0.3v-0.3
		c0-0.1,0-0.2,0.1-0.3c0.1-0.1,0.2-0.1,0.3-0.1H33.9z M26.2,223.1v2c0,0.1,0,0.2,0.1,0.3c0.1,0.1,0.2,0.1,0.3,0.1h6.9
		c0.1,0,0.2,0,0.3-0.1s0.1-0.2,0.1-0.3v-2H26.2z"/>
	<path class="st2" d="M38.3,228.7c0-0.1,0-0.2,0.1-0.3c0.1-0.1,0.2-0.1,0.3-0.1h14.6c0.1,0,0.2,0,0.3,0.1s0.1,0.2,0.1,0.3v0.3
		c0,0.1,0,0.2-0.1,0.3s-0.2,0.1-0.3,0.1H38.7c-0.1,0-0.2,0-0.3-0.1c-0.1-0.1-0.1-0.2-0.1-0.3V228.7z M42.5,238
		c-0.5,0-0.8-0.1-1.1-0.4c-0.3-0.3-0.5-0.7-0.5-1.1v-2.2c0-0.1,0-0.2,0.1-0.3c0.1-0.1,0.2-0.1,0.3-0.1h8.6v-1.9h-8.5
		c-0.1,0-0.2,0-0.3-0.1s-0.1-0.2-0.1-0.3v-0.3c0-0.1,0-0.2,0.1-0.3s0.2-0.1,0.3-0.1h9.3c0.1,0,0.2,0,0.3,0.1
		c0.1,0.1,0.1,0.2,0.1,0.3v3.4c0,0.1,0,0.2-0.1,0.3c-0.1,0.1-0.2,0.1-0.3,0.1h-8.6v1.5c0,0.1,0,0.2,0.1,0.3c0.1,0.1,0.2,0.1,0.3,0.1
		h8.3c0.1,0,0.2,0,0.3,0.1s0.1,0.2,0.1,0.3v0.3c0,0.1,0,0.2-0.1,0.3s-0.2,0.1-0.3,0.1H42.5z M42,221.7c0.2-0.5,0.5-0.9,0.9-1.3
		c0.4-0.4,0.9-0.6,1.4-0.9c0.5-0.2,1.1-0.3,1.7-0.3s1.2,0.1,1.7,0.3c0.5,0.2,1,0.5,1.4,0.9c0.4,0.4,0.7,0.8,0.9,1.3
		c0.2,0.5,0.3,1,0.3,1.6s-0.1,1.1-0.3,1.6c-0.2,0.5-0.5,0.9-0.9,1.3c-0.4,0.4-0.9,0.6-1.4,0.9c-0.5,0.2-1.1,0.3-1.7,0.3
		s-1.2-0.1-1.7-0.3c-0.5-0.2-1-0.5-1.4-0.9c-0.4-0.4-0.7-0.8-0.9-1.3c-0.2-0.5-0.3-1-0.3-1.6S41.8,222.1,42,221.7z M43.1,224.4
		c0.2,0.4,0.4,0.7,0.7,0.9c0.3,0.3,0.6,0.5,1,0.6s0.8,0.2,1.2,0.2s0.9-0.1,1.2-0.2s0.7-0.4,1-0.6c0.3-0.3,0.5-0.6,0.7-0.9
		c0.2-0.4,0.2-0.7,0.2-1.1s-0.1-0.8-0.2-1.1s-0.4-0.7-0.7-0.9c-0.3-0.3-0.6-0.5-1-0.6c-0.4-0.1-0.8-0.2-1.2-0.2s-0.9,0.1-1.2,0.2
		c-0.4,0.1-0.7,0.4-1,0.6c-0.3,0.3-0.5,0.6-0.7,0.9c-0.2,0.4-0.2,0.7-0.2,1.1S42.9,224,43.1,224.4z"/>
	<path class="st2" d="M68.1,222.1c0.4,0.4,0.8,0.8,1,1.4c0.3,0.5,0.4,1.1,0.4,1.7c0,0.6-0.1,1.1-0.3,1.6s-0.5,0.9-0.9,1.3
		c-0.4,0.4-0.8,0.7-1.3,0.9c-0.5,0.2-1,0.3-1.6,0.3s-1.1-0.1-1.6-0.3c-0.5-0.2-0.9-0.5-1.3-0.9c-0.4-0.4-0.7-0.8-0.9-1.3
		c-0.2-0.5-0.3-1-0.3-1.6c0-0.6,0.1-1.2,0.4-1.7s0.6-1,1.1-1.4h-1.6c-0.1,0-0.2,0-0.3-0.1s-0.1-0.2-0.1-0.3v-0.4
		c0-0.1,0-0.2,0.1-0.3c0.1-0.1,0.2-0.1,0.3-0.1h3.6v-1.4c0-0.1,0-0.2,0.1-0.3c0.1-0.1,0.2-0.1,0.3-0.1h0.6c0.1,0,0.2,0,0.3,0.1
		c0.1,0.1,0.1,0.2,0.1,0.3v1.4h3.6c0.1,0,0.2,0,0.3,0.1c0.1,0.1,0.1,0.2,0.1,0.3v0.4c0,0.1,0,0.2-0.1,0.3s-0.2,0.1-0.3,0.1H68.1z
		 M63,226.3c0.1,0.3,0.3,0.6,0.6,0.9c0.2,0.3,0.5,0.5,0.9,0.6c0.3,0.2,0.7,0.2,1.1,0.2c0.4,0,0.7-0.1,1.1-0.2s0.6-0.4,0.9-0.6
		c0.2-0.3,0.4-0.6,0.6-0.9c0.1-0.3,0.2-0.7,0.2-1.1s-0.1-0.8-0.2-1.1c-0.1-0.4-0.3-0.7-0.6-0.9c-0.2-0.3-0.5-0.5-0.9-0.6
		c-0.3-0.1-0.7-0.2-1.1-0.2c-0.4,0-0.7,0.1-1.1,0.2c-0.3,0.1-0.6,0.4-0.9,0.6s-0.4,0.6-0.6,0.9c-0.1,0.4-0.2,0.7-0.2,1.1
		S62.8,226,63,226.3z M64.4,232.3c0-0.3,0.1-0.4,0.4-0.4h8.9c0.1,0,0.2,0,0.3,0.1c0.1,0.1,0.1,0.2,0.1,0.3v4.2
		c0,0.5-0.2,0.8-0.5,1.1c-0.4,0.3-0.8,0.5-1.3,0.5h-6c-0.5,0-1-0.2-1.3-0.5s-0.5-0.7-0.5-1.1V232.3z M65.8,233v3
		c0,0.2,0.1,0.4,0.3,0.6c0.2,0.2,0.4,0.3,0.7,0.3h5.2c0.3,0,0.5-0.1,0.7-0.3c0.2-0.2,0.3-0.4,0.3-0.6v-3H65.8z M73.2,229.7
		c-0.3,0-0.4-0.1-0.4-0.4v-9.6c0-0.3,0.1-0.4,0.4-0.4h0.6c0.1,0,0.2,0,0.3,0.1s0.1,0.2,0.1,0.3v4.2h1.6c0.1,0,0.2,0,0.3,0.1
		s0.1,0.2,0.1,0.3v0.4c0,0.1,0,0.2-0.1,0.3s-0.2,0.1-0.3,0.1h-1.6l0,4.2c0,0.1,0,0.2-0.1,0.3c-0.1,0.1-0.2,0.1-0.3,0.1H73.2z"/>
	<path class="st2" d="M76.8,221.1c0-0.1,0-0.2,0.1-0.3c0.1-0.1,0.2-0.1,0.3-0.1H80c0.1,0,0.2,0,0.3,0.1s0.1,0.2,0.1,0.3v0.7
		c0,1-0.1,1.9-0.3,2.9c-0.2,0.9-0.4,1.8-0.7,2.6c-0.3,0.8-0.7,1.5-1.1,2.1s-0.9,1.1-1.3,1.4c-0.1,0.1-0.2,0.1-0.3,0
		s-0.2-0.1-0.2-0.2l-0.1-0.4c-0.1-0.2,0-0.4,0.2-0.6c0.4-0.3,0.7-0.7,1-1.2c0.3-0.5,0.6-1.1,0.8-1.8c0.2-0.7,0.4-1.5,0.5-2.3
		c0.1-0.8,0.2-1.7,0.2-2.5h-2c-0.1,0-0.2,0-0.3-0.1c-0.1-0.1-0.1-0.2-0.1-0.3V221.1z M80.8,221.1c0-0.1,0-0.2,0.1-0.3
		c0.1-0.1,0.2-0.1,0.3-0.1h2.7c0.1,0,0.2,0,0.3,0.1s0.1,0.2,0.1,0.3v0.7c0,1.4-0.1,2.7-0.4,3.9H86v-5.9c0-0.1,0-0.2,0.1-0.3
		s0.2-0.1,0.3-0.1h0.5c0.1,0,0.2,0,0.3,0.1s0.1,0.2,0.1,0.3v16.6c0,0.1,0,0.2-0.1,0.3c-0.1,0.1-0.2,0.1-0.3,0.1h-0.5
		c-0.1,0-0.2,0-0.3-0.1c-0.1-0.1-0.1-0.2-0.1-0.3v-9.5h-2.5c-0.3,1.1-0.7,2-1.1,2.8c-0.5,0.8-1,1.4-1.5,1.8c-0.1,0.1-0.2,0.1-0.3,0
		s-0.2-0.1-0.2-0.2l-0.1-0.4c-0.1-0.2,0-0.4,0.2-0.6c0.4-0.3,0.7-0.7,1-1.3c0.3-0.6,0.6-1.2,0.8-2c0.2-0.8,0.4-1.6,0.5-2.5
		c0.1-0.9,0.2-1.8,0.2-2.8h-1.8c-0.1,0-0.2,0-0.3-0.1c-0.1-0.1-0.1-0.2-0.1-0.3V221.1z M89.5,219.6c0-0.1,0-0.2,0.1-0.3
		s0.2-0.1,0.3-0.1h0.5c0.1,0,0.2,0,0.3,0.1s0.1,0.2,0.1,0.3v17.6c0,0.1,0,0.2-0.1,0.3s-0.2,0.1-0.3,0.1h-0.5c-0.1,0-0.2,0-0.3-0.1
		s-0.1-0.2-0.1-0.3V219.6z"/>
	<path class="st2" d="M107.6,227.5c0,0.4-0.2,0.8-0.5,1.1c-0.3,0.3-0.7,0.4-1.1,0.4h-5.2c-0.5,0-0.8-0.1-1.1-0.4
		c-0.3-0.3-0.5-0.7-0.5-1.1v-7.3c0-0.1,0-0.2,0.1-0.3c0.1-0.1,0.2-0.1,0.3-0.1h7.6c0.1,0,0.2,0,0.3,0.1c0.1,0.1,0.1,0.2,0.1,0.3
		V227.5z M100.5,220.9v6.6c0,0.1,0,0.2,0.1,0.3c0.1,0.1,0.2,0.1,0.3,0.1h5.2c0.1,0,0.2,0,0.3-0.1c0.1-0.1,0.1-0.2,0.1-0.3v-6.6
		H100.5z M103.7,237.9c-0.5,0-0.8-0.1-1.1-0.4c-0.3-0.3-0.5-0.7-0.5-1.1v-4.8c0-0.1,0-0.2,0.1-0.3s0.2-0.1,0.3-0.1h0.5
		c0.1,0,0.2,0,0.3,0.1s0.1,0.2,0.1,0.3v4.8c0,0.1,0,0.2,0.1,0.3c0.1,0.1,0.2,0.1,0.3,0.1h8.3c0.1,0,0.2,0,0.3,0.1s0.1,0.2,0.1,0.3
		v0.3c0,0.1,0,0.2-0.1,0.3s-0.2,0.1-0.3,0.1H103.7z M111.1,219.6c0-0.1,0-0.2,0.1-0.3s0.2-0.1,0.3-0.1h0.5c0.1,0,0.2,0,0.3,0.1
		s0.1,0.2,0.1,0.3v4.2h1.5c0.1,0,0.2,0,0.3,0.1s0.1,0.2,0.1,0.3v0.3c0,0.1,0,0.2-0.1,0.3s-0.2,0.1-0.3,0.1h-1.5v5.8
		c0,0.1,0,0.2-0.1,0.3s-0.2,0.1-0.3,0.1h-0.5c-0.1,0-0.2,0-0.3-0.1s-0.1-0.2-0.1-0.3V219.6z"/>
	<path class="st2" d="M114.3,228.2v-0.3c0-0.1,0-0.2,0.1-0.3c0.1-0.1,0.2-0.1,0.3-0.1h14.6c0.1,0,0.2,0,0.3,0.1s0.1,0.2,0.1,0.3v0.3
		c0,0.1,0,0.2-0.1,0.3s-0.2,0.1-0.3,0.1h-14.6c-0.1,0-0.2,0-0.3-0.1C114.4,228.4,114.3,228.3,114.3,228.2z M126.7,234.7h-8.6v1.8
		c0,0.1,0,0.2,0.1,0.3c0.1,0.1,0.2,0.1,0.3,0.1h8.3c0.1,0,0.2,0,0.3,0.1s0.1,0.2,0.1,0.3v0.3c0,0.1,0,0.2-0.1,0.3s-0.2,0.1-0.3,0.1
		h-8.3c-0.5,0-0.8-0.1-1.1-0.4c-0.3-0.3-0.5-0.7-0.5-1.1V234c0-0.1,0-0.2,0.1-0.3c0.1-0.1,0.2-0.1,0.3-0.1h8.6v-2.2h-8.5
		c-0.1,0-0.2,0-0.3-0.1s-0.1-0.2-0.1-0.3v-0.3c0-0.1,0-0.2,0.1-0.3s0.2-0.1,0.3-0.1h9.3c0.1,0,0.2,0,0.3,0.1
		c0.1,0.1,0.1,0.2,0.1,0.3v3.7c0,0.1,0,0.2-0.1,0.3C126.9,234.6,126.8,234.7,126.7,234.7z M126.7,225.8h-8c-0.4,0-0.8-0.1-1.1-0.4
		c-0.3-0.3-0.5-0.7-0.5-1.1V220c0-0.1,0-0.2,0.1-0.3c0.1-0.1,0.2-0.1,0.3-0.1h9.1c0.1,0,0.2,0,0.3,0.1c0.1,0.1,0.1,0.2,0.1,0.3v0.3
		c0,0.1,0,0.2-0.1,0.3c-0.1,0.1-0.2,0.1-0.3,0.1h-8.3v3.6c0,0.1,0,0.2,0.1,0.3c0.1,0.1,0.2,0.1,0.3,0.1h8c0.1,0,0.2,0,0.3,0.1
		c0.1,0.1,0.1,0.2,0.1,0.3v0.3c0,0.1,0,0.2-0.1,0.3C126.9,225.8,126.8,225.8,126.7,225.8z"/>
	<path class="st2" d="M131.1,223.8c0.2-0.6,0.6-1.1,1-1.6c0.4-0.4,0.9-0.8,1.5-1.1c0.6-0.3,1.2-0.4,1.9-0.4c0.6,0,1.2,0.1,1.8,0.3
		s1,0.5,1.4,0.9c0.4,0.4,0.8,0.9,1,1.4c0.3,0.5,0.4,1.1,0.5,1.8h3.4v-5.5c0-0.1,0-0.2,0.1-0.3s0.2-0.1,0.3-0.1h0.5
		c0.1,0,0.2,0,0.3,0.1s0.1,0.2,0.1,0.3v17.6c0,0.1,0,0.2-0.1,0.3s-0.2,0.1-0.3,0.1h-0.5c-0.1,0-0.2,0-0.3-0.1s-0.1-0.2-0.1-0.3
		v-10.9h-3.4c-0.1,0.6-0.2,1.2-0.5,1.8c-0.3,0.5-0.6,1-1,1.4c-0.4,0.4-0.9,0.7-1.4,0.9s-1.1,0.3-1.8,0.3c-0.7,0-1.3-0.1-1.9-0.4
		c-0.6-0.3-1.1-0.6-1.5-1.1c-0.4-0.4-0.8-1-1-1.6s-0.4-1.3-0.4-2C130.7,225,130.8,224.4,131.1,223.8z M132.2,227.3
		c0.2,0.5,0.4,0.9,0.8,1.2s0.7,0.6,1.1,0.8c0.4,0.2,0.9,0.3,1.4,0.3s1-0.1,1.4-0.3c0.4-0.2,0.8-0.5,1.1-0.8s0.6-0.8,0.8-1.2
		s0.3-1,0.3-1.5s-0.1-1.1-0.3-1.5c-0.2-0.5-0.4-0.9-0.8-1.2s-0.7-0.6-1.1-0.8c-0.4-0.2-0.9-0.3-1.4-0.3s-1,0.1-1.4,0.3
		c-0.4,0.2-0.8,0.5-1.1,0.8s-0.6,0.8-0.8,1.2c-0.2,0.5-0.3,1-0.3,1.5S132,226.8,132.2,227.3z"/>
	<path class="st2" d="M147.2,220.3c0-0.1,0-0.2,0.1-0.3s0.2-0.1,0.3-0.1h7.6c0.1,0,0.2,0,0.3,0.1c0.1,0.1,0.1,0.2,0.1,0.3v0.7
		c0,0.8-0.2,1.6-0.6,2.4s-0.9,1.5-1.6,2.2s-1.5,1.3-2.5,1.8c-1,0.5-2,0.9-3.1,1.1c-0.1,0-0.2,0-0.3-0.1c-0.1-0.1-0.2-0.1-0.2-0.2
		l-0.1-0.4c-0.1-0.2,0-0.4,0.3-0.5c1-0.2,1.9-0.5,2.8-1s1.6-0.9,2.2-1.5s1.1-1.2,1.5-1.9c0.4-0.7,0.5-1.4,0.5-2h-6.8
		c-0.1,0-0.2,0-0.3-0.1s-0.1-0.2-0.1-0.3V220.3z M151.3,232.5h7.8v-2.4c0-0.1,0-0.2,0.1-0.3s0.2-0.1,0.3-0.1h0.5
		c0.1,0,0.2,0,0.3,0.1s0.1,0.2,0.1,0.3v6.4c0,0.4-0.2,0.8-0.5,1.1c-0.3,0.3-0.7,0.4-1.1,0.4h-7.1c-0.5,0-0.8-0.1-1.1-0.4
		c-0.3-0.3-0.5-0.7-0.5-1.1v-6.4c0-0.1,0-0.2,0.1-0.3s0.2-0.1,0.3-0.1h0.5c0.1,0,0.2,0,0.3,0.1s0.1,0.2,0.1,0.3V232.5z M151.3,233.6
		v2.9c0,0.1,0,0.2,0.1,0.3c0.1,0.1,0.2,0.1,0.3,0.1h7.1c0.1,0,0.2,0,0.3-0.1c0.1-0.1,0.1-0.2,0.1-0.3v-2.9H151.3z M159.1,219.6
		c0-0.1,0-0.2,0.1-0.3s0.2-0.1,0.3-0.1h0.5c0.1,0,0.2,0,0.3,0.1s0.1,0.2,0.1,0.3v3.7h1.5c0.1,0,0.2,0,0.3,0.1s0.1,0.2,0.1,0.3v0.3
		c0,0.1,0,0.2-0.1,0.3s-0.2,0.1-0.3,0.1h-1.5v3.7c0,0.1,0,0.2-0.1,0.3s-0.2,0.1-0.3,0.1h-0.5c-0.1,0-0.2,0-0.3-0.1s-0.1-0.2-0.1-0.3
		V219.6z"/>
	<path class="st2" d="M175.5,229.6c-0.6,0.2-1.2,0.3-2.1,0.4c-0.8,0.1-1.7,0.2-2.6,0.3c-0.9,0.1-1.9,0.2-2.9,0.2c-1,0.1-2,0.1-3,0.1
		c-0.5,0-0.8-0.1-1.1-0.4c-0.3-0.3-0.5-0.7-0.5-1.1v-8.3c0-0.1,0-0.2,0.1-0.3c0.1-0.1,0.2-0.1,0.3-0.1h0.5c0.1,0,0.2,0,0.3,0.1
		c0.1,0.1,0.1,0.2,0.1,0.3v8.3c0,0.1,0,0.2,0.1,0.3s0.2,0.1,0.3,0.1c1,0,1.9,0,3-0.1c1-0.1,2-0.1,2.9-0.2c0.9-0.1,1.8-0.2,2.6-0.4
		c0.8-0.1,1.5-0.3,2.1-0.4v-8.9c0-0.1,0-0.2,0.1-0.3s0.2-0.1,0.3-0.1h0.5c0.1,0,0.2,0,0.3,0.1s0.1,0.2,0.1,0.3v17.6
		c0,0.1,0,0.2-0.1,0.3s-0.2,0.1-0.3,0.1h-0.5c-0.1,0-0.2,0-0.3-0.1s-0.1-0.2-0.1-0.3V229.6z"/>
	<path class="st2" d="M180.5,221.7v7.6c0,0.1,0,0.2,0.1,0.3s0.2,0.1,0.3,0.1c0.9,0,1.9,0,2.9-0.1c1,0,1.9-0.1,2.9-0.2
		c0.9-0.1,1.8-0.2,2.6-0.3c0.8-0.1,1.4-0.2,2-0.4v-9.1c0-0.1,0-0.2,0.1-0.3s0.2-0.1,0.3-0.1h0.5c0.1,0,0.2,0,0.3,0.1
		s0.1,0.2,0.1,0.3v5.8h1.5c0.1,0,0.2,0,0.3,0.1s0.1,0.2,0.1,0.3v0.3c0,0.1,0,0.2-0.1,0.3s-0.2,0.1-0.3,0.1h-1.5v10.6
		c0,0.1,0,0.2-0.1,0.3s-0.2,0.1-0.3,0.1h-0.5c-0.1,0-0.2,0-0.3-0.1s-0.1-0.2-0.1-0.3v-7.4c-0.5,0.1-1.2,0.3-2,0.4
		c-0.8,0.1-1.6,0.2-2.6,0.3c-0.9,0.1-1.9,0.2-2.9,0.2c-1,0-2,0.1-2.9,0.1c-0.5,0-0.8-0.1-1.1-0.4c-0.3-0.3-0.5-0.7-0.5-1.1V221
		c0-0.1,0-0.2,0.1-0.3c0.1-0.1,0.2-0.1,0.3-0.1h0.5h0.1h0.1h7c0.1,0,0.2,0,0.3,0.1c0.1,0.1,0.1,0.2,0.1,0.3v0.3c0,0.1,0,0.2-0.1,0.3
		c-0.1,0.1-0.2,0.1-0.3,0.1H180.5z"/>
	<path class="st2" d="M195.3,234c0-0.3,0.1-0.6,0.3-0.9c0.2-0.2,0.5-0.3,0.8-0.3s0.6,0.1,0.8,0.3c0.2,0.2,0.3,0.5,0.3,0.9
		c0,0.3-0.1,0.6-0.3,0.9c-0.2,0.2-0.5,0.4-0.8,0.4s-0.6-0.1-0.8-0.4C195.4,234.6,195.3,234.4,195.3,234z"/>
</g>
<path id="패스_491" class="st3" d="M32.1,102.8c0,6-4.5,10.9-11.5,10.9s-11.5-4.9-11.5-10.8s4.5-11,11.5-11S32.1,96.9,32.1,102.8z
	 M70,155.5c0-2.7-1.7-3.5-4.1-3.5H27.2v-20.1c0-1.8-1-3.5-3.1-3.3c0,0-2.5,0.3-4,0.3s-3.8-0.3-3.8-0.3c-2-0.2-3.6,0.8-3.6,3.4
	c0,2.5,1.8,3.2,3.6,3.2h2.3v17.4c0,5.6,3.1,6.8,7.9,6.8H66C68.4,159.4,70,158.7,70,155.5L70,155.5z M66.3,78.6c0.1-1.5-1-2.9-2.6-3
	c-0.1,0-0.3,0-0.4,0c0,0-3.1,0.4-5.1,0.4c-1.5,0-3.1-0.2-4.6-0.4c-2-0.2-3.6,0.8-3.6,3.4c0,2.4,1.8,3.2,3.6,3.2h4v50.5
	c0,3.1,2.1,4.2,4.3,4.2c2.2,0.2,4.1-1.4,4.3-3.6c0-0.2,0-0.5,0-0.7v-54H66.3z M16.5,85.2c-9,1.5-15.7,8.3-15.7,17.7
	c0,10.8,8.8,18,19.9,18c11,0,19.9-7.2,19.9-18c0-9.2-6.5-15.9-15.4-17.7v-4c0-1.9-1.6-3.4-4.4-3.4s-4.2,1.4-4.2,3.4v4H16.5z
	 M149.6,155.6c0-2.7-1.7-3.6-4.1-3.6H107v-19.7c0-1.8-1-3.5-3.1-3.3c0,0-2.5,0.3-4,0.3s-3.8-0.3-3.8-0.3c-2-0.2-3.6,0.8-3.6,3.4
	c0,2.5,1.8,3.2,3.6,3.2h2.3v17c0,5.6,3.1,6.8,7.9,6.8h39.4C148,159.4,149.6,158.7,149.6,155.6z M136.8,134.4c0,3.1,2.1,4.2,4.3,4.2
	c2.2,0.2,4.1-1.4,4.3-3.6c0-0.2,0-0.5,0-0.7V78.6c0.1-1.5-1-2.9-2.6-3c-0.1,0-0.3,0-0.4,0c0,0-3.1,0.4-5.1,0.4
	c-1.5,0-3.1-0.2-4.6-0.4c-2-0.2-3.6,0.8-3.6,3.4c0,2.4,1.8,3.2,3.6,3.2h4v20.1h-12.8c-1.8-0.2-3.4,1.1-3.6,2.9c0,0.3,0,0.5,0,0.8
	c0,2.4,1.2,3.6,3.6,3.6h12.8L136.8,134.4z M83.6,87.3c-2.7,0-4.2,1.1-4.2,3.6s1.9,3.6,4.2,3.6h13.1c0,8.4-7.5,22.5-17.1,27.2
	c-1.9,1-2.4,3.1-1,5.1c1.3,1.9,3.3,2.2,5.3,1.1c7.9-4.4,15.4-14.9,17.3-20.4c2.5,5.7,9.9,13.2,17,17.6c3.2,1.9,4.7,1.2,6-0.6
	c1.3-1.7,1-4.2-0.7-5.5c-0.2-0.1-0.3-0.2-0.5-0.3c-10.6-5.2-17.2-15.5-17.2-24h13.4c3.3-0.4,3.6-1.7,3.6-3.8c0-1.8-0.6-3.5-3.8-3.5
	h-13.5v-6.6c0-1.9-1.6-3.4-4.4-3.4s-4.2,1.4-4.2,3.4v6.6H83.6V87.3z M223.9,89c0-3.4-0.8-5.9-5.4-5.9h-31.4
	c-1.9-0.1-3.6,1.5-3.6,3.4c0,0.1,0,0.2,0,0.2c0,2,1.5,3.6,3.5,3.6h0.1h28.3v4.1c0,3.4,0.1,6.4-0.9,9.4c-1.1,3.2-0.3,4.6,2.2,5.8
	c2.6,1.2,4.6-0.9,5.2-2.4C224.1,101.5,223.8,97.2,223.9,89z M256.2,105.2c0.1-2-1.4-3.7-3.4-3.8c-0.2,0-0.4,0-0.5,0h-8.2V78.6
	c0.1-1.5-1-2.8-2.5-3c-0.2,0-0.4,0-0.5,0c-1.5,0.2-3.1,0.3-4.6,0.4c-2,0-5.1-0.4-5.1-0.4c-2-0.2-3.6,0.8-3.6,3.4
	c0,2.4,1.8,3.2,3.6,3.2h4v25.4c-7.5,6.6-23.6,8.2-30.4,8.4v-12.9c0.1-1.5-1-2.9-2.6-3c-0.1,0-0.3,0-0.4,0c0,0-2.5,0.3-3.8,0.3
	c-1.2,0-3.7-0.3-3.7-0.3c-2-0.2-3.3,0.8-3.3,3.4c0,2.4,1.4,3.2,3.3,3.2h1.9v9.1l-14.2-0.5c-3.1-0.1-4.3,1.1-4.5,3.6
	c-0.2,2.3,1.4,3.6,3.9,3.7l20.6,0.7c10.6,0.4,24.5-2.6,33.2-7.1v9.5c-0.2,2.1,1.4,4,3.5,4.2c0.2,0,0.5,0,0.7,0
	c2.2,0,4.4-1.2,4.4-4.3v-16.7h8.2C254.6,109,256.2,107.6,256.2,105.2z M241.2,144c0-9-7.5-17.4-20.1-17.4S201,135,201,144
	s7.5,17.3,20.1,17.3S241.2,153.1,241.2,144z M232.8,144c0,5.8-4,10.2-11.7,10.2s-11.7-4.4-11.7-10.2s4-10.3,11.7-10.3
	C228.8,133.8,232.8,138.3,232.8,144L232.8,144z M315.7,144.1c0,5.8-4,10.1-11.6,10.1s-11.6-4.3-11.6-10.1s4-10.2,11.6-10.2
	C311.7,134,315.7,138.4,315.7,144.1L315.7,144.1z M270.4,113.2V91h20.9v22.2H270.4z M300,89.4c0-4.3-1.8-5.8-5.8-5.8H259
	c-2.2,0-3.5,1-3.5,3.5c0,2.4,1.6,3.1,3.3,3.1h3v23c0,4.8,2.2,7.4,7.3,7.4h23.4c3.8,0,7.5-1.4,7.5-7.4V89.4z M299.8,127.3
	c-9.9,1.6-15.6,8.9-15.6,16.8c0,8.9,7.4,17.1,19.9,17.1S324,153,324,144.1c0-7.9-5.7-15.2-15.6-16.8v-3c0-1.9-1.5-3.4-4.3-3.4
	s-4.3,1.4-4.3,3.4L299.8,127.3L299.8,127.3z M316.8,106.8h-9.6c-2.4,0-3.9,1.2-3.9,3.5c0,2.4,1.5,3.5,3.9,3.5h9.6v9.3
	c0,3.1,2.1,4.2,4.3,4.2c2.2,0.2,4.1-1.4,4.3-3.6c0-0.2,0-0.5,0-0.7V78.7c0.1-1.5-1-2.9-2.6-3c-0.1,0-0.3,0-0.4,0c0,0-3.1,0.4-5,0.4
	c-1.6,0-3.1-0.2-4.7-0.4c-2-0.2-3.6,0.8-3.6,3.4c0,2.4,1.8,3.2,3.6,3.2h4v10.2h-9.6c-2.4,0-3.9,1.2-3.9,3.5c0,2.4,1.5,3.5,3.9,3.5
	h9.6L316.8,106.8z M372.7,97.6c0,5.3-4.7,7.8-9.4,7.8s-9.4-2.5-9.4-7.8s4.7-7.8,9.4-7.8S372.7,92.3,372.7,97.6L372.7,97.6z
	 M396.7,108c-8.7,7.7-27.2,9.1-33.4,8.9l-22.8-0.7c-3.1-0.1-4.3,1-4.5,3.6c-0.2,2.3,1.4,3.6,3.9,3.7l18.9,0.6v7.4
	c0,1,0.2,1.9,0.8,2.7c-0.9,0-1.7,0.1-2.5,0.1c-1.4,0-3.9-0.3-3.9-0.3c-2-0.2-3.6,0.8-3.6,3.4c0,2.5,1.8,3.2,3.6,3.2h2.7v12
	c0,5.6,3.1,6.8,7.9,6.8h40.5c2.4,0,4-0.7,4-3.8c0-2.7-1.7-3.6-4.1-3.6h-39.6v-14.7c0-0.6-0.1-1.3-0.4-1.8c1.8-0.2,3.4-1.3,3.4-4
	v-7.6c9.9-0.8,21.7-3.1,29.2-7.3v9.7h-13.1c-2.4,0-3.7,1.2-3.7,3.5c0,2.4,1.3,3.5,3.7,3.5h13.1v3.6c0,3.1,2.1,3.9,4.3,3.9
	s4.3-0.9,4.3-4v-58c0.1-1.5-1-2.9-2.6-3c-0.1,0-0.3,0-0.4,0c-1.6,0.2-3.3,0.3-4.9,0.4c-1.6,0-3.2-0.2-4.8-0.4
	c-2-0.2-3.6,0.8-3.6,3.4c0,2.4,1.8,3.2,3.6,3.2h4L396.7,108z M358.9,83.2c-7.1,1.4-13.1,6.2-13.1,14.4c0,9.8,8.6,14.8,17.5,14.8
	c9,0,17.5-5,17.5-14.8c0-8.3-6-13.1-13.2-14.4v-3c0-1.9-1.6-3.4-4.4-3.4c-2.8,0-4.2,1.4-4.2,3.4L358.9,83.2L358.9,83.2z"/>
<path id="패스_477" class="st4" d="M189.9,65.1c1.4,0,2.5,1.1,2.5,2.5s-1.1,2.5-2.5,2.5s-2.5-1.1-2.5-2.5
	C187.3,66.3,188.5,65.1,189.9,65.1L189.9,65.1z M188.1,57.2c0.2-1.4,1.5-2.3,2.9-2.1c1.4,0.2,2.3,1.5,2.1,2.9
	c-0.2,1.4-1.5,2.3-2.9,2.1l0,0c-1.2-0.2-2.1-1.3-2.1-2.5C188.1,57.4,188.1,57.3,188.1,57.2z M190.6,46.9c0.4-1.3,1.9-2,3.2-1.6
	s2,1.9,1.6,3.2s-1.9,2-3.2,1.6c-1-0.3-1.7-1.3-1.7-2.4C190.4,47.4,190.5,47.1,190.6,46.9z M194.6,37.1c0.6-1.2,2.2-1.7,3.4-1.1
	s1.7,2.2,1.1,3.4s-2.2,1.7-3.4,1.1c-0.8-0.4-1.4-1.3-1.4-2.2C194.3,37.9,194.4,37.5,194.6,37.1L194.6,37.1z M200.1,28.1
	c0.8-1.1,2.4-1.4,3.5-0.6s1.4,2.4,0.6,3.5s-2.4,1.4-3.5,0.6c-0.7-0.5-1-1.2-1-2C199.6,29.1,199.8,28.6,200.1,28.1z M206.9,20.1
	c1-1,2.6-1,3.6,0s1,2.6,0,3.6s-2.6,1-3.6,0c-0.5-0.5-0.7-1.1-0.7-1.8C206.1,21.2,206.4,20.5,206.9,20.1L206.9,20.1z M214.8,13.2
	c1.1-0.8,2.7-0.6,3.6,0.5c0.8,1.1,0.6,2.7-0.5,3.6c-1.1,0.8-2.7,0.6-3.6-0.5c-0.3-0.4-0.5-1-0.5-1.5
	C213.8,14.4,214.2,13.7,214.8,13.2L214.8,13.2z M223.8,7.6c1.2-0.6,2.8-0.2,3.4,1.1c0.6,1.2,0.2,2.8-1.1,3.4
	c-1.2,0.6-2.8,0.2-3.4-1.1l0,0c-0.2-0.4-0.3-0.8-0.3-1.2C222.4,8.9,223,8,223.8,7.6L223.8,7.6z M233.5,3.5c1.3-0.4,2.8,0.3,3.2,1.6
	c0.4,1.3-0.3,2.8-1.6,3.2c-1.3,0.4-2.8-0.3-3.2-1.6c-0.1-0.3-0.1-0.5-0.1-0.8C231.8,4.8,232.5,3.8,233.5,3.5L233.5,3.5z M243.7,0.9
	c1.4-0.2,2.7,0.7,2.9,2.1c0.2,1.4-0.7,2.7-2.1,2.9c-1.4,0.2-2.7-0.7-2.9-2.1l0,0c0-0.1,0-0.3,0-0.4C241.6,2.2,242.5,1.1,243.7,0.9
	L243.7,0.9z M254.2,0c1.4,0,2.6,1.1,2.6,2.5s-1.1,2.6-2.5,2.6l0,0c-1.4,0-2.5-1.1-2.6-2.5l0,0C251.7,1.1,252.8,0,254.2,0L254.2,0z
	 M261.9,2.8c0.2-1.4,1.5-2.4,2.9-2.2c1.4,0.2,2.4,1.5,2.2,2.9c-0.2,1.4-1.5,2.4-2.9,2.2c-1.3-0.2-2.2-1.2-2.2-2.5
	C261.8,3.1,261.9,3,261.9,2.8L261.9,2.8z M271.8,4.7c0.4-1.3,1.8-2.1,3.2-1.7c1.3,0.4,2.1,1.8,1.7,3.2c-0.4,1.3-1.8,2.1-3.2,1.7
	c-1.1-0.3-1.8-1.3-1.8-2.4C271.7,5.2,271.8,4.9,271.8,4.7L271.8,4.7z M281.4,8c0.6-1.2,2.1-1.8,3.4-1.1c1.2,0.6,1.8,2.1,1.1,3.4
	c-0.6,1.2-2.1,1.8-3.4,1.1c-0.9-0.4-1.4-1.3-1.4-2.3C281.2,8.8,281.3,8.4,281.4,8L281.4,8z M290.4,12.9c0.8-1.1,2.4-1.4,3.5-0.6
	s1.4,2.4,0.6,3.5c-0.8,1.1-2.4,1.4-3.5,0.6c-0.7-0.5-1.1-1.3-1.1-2.1C289.9,13.8,290.1,13.3,290.4,12.9L290.4,12.9z M298.4,19
	c1-1,2.6-1,3.6-0.1s1,2.6,0.1,3.6c-1,1-2.6,1-3.6,0.1c-0.5-0.5-0.8-1.1-0.8-1.8C297.7,20.1,298,19.5,298.4,19L298.4,19z M305.5,26.4
	c1.1-0.8,2.7-0.6,3.6,0.5c0.8,1.1,0.6,2.7-0.5,3.6c-1.1,0.8-2.7,0.6-3.5-0.5c-0.3-0.4-0.5-1-0.5-1.5
	C304.4,27.6,304.8,26.8,305.5,26.4L305.5,26.4z M311.3,34.7c1.2-0.7,2.8-0.2,3.4,1.1c0.7,1.2,0.2,2.8-1.1,3.4
	c-1.2,0.7-2.8,0.2-3.4-1.1c-0.2-0.4-0.3-0.8-0.3-1.2C309.9,36,310.4,35.1,311.3,34.7L311.3,34.7z M315.7,43.8
	c1.3-0.5,2.8,0.2,3.2,1.6c0.5,1.3-0.2,2.8-1.6,3.2c-1.3,0.5-2.8-0.2-3.2-1.6c-0.1-0.3-0.2-0.5-0.2-0.8
	C314,45.1,314.7,44.2,315.7,43.8L315.7,43.8z M318.7,53.5c1.4-0.2,2.7,0.7,2.9,2.1s-0.7,2.7-2.1,2.9c-1.4,0.2-2.7-0.7-2.9-2
	c0-0.2,0-0.3,0-0.5C316.6,54.8,317.5,53.8,318.7,53.5z M320.1,63.6c1.4,0,2.6,1.1,2.6,2.5s-1.1,2.6-2.5,2.6s-2.6-1.1-2.6-2.5l0,0
	v-0.1C317.6,64.8,318.7,63.6,320.1,63.6L320.1,63.6z"/>
<path id="패스_478" class="st4" d="M203.3,65.1c1.4,0,2.5,1.1,2.6,2.5s-1.1,2.5-2.5,2.6c-1.4,0-2.5-1.1-2.6-2.5l0,0
	C200.7,66.3,201.9,65.1,203.3,65.1z M201.8,57.1c0.3-1.4,1.6-2.2,3-2c1.4,0.3,2.2,1.6,2,3c-0.3,1.4-1.6,2.2-3,2
	c-1.2-0.2-2-1.3-2-2.5C201.7,57.4,201.7,57.2,201.8,57.1L201.8,57.1z M204.8,46.9c0.5-1.3,2-1.9,3.3-1.4s1.9,2,1.4,3.3
	s-2,1.9-3.3,1.4c-0.9-0.4-1.6-1.3-1.6-2.3C204.6,47.5,204.7,47.2,204.8,46.9z M209.9,37.5c0.8-1.2,2.4-1.5,3.5-0.7
	c1.2,0.8,1.5,2.4,0.7,3.5c-0.8,1.2-2.4,1.5-3.5,0.7c-0.7-0.5-1.1-1.3-1.1-2.1C209.4,38.4,209.6,37.9,209.9,37.5L209.9,37.5z
	 M216.6,29.3c1-1,2.6-1,3.6,0s1,2.6,0,3.6s-2.6,1-3.6,0c-0.5-0.5-0.8-1.1-0.8-1.8C215.9,30.4,216.1,29.8,216.6,29.3L216.6,29.3z
	 M224.8,22.5c1.2-0.8,2.7-0.5,3.5,0.7s0.5,2.7-0.7,3.5s-2.7,0.5-3.5-0.7c-0.3-0.4-0.4-0.9-0.4-1.4C223.7,23.8,224.1,23,224.8,22.5z
	 M234.2,17.5c1.3-0.5,2.8,0.1,3.3,1.4s-0.1,2.8-1.4,3.3s-2.8-0.1-3.3-1.4l0,0c-0.1-0.3-0.2-0.6-0.2-1
	C232.6,18.8,233.3,17.9,234.2,17.5L234.2,17.5z M244.4,14.4c1.4-0.3,2.7,0.6,3,2s-0.6,2.7-2,3s-2.7-0.6-3-2c0-0.2-0.1-0.3-0.1-0.5
	C242.3,15.7,243.2,14.6,244.4,14.4L244.4,14.4z M255,13.4c1.4,0,2.5,1.1,2.5,2.5s-1.1,2.5-2.5,2.5s-2.5-1.1-2.5-2.5l0,0
	C252.4,14.5,253.6,13.4,255,13.4L255,13.4z M262.6,16.4c0.3-1.4,1.6-2.2,3-2c1.4,0.3,2.2,1.6,2,3c-0.3,1.4-1.6,2.2-3,2
	c-1.2-0.2-2-1.3-2-2.5C262.5,16.7,262.5,16.6,262.6,16.4L262.6,16.4z M272.4,18.8c0.5-1.3,2-1.9,3.3-1.4s1.9,2,1.4,3.3
	s-2,1.9-3.3,1.4c-1-0.4-1.6-1.3-1.6-2.4C272.2,19.5,272.3,19.1,272.4,18.8L272.4,18.8z M281.6,23.2c0.8-1.2,2.4-1.5,3.5-0.7
	c1.2,0.8,1.5,2.4,0.7,3.5c-0.8,1.2-2.4,1.5-3.5,0.7l0,0c-0.7-0.5-1.1-1.3-1.1-2.1C281.2,24.1,281.3,23.6,281.6,23.2L281.6,23.2z
	 M289.8,29.2c1-1,2.6-1,3.6,0s1,2.6,0,3.6s-2.6,1-3.6,0l0,0C288.8,31.8,288.8,30.2,289.8,29.2z M296.6,36.7c1.2-0.8,2.8-0.5,3.5,0.7
	s0.5,2.8-0.7,3.5c-1.2,0.8-2.8,0.5-3.5-0.7c-0.3-0.4-0.4-0.9-0.4-1.4C295.5,38,295.9,37.2,296.6,36.7L296.6,36.7z M301.8,45.4
	c1.3-0.5,2.8,0.1,3.3,1.4s-0.1,2.8-1.4,3.3c-1.3,0.5-2.8-0.1-3.3-1.4c-0.1-0.3-0.2-0.6-0.2-1C300.3,46.8,300.9,45.8,301.8,45.4
	L301.8,45.4z M305.3,55c1.4-0.3,2.7,0.6,3,2s-0.6,2.7-2,3s-2.7-0.6-3-2l0,0c0-0.2-0.1-0.3-0.1-0.5C303.2,56.3,304.1,55.2,305.3,55z
	 M306.8,65c1.4,0,2.5,1.1,2.5,2.5s-1.1,2.5-2.5,2.5s-2.5-1.1-2.5-2.5l0,0C304.2,66.2,305.4,65,306.8,65L306.8,65z"/>
<path id="패스_479" class="st4" d="M216.9,65.1c1.4,0,2.5,1.1,2.5,2.5s-1.1,2.5-2.5,2.5s-2.5-1.1-2.5-2.5l0,0
	C214.3,66.3,215.5,65.1,216.9,65.1z M215.7,57.2c0.3-1.4,1.7-2.2,3.1-1.9c1.4,0.3,2.2,1.7,1.9,3.1s-1.7,2.2-3.1,1.9
	c-1.1-0.3-1.9-1.3-2-2.5C215.6,57.6,215.6,57.4,215.7,57.2z M219.7,47.5c0.7-1.2,2.2-1.7,3.5-1c1.2,0.7,1.7,2.2,1,3.5
	c-0.7,1.2-2.2,1.7-3.5,1c-0.8-0.5-1.3-1.3-1.3-2.2C219.3,48.3,219.4,47.8,219.7,47.5L219.7,47.5z M226,39.1c1-1,2.6-1,3.6,0
	s1,2.6,0,3.6s-2.6,1-3.6,0c-0.5-0.5-0.7-1.1-0.7-1.8C225.3,40.2,225.6,39.6,226,39.1L226,39.1z M234.3,32.6c1.2-0.7,2.8-0.3,3.5,0.9
	c0.7,1.2,0.3,2.8-0.9,3.5c-1.2,0.7-2.8,0.3-3.5-0.9l0,0c-0.2-0.4-0.4-0.8-0.4-1.3C233.1,33.9,233.6,33.1,234.3,32.6L234.3,32.6z
	 M244,28.5c1.3-0.4,2.7,0.4,3.1,1.8c0.4,1.3-0.4,2.7-1.8,3.1s-2.7-0.4-3.1-1.8c-0.1-0.2-0.1-0.4-0.1-0.6
	C242.2,29.8,242.9,28.8,244,28.5L244,28.5z M254.4,27c1.4,0,2.6,1.1,2.6,2.5s-1.1,2.6-2.5,2.6s-2.6-1.1-2.6-2.5l0,0
	C251.9,28.1,253.1,27,254.4,27L254.4,27z M261.8,30c0.3-1.4,1.7-2.2,3.1-1.8c1.4,0.3,2.2,1.7,1.8,3.1s-1.7,2.2-3.1,1.8
	c-1.1-0.3-1.9-1.3-1.9-2.5C261.8,30.4,261.8,30.2,261.8,30L261.8,30z M271.3,33c0.7-1.2,2.2-1.7,3.5-1c1.2,0.7,1.7,2.2,1,3.5
	c-0.7,1.2-2.2,1.7-3.5,1c-0.8-0.4-1.3-1.3-1.3-2.2C270.9,33.8,271.1,33.4,271.3,33L271.3,33z M279.6,38.4c1-1,2.6-1.1,3.6-0.1
	s1.1,2.6,0.1,3.6s-2.6,1.1-3.6,0.1l0,0C278.7,41,278.6,39.4,279.6,38.4z M286.3,45.6c1.2-0.7,2.8-0.3,3.5,0.9s0.3,2.8-0.9,3.5
	s-2.8,0.3-3.5-0.9c-0.2-0.4-0.4-0.9-0.4-1.3C285.1,46.9,285.5,46.1,286.3,45.6L286.3,45.6z M290.9,54.4c1.3-0.4,2.8,0.4,3.2,1.7
	s-0.4,2.8-1.7,3.2c-1.3,0.4-2.8-0.4-3.2-1.7c-0.1-0.2-0.1-0.5-0.1-0.7C289.1,55.7,289.8,54.7,290.9,54.4L290.9,54.4z M293.1,64.1
	c1.4,0,2.6,1.1,2.6,2.5s-1.1,2.6-2.5,2.6s-2.6-1.1-2.6-2.5v-0.1C290.6,65.2,291.7,64.1,293.1,64.1L293.1,64.1z"/>
</svg>
