<svg xmlns="http://www.w3.org/2000/svg" xmlns:xlink="http://www.w3.org/1999/xlink" width="1920" height="4584" viewBox="0 0 1920 4584">
  <defs>
    <clipPath id="clip-path">
      <rect id="사각형_203" data-name="사각형 203" width="1920" height="4584" fill="#fff"/>
    </clipPath>
  </defs>
  <g id="마스크_그룹_7" data-name="마스크 그룹 7" clip-path="url(#clip-path)">
    <g id="그룹_222" data-name="그룹 222">
      <g id="후원금_파트_배경화면2" data-name="후원금 파트 배경화면2" transform="translate(1198.843 3556.297)">
        <g id="그룹_218" data-name="그룹 218" transform="translate(207.157 49.692)">
          <path id="패스_493" data-name="패스 493" d="M215.761,53.99a4.3,4.3,0,1,1-4.3-4.3A4.3,4.3,0,0,1,215.761,53.99Z" transform="translate(-207.157 -49.691)" fill="#f5df4d"/>
          <path id="패스_494" data-name="패스 494" d="M222.559,53.99a4.3,4.3,0,1,1-4.3-4.3A4.3,4.3,0,0,1,222.559,53.99Z" transform="translate(-188.69 -49.691)" fill="#f5df4d"/>
          <path id="패스_495" data-name="패스 495" d="M229.364,53.99a4.3,4.3,0,1,1-4.3-4.3A4.3,4.3,0,0,1,229.364,53.99Z" transform="translate(-170.226 -49.691)" fill="#f5df4d"/>
          <circle id="타원_90" data-name="타원 90" cx="4.301" cy="4.301" r="4.301" transform="translate(75.803)" fill="#f5df4d"/>
          <circle id="타원_91" data-name="타원 91" cx="4.301" cy="4.301" r="4.301" transform="translate(101.07)" fill="#f5df4d"/>
          <circle id="타원_92" data-name="타원 92" cx="4.301" cy="4.301" r="4.301" transform="translate(126.337)" fill="#f5df4d"/>
          <circle id="타원_93" data-name="타원 93" cx="4.301" cy="4.301" r="4.301" transform="translate(151.604)" fill="#f5df4d"/>
          <circle id="타원_94" data-name="타원 94" cx="4.301" cy="4.301" r="4.301" transform="translate(176.872)" fill="#f5df4d"/>
        </g>
        <g id="_..." data-name="..." transform="translate(207.157 76.439)">
          <path id="패스_496" data-name="패스 496" d="M215.761,61.19a4.3,4.3,0,1,1-4.3-4.3A4.3,4.3,0,0,1,215.761,61.19Z" transform="translate(-207.157 -56.891)" fill="#f5df4d"/>
          <path id="패스_497" data-name="패스 497" d="M222.559,61.19a4.3,4.3,0,1,1-4.3-4.3A4.3,4.3,0,0,1,222.559,61.19Z" transform="translate(-188.69 -56.891)" fill="#f5df4d"/>
          <path id="패스_498" data-name="패스 498" d="M229.364,61.19a4.3,4.3,0,1,1-4.3-4.3A4.3,4.3,0,0,1,229.364,61.19Z" transform="translate(-170.226 -56.891)" fill="#f5df4d"/>
          <circle id="타원_95" data-name="타원 95" cx="4.301" cy="4.301" r="4.301" transform="translate(75.803 0)" fill="#f5df4d"/>
          <circle id="타원_96" data-name="타원 96" cx="4.301" cy="4.301" r="4.301" transform="translate(101.07)" fill="#f5df4d"/>
          <circle id="타원_97" data-name="타원 97" cx="4.301" cy="4.301" r="4.301" transform="translate(126.337 0)" fill="#f5df4d"/>
          <circle id="타원_98" data-name="타원 98" cx="4.301" cy="4.301" r="4.301" transform="translate(151.604)" fill="#f5df4d"/>
          <circle id="타원_99" data-name="타원 99" cx="4.301" cy="4.301" r="4.301" transform="translate(176.872 0)" fill="#f5df4d"/>
        </g>
        <g id="_...-2" data-name="..." transform="translate(207.157 103.187)">
          <path id="패스_499" data-name="패스 499" d="M215.761,68.39a4.3,4.3,0,1,1-4.3-4.3A4.3,4.3,0,0,1,215.761,68.39Z" transform="translate(-207.157 -64.091)" fill="#f5df4d"/>
          <path id="패스_500" data-name="패스 500" d="M222.559,68.39a4.3,4.3,0,1,1-4.3-4.3A4.3,4.3,0,0,1,222.559,68.39Z" transform="translate(-188.69 -64.091)" fill="#f5df4d"/>
          <path id="패스_501" data-name="패스 501" d="M229.364,68.39a4.3,4.3,0,1,1-4.3-4.3A4.3,4.3,0,0,1,229.364,68.39Z" transform="translate(-170.226 -64.091)" fill="#f5df4d"/>
          <circle id="타원_100" data-name="타원 100" cx="4.301" cy="4.301" r="4.301" transform="translate(75.803)" fill="#f5df4d"/>
          <circle id="타원_101" data-name="타원 101" cx="4.301" cy="4.301" r="4.301" transform="translate(101.07)" fill="#f5df4d"/>
          <circle id="타원_102" data-name="타원 102" cx="4.301" cy="4.301" r="4.301" transform="translate(126.337)" fill="#f5df4d"/>
          <circle id="타원_103" data-name="타원 103" cx="4.301" cy="4.301" r="4.301" transform="translate(151.604)" fill="#f5df4d"/>
          <circle id="타원_104" data-name="타원 104" cx="4.301" cy="4.301" r="4.301" transform="translate(176.872)" fill="#f5df4d"/>
        </g>
        <g id="_...-3" data-name="..." transform="translate(207.157 129.935)">
          <path id="패스_502" data-name="패스 502" d="M215.761,75.59a4.3,4.3,0,1,1-4.3-4.3A4.3,4.3,0,0,1,215.761,75.59Z" transform="translate(-207.157 -71.291)" fill="#f5df4d"/>
          <path id="패스_503" data-name="패스 503" d="M222.559,75.59a4.3,4.3,0,1,1-4.3-4.3A4.3,4.3,0,0,1,222.559,75.59Z" transform="translate(-188.69 -71.291)" fill="#f5df4d"/>
          <path id="패스_504" data-name="패스 504" d="M229.364,75.59a4.3,4.3,0,1,1-4.3-4.3A4.3,4.3,0,0,1,229.364,75.59Z" transform="translate(-170.226 -71.291)" fill="#f5df4d"/>
          <circle id="타원_105" data-name="타원 105" cx="4.301" cy="4.301" r="4.301" transform="translate(75.803 0)" fill="#f5df4d"/>
          <circle id="타원_106" data-name="타원 106" cx="4.301" cy="4.301" r="4.301" transform="translate(101.07 0)" fill="#f5df4d"/>
          <circle id="타원_107" data-name="타원 107" cx="4.301" cy="4.301" r="4.301" transform="translate(126.337 0)" fill="#f5df4d"/>
          <circle id="타원_108" data-name="타원 108" cx="4.301" cy="4.301" r="4.301" transform="translate(151.604)" fill="#f5df4d"/>
          <circle id="타원_109" data-name="타원 109" cx="4.301" cy="4.301" r="4.301" transform="translate(176.872 0)" fill="#f5df4d"/>
        </g>
      </g>
      <g id="그룹_221" data-name="그룹 221">
        <g id="광명원_이야기바탕화면" data-name="광명원 이야기바탕화면" transform="translate(827.37 1225.886)">
          <g id="그룹_219" data-name="그룹 219" transform="translate(207.157 49.692)">
            <path id="패스_505" data-name="패스 505" d="M215.761,53.99a4.3,4.3,0,1,1-4.3-4.3A4.3,4.3,0,0,1,215.761,53.99Z" transform="translate(-207.157 -49.691)" fill="#f5df4d"/>
            <path id="패스_506" data-name="패스 506" d="M222.559,53.99a4.3,4.3,0,1,1-4.3-4.3A4.3,4.3,0,0,1,222.559,53.99Z" transform="translate(-188.69 -49.691)" fill="#f5df4d"/>
            <path id="패스_507" data-name="패스 507" d="M229.364,53.99a4.3,4.3,0,1,1-4.3-4.3A4.3,4.3,0,0,1,229.364,53.99Z" transform="translate(-170.226 -49.691)" fill="#f5df4d"/>
            <circle id="타원_110" data-name="타원 110" cx="4.301" cy="4.301" r="4.301" transform="translate(75.803)" fill="#f5df4d"/>
            <circle id="타원_111" data-name="타원 111" cx="4.301" cy="4.301" r="4.301" transform="translate(101.07)" fill="#f5df4d"/>
            <circle id="타원_112" data-name="타원 112" cx="4.301" cy="4.301" r="4.301" transform="translate(126.337)" fill="#f5df4d"/>
            <circle id="타원_113" data-name="타원 113" cx="4.301" cy="4.301" r="4.301" transform="translate(151.604)" fill="#f5df4d"/>
            <circle id="타원_114" data-name="타원 114" cx="4.301" cy="4.301" r="4.301" transform="translate(176.872)" fill="#f5df4d"/>
          </g>
          <g id="_...-4" data-name="..." transform="translate(207.157 76.439)">
            <path id="패스_508" data-name="패스 508" d="M215.761,61.19a4.3,4.3,0,1,1-4.3-4.3A4.3,4.3,0,0,1,215.761,61.19Z" transform="translate(-207.157 -56.891)" fill="#f5df4d"/>
            <path id="패스_509" data-name="패스 509" d="M222.559,61.19a4.3,4.3,0,1,1-4.3-4.3A4.3,4.3,0,0,1,222.559,61.19Z" transform="translate(-188.69 -56.891)" fill="#f5df4d"/>
            <path id="패스_510" data-name="패스 510" d="M229.364,61.19a4.3,4.3,0,1,1-4.3-4.3A4.3,4.3,0,0,1,229.364,61.19Z" transform="translate(-170.226 -56.891)" fill="#f5df4d"/>
            <circle id="타원_115" data-name="타원 115" cx="4.301" cy="4.301" r="4.301" transform="translate(75.803 0)" fill="#f5df4d"/>
            <circle id="타원_116" data-name="타원 116" cx="4.301" cy="4.301" r="4.301" transform="translate(101.07)" fill="#f5df4d"/>
            <circle id="타원_117" data-name="타원 117" cx="4.301" cy="4.301" r="4.301" transform="translate(126.337 0)" fill="#f5df4d"/>
            <circle id="타원_118" data-name="타원 118" cx="4.301" cy="4.301" r="4.301" transform="translate(151.604)" fill="#f5df4d"/>
            <circle id="타원_119" data-name="타원 119" cx="4.301" cy="4.301" r="4.301" transform="translate(176.872 0)" fill="#f5df4d"/>
          </g>
          <g id="_...-5" data-name="..." transform="translate(207.157 103.187)">
            <path id="패스_511" data-name="패스 511" d="M215.761,68.39a4.3,4.3,0,1,1-4.3-4.3A4.3,4.3,0,0,1,215.761,68.39Z" transform="translate(-207.157 -64.091)" fill="#f5df4d"/>
            <path id="패스_512" data-name="패스 512" d="M222.559,68.39a4.3,4.3,0,1,1-4.3-4.3A4.3,4.3,0,0,1,222.559,68.39Z" transform="translate(-188.69 -64.091)" fill="#f5df4d"/>
            <path id="패스_513" data-name="패스 513" d="M229.364,68.39a4.3,4.3,0,1,1-4.3-4.3A4.3,4.3,0,0,1,229.364,68.39Z" transform="translate(-170.226 -64.091)" fill="#f5df4d"/>
            <circle id="타원_120" data-name="타원 120" cx="4.301" cy="4.301" r="4.301" transform="translate(75.803)" fill="#f5df4d"/>
            <circle id="타원_121" data-name="타원 121" cx="4.301" cy="4.301" r="4.301" transform="translate(101.07)" fill="#f5df4d"/>
            <circle id="타원_122" data-name="타원 122" cx="4.301" cy="4.301" r="4.301" transform="translate(126.337)" fill="#f5df4d"/>
            <circle id="타원_123" data-name="타원 123" cx="4.301" cy="4.301" r="4.301" transform="translate(151.604)" fill="#f5df4d"/>
            <circle id="타원_124" data-name="타원 124" cx="4.301" cy="4.301" r="4.301" transform="translate(176.872)" fill="#f5df4d"/>
          </g>
          <g id="_...-6" data-name="..." transform="translate(207.157 129.935)">
            <path id="패스_514" data-name="패스 514" d="M215.761,75.59a4.3,4.3,0,1,1-4.3-4.3A4.3,4.3,0,0,1,215.761,75.59Z" transform="translate(-207.157 -71.291)" fill="#f5df4d"/>
            <path id="패스_515" data-name="패스 515" d="M222.559,75.59a4.3,4.3,0,1,1-4.3-4.3A4.3,4.3,0,0,1,222.559,75.59Z" transform="translate(-188.69 -71.291)" fill="#f5df4d"/>
            <path id="패스_516" data-name="패스 516" d="M229.364,75.59a4.3,4.3,0,1,1-4.3-4.3A4.3,4.3,0,0,1,229.364,75.59Z" transform="translate(-170.226 -71.291)" fill="#f5df4d"/>
            <circle id="타원_125" data-name="타원 125" cx="4.301" cy="4.301" r="4.301" transform="translate(75.803 0)" fill="#f5df4d"/>
            <circle id="타원_126" data-name="타원 126" cx="4.301" cy="4.301" r="4.301" transform="translate(101.07 0)" fill="#f5df4d"/>
            <circle id="타원_127" data-name="타원 127" cx="4.301" cy="4.301" r="4.301" transform="translate(126.337 0)" fill="#f5df4d"/>
            <circle id="타원_128" data-name="타원 128" cx="4.301" cy="4.301" r="4.301" transform="translate(151.604)" fill="#f5df4d"/>
            <circle id="타원_129" data-name="타원 129" cx="4.301" cy="4.301" r="4.301" transform="translate(176.872 0)" fill="#f5df4d"/>
          </g>
        </g>
        <g id="후원금_파트_배경화면" data-name="후원금 파트 배경화면">
          <rect id="사각형_202" data-name="사각형 202" width="2070" height="778" transform="translate(-55 3806)" fill="#3e5066"/>
          <path id="패스_517" data-name="패스 517" d="M2579.6,2332.74c-11.331,0,1947.062,447.511,1947.062,447.511v109.566H2540.573S2590.928,2332.74,2579.6,2332.74Z" transform="translate(-2589.525 948.75)" fill="#3e5066"/>
        </g>
        <g id="그룹_220" data-name="그룹 220" transform="translate(0 284.451)">
          <path id="패스_518" data-name="패스 518" d="M5773.109,4558.426s-351.305-202.37-379.348-176.646l-112.169,102.9-2355.135,73.75S5302.348,3843.01,4786.982,3336.477,2352.357,3742.763,2452.6,2997.758,3980.151,1952.9,3954.1,1464.028s-696.1-585.222-696.1-585.222-367.24-45.785-735.646-259.634-299.2-287.919-290.363-299.879,12.22,442,12.22,442L2126.423,653.918" transform="translate(-2309.577 -291.711)" fill="none" stroke="#f5df4d" stroke-width="2" opacity="0.61"/>
          <path id="패스_519" data-name="패스 519" d="M3324.291,3679.62s-351.305-202.37-379.348-176.646l-112.169,102.9L477.639,3679.62S2853.53,2964.2,2338.165,2457.671-96.461,2863.957,3.786,2118.951,1531.333,1074.09,1505.278,585.222,809.176,0,809.176,0,277.929-148.838-516.832-52.473s-52.016,11.056-52.016,11.056l-11.777,54.255" transform="translate(502.836 532.168) rotate(12)" fill="none" stroke="#707070" stroke-width="2" opacity="0.35"/>
        </g>
      </g>
    </g>
  </g>
</svg>
