<svg xmlns="http://www.w3.org/2000/svg" width="21.74" height="20.165" viewBox="0 0 21.74 20.165">
  <g id="블로그" transform="translate(-554.304 -275.417)">
    <path id="패스_482" data-name="패스 482" d="M581.071,323.867a.749.749,0,1,0,.749.749A.748.748,0,0,0,581.071,323.867Z" transform="translate(-22.023 -41.009)" fill="#e9e9e9"/>
    <path id="패스_483" data-name="패스 483" d="M628.9,323.358a.806.806,0,1,0,.806.806A.806.806,0,0,0,628.9,323.358Z" transform="translate(-62.46 -40.579)" fill="#e9e9e9"/>
    <path id="패스_484" data-name="패스 484" d="M573.136,275.417H557.212a2.908,2.908,0,0,0-2.908,2.908v9.451a2.908,2.908,0,0,0,2.908,2.908h5.624l1.913,4.507s.132.391.45.391h0c.319,0,.451-.391.451-.391l1.913-4.507h5.573a2.908,2.908,0,0,0,2.908-2.908v-9.451A2.908,2.908,0,0,0,573.136,275.417Zm-12,8.354a1.8,1.8,0,0,1-1.8,1.777,1.492,1.492,0,0,1-1.081-.458v.311h-1.3v-5.365c-.005,0-.006,0,0,0v0c.081.013,1.3,0,1.3,0v2.052c.306-.522,1.191-.513,1.191-.513A1.905,1.905,0,0,1,561.134,283.771Zm2.29-2.034v3.673h-1.273v-3.637c0-.494-.614-.632-.614-.632V279.86A1.761,1.761,0,0,1,563.424,281.738Zm3.018,3.813a1.972,1.972,0,1,1,2.134-1.965A2.055,2.055,0,0,1,566.443,285.55Zm6.976,0a1.816,1.816,0,0,1-1.878,1.866h-.577v-1.209h.348s.8.073.788-1.154c0,0-.156.5-1.273.5a1.679,1.679,0,0,1-1.585-1.66V283.3a1.811,1.811,0,0,1,1.777-1.731,1.3,1.3,0,0,1,1.108.495v-.394h1.292Z" fill="#e9e9e9"/>
    <path id="패스_485" data-name="패스 485" d="M661.244,323.478a.788.788,0,1,0,.788.788A.787.787,0,0,0,661.244,323.478Z" transform="translate(-89.85 -40.68)" fill="#e9e9e9"/>
  </g>
</svg>
