<?xml version="1.0" encoding="utf-8"?>
<!-- Generator: Adobe Illustrator 27.7.0, SVG Export Plug-In . SVG Version: 6.00 Build 0)  -->
<svg version="1.1" id="함께_걷기_버튼" xmlns="http://www.w3.org/2000/svg" xmlns:xlink="http://www.w3.org/1999/xlink"
	 x="0px" y="0px" viewBox="0 0 222 73" style="enable-background:new 0 0 222 73;" xml:space="preserve">
<style type="text/css">
	.st0{fill:#3E5066;}
	.st1{enable-background:new    ;}
	.st2{fill:#FFFFFF;}
</style>
<path id="사각형_183" class="st0" d="M36.5,0h149C205.7,0,222,16.3,222,36.5l0,0c0,20.2-16.3,36.5-36.5,36.5h-149
	C16.3,73,0,56.7,0,36.5l0,0C0,16.3,16.3,0,36.5,0z"/>
<g class="st1">
	<path class="st2" d="M50.3,33.8c0.1-0.4,0.3-0.8,0.5-1.1h-0.7c-0.2,0-0.3,0-0.4-0.1c-0.1-0.1-0.1-0.2-0.1-0.4V31
		c0-0.1,0-0.3,0.1-0.4c0.1-0.1,0.2-0.1,0.4-0.1h3.3v-1.2c0-0.1,0.1-0.3,0.2-0.4c0.1-0.1,0.2-0.1,0.4-0.1h1.5c0.1,0,0.3,0,0.4,0.1
		c0.1,0.1,0.1,0.2,0.1,0.4v1.2h3.3c0.1,0,0.3,0,0.4,0.1c0.1,0.1,0.2,0.2,0.2,0.4v1.2c0,0.1-0.1,0.3-0.2,0.4
		c-0.1,0.1-0.2,0.1-0.4,0.1h-0.7c0.5,0.7,0.7,1.5,0.7,2.4c0,0.6-0.1,1.2-0.4,1.7c-0.2,0.5-0.6,1-1,1.4c-0.4,0.4-0.9,0.7-1.4,0.9
		s-1.1,0.3-1.8,0.3c-0.6,0-1.2-0.1-1.8-0.3c-0.6-0.2-1-0.5-1.4-0.9c-0.4-0.4-0.7-0.9-1-1.4c-0.2-0.5-0.4-1.1-0.4-1.7
		C50.1,34.7,50.1,34.2,50.3,33.8z M52.8,36c0.1,0.3,0.2,0.5,0.4,0.7c0.2,0.2,0.4,0.4,0.6,0.5c0.2,0.1,0.5,0.2,0.8,0.2
		c0.3,0,0.5-0.1,0.8-0.2c0.2-0.1,0.4-0.3,0.6-0.5s0.3-0.4,0.4-0.7s0.1-0.6,0.1-0.9c0-0.3,0-0.6-0.1-0.9s-0.2-0.5-0.4-0.7
		s-0.4-0.4-0.6-0.5c-0.2-0.1-0.5-0.2-0.8-0.2c-0.3,0-0.5,0.1-0.8,0.2c-0.2,0.1-0.4,0.3-0.6,0.5c-0.2,0.2-0.3,0.4-0.4,0.7
		s-0.1,0.6-0.1,0.9C52.7,35.4,52.7,35.7,52.8,36z M63.5,45.8c0,0.3-0.1,0.6-0.2,0.8c-0.1,0.3-0.3,0.5-0.5,0.7s-0.5,0.3-0.8,0.5
		c-0.3,0.1-0.6,0.2-1,0.2h-5.7c-0.3,0-0.7-0.1-1-0.2c-0.3-0.1-0.5-0.3-0.8-0.5c-0.2-0.2-0.4-0.4-0.5-0.7c-0.1-0.3-0.2-0.5-0.2-0.8
		v-4.4c0-0.1,0.1-0.3,0.1-0.4c0.1-0.1,0.2-0.1,0.4-0.1H63c0.1,0,0.3,0,0.4,0.1c0.1,0.1,0.1,0.2,0.1,0.4V45.8z M60.9,43.1h-5.4v2.3
		c0,0.1,0,0.1,0.1,0.2c0,0.1,0.1,0.1,0.2,0.1h4.9c0.1,0,0.1,0,0.2-0.1c0-0.1,0.1-0.1,0.1-0.2V43.1z M60.9,29.4
		c0-0.1,0.1-0.3,0.1-0.4c0.1-0.1,0.2-0.1,0.4-0.1H63c0.1,0,0.3,0,0.4,0.1c0.1,0.1,0.1,0.2,0.1,0.4v3.9h1.4c0.1,0,0.3,0,0.4,0.1
		c0.1,0.1,0.1,0.2,0.1,0.4V35c0,0.1,0,0.3-0.1,0.4c-0.1,0.1-0.2,0.1-0.4,0.1h-1.4v3.9c0,0.1,0,0.3-0.1,0.4c-0.1,0.1-0.2,0.1-0.4,0.1
		h-1.5c-0.2,0-0.3,0-0.4-0.1c-0.1-0.1-0.1-0.2-0.1-0.4V29.4z"/>
	<path class="st2" d="M69.5,33.9c0,0.7-0.1,1.4-0.2,2.1c-0.2,0.7-0.4,1.3-0.6,1.9c-0.3,0.6-0.6,1.1-0.9,1.6
		c-0.4,0.5-0.7,0.9-1.2,1.1c-0.1,0.1-0.2,0.1-0.3,0.1c-0.2,0-0.4-0.1-0.5-0.3l-0.5-1.1c0-0.1-0.1-0.1-0.1-0.2c0-0.2,0.1-0.3,0.3-0.5
		c0.3-0.2,0.5-0.5,0.7-0.8c0.2-0.3,0.4-0.7,0.6-1.1c0.2-0.4,0.3-0.9,0.4-1.4c0.1-0.5,0.1-1,0.1-1.5v-1.3h-1.2c-0.1,0-0.3,0-0.4-0.1
		c-0.1-0.1-0.2-0.2-0.2-0.4v-1.2c0-0.1,0.1-0.3,0.2-0.4c0.1-0.1,0.2-0.1,0.4-0.1H69c0.1,0,0.3,0,0.4,0.1c0.1,0.1,0.2,0.2,0.2,0.4
		V33.9z M72.9,37.1c-0.3,0.9-0.6,1.8-1.1,2.5c-0.4,0.8-0.9,1.3-1.5,1.7c-0.1,0.1-0.2,0.1-0.3,0.1c-0.2,0-0.4-0.1-0.5-0.3L69.1,40
		c0-0.1-0.1-0.1-0.1-0.2c0-0.2,0.1-0.3,0.3-0.5c0.3-0.2,0.5-0.5,0.7-0.9c0.2-0.4,0.4-0.8,0.6-1.3c0.2-0.5,0.3-1,0.4-1.6
		c0.1-0.6,0.1-1.1,0.1-1.7v-1.3h-1c-0.2,0-0.3,0-0.4-0.1c-0.1-0.1-0.1-0.2-0.1-0.4v-1.2c0-0.1,0-0.3,0.1-0.4
		c0.1-0.1,0.2-0.1,0.4-0.1h2.7c0.1,0,0.3,0,0.4,0.1c0.1,0.1,0.2,0.2,0.2,0.4v3c0,0.2,0,0.3,0,0.5c0,0.2,0,0.3,0,0.5h1v-5.3
		c0-0.1,0.1-0.3,0.2-0.4c0.1-0.1,0.2-0.1,0.4-0.1h1.3c0.1,0,0.3,0,0.4,0.1c0.1,0.1,0.2,0.2,0.2,0.4v16.6c0,0.1-0.1,0.3-0.2,0.4
		c-0.1,0.1-0.2,0.1-0.4,0.1h-1.3c-0.2,0-0.3,0-0.4-0.1c-0.1-0.1-0.2-0.2-0.2-0.4v-9.1H72.9z M77.5,29.4c0-0.1,0.1-0.3,0.2-0.4
		c0.1-0.1,0.2-0.1,0.4-0.1h1.3c0.1,0,0.3,0,0.4,0.1c0.1,0.1,0.1,0.2,0.1,0.4V47c0,0.1,0,0.3-0.1,0.4c-0.1,0.1-0.2,0.1-0.4,0.1H78
		c-0.1,0-0.3,0-0.4-0.1c-0.1-0.1-0.2-0.2-0.2-0.4V29.4z"/>
	<path class="st2" d="M99.3,35.4h-4.4c-0.7,0.7-1.5,1.3-2.5,1.8s-2.1,0.9-3.2,1.2c-0.1,0-0.3,0-0.4-0.1c-0.1,0-0.2-0.1-0.3-0.3
		L88,37v-0.1c0,0,0,0,0-0.1c0-0.2,0.1-0.3,0.4-0.4c0.8-0.2,1.5-0.4,2.2-0.7c0.7-0.3,1.3-0.7,1.8-1.1c0.5-0.4,0.9-0.9,1.2-1.3
		c0.3-0.5,0.5-1,0.5-1.4h-5.5c-0.1,0-0.3,0-0.4-0.1C88,31.6,88,31.4,88,31.3v-1.2c0-0.1,0.1-0.3,0.2-0.4c0.1-0.1,0.2-0.1,0.4-0.1
		h7.6c0.2,0,0.3,0,0.4,0.1c0.1,0.1,0.2,0.2,0.2,0.4v1.6c0,0.5-0.1,1-0.3,1.5h2.9v-3.8c0-0.1,0.1-0.3,0.2-0.4
		c0.1-0.1,0.2-0.1,0.4-0.1h1.5c0.1,0,0.3,0,0.4,0.1c0.1,0.1,0.1,0.2,0.1,0.4V38c0,0.1,0,0.3-0.1,0.4c-0.1,0.1-0.2,0.1-0.4,0.1h-1.5
		c-0.2,0-0.3,0-0.4-0.1c-0.1-0.1-0.2-0.2-0.2-0.4V35.4z M93.3,47.9c-0.7,0-1.3-0.2-1.7-0.5c-0.5-0.4-0.7-0.8-0.7-1.4v-2.8
		c0-0.1,0.1-0.3,0.2-0.4c0.1-0.1,0.2-0.1,0.4-0.1h7.9v-1.1h-7.8c-0.2,0-0.3,0-0.4-0.1c-0.1-0.1-0.1-0.2-0.1-0.4V40
		c0-0.1,0.1-0.3,0.1-0.4c0.1-0.1,0.2-0.1,0.4-0.1h9.9c0.1,0,0.3,0,0.4,0.1c0.1,0.1,0.1,0.2,0.1,0.4v4.2c0,0.1,0,0.3-0.1,0.4
		c-0.1,0.1-0.2,0.1-0.4,0.1h-7.9v0.8c0,0.1,0,0.2,0.1,0.2c0,0.1,0.1,0.1,0.2,0.1h7.8c0.2,0,0.3,0,0.4,0.1c0.1,0.1,0.1,0.2,0.1,0.4
		v1.1c0,0.1,0,0.3-0.1,0.4c-0.1,0.1-0.2,0.1-0.4,0.1H93.3z"/>
	<path class="st2" d="M103.1,42.4c0-0.1,0-0.3,0.1-0.4c0.1-0.1,0.2-0.1,0.4-0.1h14.6c0.1,0,0.3,0,0.4,0.1c0.1,0.1,0.2,0.2,0.2,0.4
		v1.2c0,0.1-0.1,0.3-0.2,0.4c-0.1,0.1-0.2,0.1-0.4,0.1h-14.6c-0.2,0-0.3,0-0.4-0.1c-0.1-0.1-0.1-0.2-0.1-0.4V42.4z M106.5,32.1
		c0.3-0.6,0.6-1.1,1-1.6c0.4-0.4,1-0.8,1.5-1c0.6-0.3,1.2-0.4,1.9-0.4s1.3,0.1,1.9,0.4c0.6,0.3,1.1,0.6,1.6,1c0.4,0.4,0.8,1,1,1.6
		c0.3,0.6,0.4,1.2,0.4,1.9s-0.1,1.3-0.4,1.9c-0.3,0.6-0.6,1.1-1,1.6c-0.4,0.4-1,0.8-1.6,1c-0.6,0.3-1.2,0.4-1.9,0.4
		s-1.3-0.1-1.9-0.4c-0.6-0.3-1.1-0.6-1.5-1c-0.4-0.4-0.8-1-1-1.6c-0.3-0.6-0.4-1.2-0.4-1.9S106.2,32.7,106.5,32.1z M108.9,35
		c0.1,0.3,0.3,0.6,0.5,0.9c0.2,0.2,0.4,0.4,0.7,0.6c0.3,0.1,0.6,0.2,0.9,0.2s0.6-0.1,0.9-0.2c0.3-0.1,0.5-0.3,0.7-0.6
		c0.2-0.2,0.4-0.5,0.5-0.9c0.1-0.3,0.2-0.7,0.2-1s-0.1-0.7-0.2-1s-0.3-0.6-0.5-0.9c-0.2-0.2-0.5-0.4-0.7-0.6
		c-0.3-0.1-0.6-0.2-0.9-0.2s-0.6,0.1-0.9,0.2c-0.3,0.1-0.5,0.3-0.7,0.6c-0.2,0.2-0.4,0.5-0.5,0.9c-0.1,0.3-0.2,0.7-0.2,1
		S108.7,34.7,108.9,35z"/>
	<path class="st2" d="M127.5,41c-0.5,0.1-1,0.1-1.5,0.1s-1.1,0.1-1.7,0.1c-0.6,0-1.2,0-1.8,0c-0.3,0-0.6-0.1-0.9-0.2
		c-0.3-0.1-0.6-0.3-0.8-0.4s-0.4-0.4-0.5-0.7c-0.1-0.3-0.2-0.5-0.2-0.8v-4c0-0.1,0.1-0.3,0.2-0.4c0.1-0.1,0.2-0.1,0.4-0.1h4.5v-2.2
		h-4.4c-0.1,0-0.3,0-0.4-0.1c-0.1-0.1-0.2-0.2-0.2-0.4v-1.2c0-0.1,0.1-0.3,0.2-0.4c0.1-0.1,0.2-0.1,0.4-0.1h6.5c0.1,0,0.3,0,0.4,0.1
		c0.1,0.1,0.2,0.2,0.2,0.4v5.6c0,0.1-0.1,0.3-0.2,0.4c-0.1,0.1-0.2,0.1-0.4,0.1h-4.5v1.9c0,0.1,0,0.2,0.1,0.2c0,0.1,0.1,0.1,0.1,0.1
		c0.5,0,1.1,0,1.6,0c0.6,0,1.1-0.1,1.6-0.1c0.5,0,1-0.1,1.4-0.1c0.4-0.1,0.8-0.1,1.1-0.2c0.1,0,0.3,0,0.4,0.1s0.2,0.2,0.2,0.4v1.2
		c0,0.1-0.1,0.3-0.2,0.4s-0.2,0.2-0.3,0.2C128.3,40.9,127.9,41,127.5,41z M128.3,34.8c0-0.1,0.1-0.3,0.2-0.4
		c0.1-0.1,0.2-0.1,0.4-0.1h2.5v-4.9c0-0.1,0.1-0.3,0.2-0.4c0.1-0.1,0.2-0.1,0.4-0.1h1.5c0.1,0,0.3,0,0.4,0.1
		c0.1,0.1,0.1,0.2,0.1,0.4V47c0,0.1,0,0.3-0.1,0.4c-0.1,0.1-0.2,0.1-0.4,0.1h-1.5c-0.2,0-0.3,0-0.4-0.1c-0.1-0.1-0.2-0.2-0.2-0.4
		V36.5h-2.5c-0.2,0-0.3,0-0.4-0.1c-0.1-0.1-0.2-0.2-0.2-0.4V34.8z"/>
	<path class="st2" d="M150.7,32.5c0,1-0.2,2-0.6,2.9c-0.4,0.9-0.9,1.8-1.6,2.6c-0.7,0.8-1.5,1.5-2.4,2c-0.9,0.6-1.9,1-2.9,1.2
		c-0.1,0-0.3,0-0.4-0.1c-0.1,0-0.2-0.1-0.3-0.3l-0.5-1.1v-0.1c0,0,0,0,0-0.1c0-0.1,0-0.2,0.1-0.2s0.2-0.1,0.3-0.2
		c0.8-0.2,1.5-0.5,2.2-0.9c0.7-0.4,1.3-0.9,1.8-1.5c0.5-0.6,0.9-1.2,1.2-2c0.3-0.7,0.5-1.4,0.5-2.2h-5.5c-0.1,0-0.3,0-0.4-0.1
		c-0.1-0.1-0.2-0.2-0.2-0.4v-1.2c0-0.1,0.1-0.3,0.2-0.4c0.1-0.1,0.2-0.1,0.4-0.1h7.6c0.2,0,0.3,0,0.4,0.1c0.1,0.1,0.2,0.2,0.2,0.4
		V32.5z M152.9,29.4c0-0.1,0.1-0.3,0.2-0.4c0.1-0.1,0.2-0.1,0.4-0.1h1.5c0.1,0,0.3,0,0.4,0.1c0.1,0.1,0.1,0.2,0.1,0.4v5.3h1.4
		c0.1,0,0.3,0,0.4,0.1c0.1,0.1,0.2,0.2,0.2,0.4v1.2c0,0.1,0,0.3-0.2,0.4c-0.1,0.1-0.2,0.1-0.4,0.1h-1.4V47c0,0.1,0,0.3-0.1,0.4
		c-0.1,0.1-0.2,0.1-0.4,0.1h-1.5c-0.2,0-0.3,0-0.4-0.1c-0.1-0.1-0.2-0.2-0.2-0.4V29.4z"/>
	<path class="st2" d="M166.7,32.5c0,1-0.2,2-0.6,2.9c-0.4,0.9-0.9,1.8-1.6,2.6c-0.7,0.8-1.5,1.5-2.4,2c-0.9,0.6-1.9,1-2.9,1.2
		c-0.1,0-0.3,0-0.4-0.1c-0.1,0-0.2-0.1-0.3-0.3l-0.5-1.1v-0.1c0,0,0,0,0-0.1c0-0.1,0-0.2,0.1-0.2s0.2-0.1,0.3-0.2
		c0.8-0.2,1.5-0.5,2.2-0.9c0.7-0.4,1.3-0.9,1.8-1.5c0.5-0.6,0.9-1.2,1.2-2c0.3-0.7,0.5-1.4,0.5-2.2h-5.5c-0.1,0-0.3,0-0.4-0.1
		c-0.1-0.1-0.2-0.2-0.2-0.4v-1.2c0-0.1,0.1-0.3,0.2-0.4c0.1-0.1,0.2-0.1,0.4-0.1h7.6c0.2,0,0.3,0,0.4,0.1c0.1,0.1,0.2,0.2,0.2,0.4
		V32.5z M169.3,29.4c0-0.1,0.1-0.3,0.2-0.4c0.1-0.1,0.2-0.1,0.4-0.1h1.5c0.1,0,0.3,0,0.4,0.1c0.1,0.1,0.1,0.2,0.1,0.4V47
		c0,0.1,0,0.3-0.1,0.4c-0.1,0.1-0.2,0.1-0.4,0.1h-1.5c-0.2,0-0.3,0-0.4-0.1c-0.1-0.1-0.2-0.2-0.2-0.4V29.4z"/>
</g>
</svg>
