<svg xmlns="http://www.w3.org/2000/svg" width="561.109" height="609.377" viewBox="0 0 561.109 609.377">
  <g id="사각형" transform="translate(-5172 -1483.388)">
    <g id="그룹_87" data-name="그룹 87" transform="translate(5204.971 1985.521)">
      <g id="그룹_69" data-name="그룹 69" transform="translate(0 0)">
        <path id="패스_202" data-name="패스 202" d="M10.386,5.188A5.193,5.193,0,1,1,5.193,0,5.193,5.193,0,0,1,10.386,5.188Z" transform="translate(0 0.001)" fill="#3e5066"/>
        <path id="패스_203" data-name="패스 203" d="M10.381,5.188A5.191,5.191,0,1,1,5.188,0,5.19,5.19,0,0,1,10.381,5.188Z" transform="translate(30.502 0.001)" fill="#3e5066"/>
        <path id="패스_204" data-name="패스 204" d="M10.386,5.188A5.193,5.193,0,1,1,5.193,0,5.193,5.193,0,0,1,10.386,5.188Z" transform="translate(61 0.001)" fill="#3e5066"/>
        <ellipse id="타원_64" data-name="타원 64" cx="5.191" cy="5.191" rx="5.191" ry="5.191" transform="translate(91.502 0)" fill="#3e5066"/>
        <ellipse id="타원_65" data-name="타원 65" cx="5.192" cy="5.192" rx="5.192" ry="5.192" transform="translate(122.002 0)" fill="#3e5066"/>
        <ellipse id="타원_66" data-name="타원 66" cx="5.191" cy="5.191" rx="5.191" ry="5.191" transform="translate(152.502 0)" fill="#3e5066"/>
        <ellipse id="타원_67" data-name="타원 67" cx="5.192" cy="5.192" rx="5.192" ry="5.192" transform="translate(183.002 0)" fill="#3e5066"/>
        <ellipse id="타원_68" data-name="타원 68" cx="5.191" cy="5.191" rx="5.191" ry="5.191" transform="translate(213.502 0)" fill="#3e5066"/>
      </g>
      <g id="그룹_70" data-name="그룹 70" transform="translate(0 32.287)">
        <path id="패스_205" data-name="패스 205" d="M10.386,5.188A5.193,5.193,0,1,1,5.193,0,5.193,5.193,0,0,1,10.386,5.188Z" transform="translate(0 0.001)" fill="#3e5066"/>
        <path id="패스_206" data-name="패스 206" d="M10.381,5.188A5.191,5.191,0,1,1,5.188,0,5.19,5.19,0,0,1,10.381,5.188Z" transform="translate(30.502 0.001)" fill="#3e5066"/>
        <path id="패스_207" data-name="패스 207" d="M10.386,5.188A5.193,5.193,0,1,1,5.193,0,5.193,5.193,0,0,1,10.386,5.188Z" transform="translate(61 0.001)" fill="#3e5066"/>
        <ellipse id="타원_69" data-name="타원 69" cx="5.191" cy="5.191" rx="5.191" ry="5.191" transform="translate(91.502 0)" fill="#3e5066"/>
        <ellipse id="타원_70" data-name="타원 70" cx="5.192" cy="5.192" rx="5.192" ry="5.192" transform="translate(122.002 0)" fill="#3e5066"/>
        <ellipse id="타원_71" data-name="타원 71" cx="5.191" cy="5.191" rx="5.191" ry="5.191" transform="translate(152.502 0)" fill="#3e5066"/>
        <ellipse id="타원_72" data-name="타원 72" cx="5.192" cy="5.192" rx="5.192" ry="5.192" transform="translate(183.002 0)" fill="#3e5066"/>
        <ellipse id="타원_73" data-name="타원 73" cx="5.191" cy="5.191" rx="5.191" ry="5.191" transform="translate(213.502 0)" fill="#3e5066"/>
      </g>
      <g id="그룹_71" data-name="그룹 71" transform="translate(0 64.574)">
        <path id="패스_208" data-name="패스 208" d="M10.386,5.188A5.193,5.193,0,1,1,5.193,0,5.193,5.193,0,0,1,10.386,5.188Z" transform="translate(0 0.001)" fill="#3e5066"/>
        <path id="패스_209" data-name="패스 209" d="M10.381,5.188A5.191,5.191,0,1,1,5.188,0,5.19,5.19,0,0,1,10.381,5.188Z" transform="translate(30.502 0.001)" fill="#3e5066"/>
        <path id="패스_210" data-name="패스 210" d="M10.386,5.188A5.193,5.193,0,1,1,5.193,0,5.193,5.193,0,0,1,10.386,5.188Z" transform="translate(61 0.001)" fill="#3e5066"/>
        <ellipse id="타원_74" data-name="타원 74" cx="5.191" cy="5.191" rx="5.191" ry="5.191" transform="translate(91.502 0)" fill="#3e5066"/>
        <ellipse id="타원_75" data-name="타원 75" cx="5.192" cy="5.192" rx="5.192" ry="5.192" transform="translate(122.002 0)" fill="#3e5066"/>
        <ellipse id="타원_76" data-name="타원 76" cx="5.191" cy="5.191" rx="5.191" ry="5.191" transform="translate(152.502 0)" fill="#3e5066"/>
        <ellipse id="타원_77" data-name="타원 77" cx="5.192" cy="5.192" rx="5.192" ry="5.192" transform="translate(183.002 0)" fill="#3e5066"/>
        <ellipse id="타원_78" data-name="타원 78" cx="5.191" cy="5.191" rx="5.191" ry="5.191" transform="translate(213.502 0)" fill="#3e5066"/>
      </g>
      <g id="그룹_72" data-name="그룹 72" transform="translate(0 96.861)">
        <path id="패스_211" data-name="패스 211" d="M10.386,5.188A5.193,5.193,0,1,1,5.193,0,5.193,5.193,0,0,1,10.386,5.188Z" transform="translate(0 0.001)" fill="#3e5066"/>
        <path id="패스_212" data-name="패스 212" d="M10.381,5.188A5.191,5.191,0,1,1,5.188,0,5.19,5.19,0,0,1,10.381,5.188Z" transform="translate(30.502 0.001)" fill="#3e5066"/>
        <path id="패스_213" data-name="패스 213" d="M10.386,5.188A5.193,5.193,0,1,1,5.193,0,5.193,5.193,0,0,1,10.386,5.188Z" transform="translate(61 0.001)" fill="#3e5066"/>
        <ellipse id="타원_79" data-name="타원 79" cx="5.191" cy="5.191" rx="5.191" ry="5.191" transform="translate(91.502 0)" fill="#3e5066"/>
        <ellipse id="타원_80" data-name="타원 80" cx="5.192" cy="5.192" rx="5.192" ry="5.192" transform="translate(122.002 0)" fill="#3e5066"/>
        <ellipse id="타원_81" data-name="타원 81" cx="5.191" cy="5.191" rx="5.191" ry="5.191" transform="translate(152.502 0)" fill="#3e5066"/>
        <ellipse id="타원_82" data-name="타원 82" cx="5.192" cy="5.192" rx="5.192" ry="5.192" transform="translate(183.002 0)" fill="#3e5066"/>
        <ellipse id="타원_83" data-name="타원 83" cx="5.191" cy="5.191" rx="5.191" ry="5.191" transform="translate(213.502 0)" fill="#3e5066"/>
      </g>
    </g>
    <g id="그룹_88" data-name="그룹 88" transform="translate(5448.224 1985.521)">
      <g id="그룹_69-2" data-name="그룹 69" transform="translate(0 0)">
        <path id="패스_202-2" data-name="패스 202" d="M10.386,5.188A5.193,5.193,0,1,1,5.193,0,5.193,5.193,0,0,1,10.386,5.188Z" transform="translate(0 0.001)" fill="#3e5066"/>
        <path id="패스_203-2" data-name="패스 203" d="M10.381,5.188A5.191,5.191,0,1,1,5.188,0,5.19,5.19,0,0,1,10.381,5.188Z" transform="translate(30.502 0.001)" fill="#3e5066"/>
        <path id="패스_204-2" data-name="패스 204" d="M10.386,5.188A5.193,5.193,0,1,1,5.193,0,5.193,5.193,0,0,1,10.386,5.188Z" transform="translate(61 0.001)" fill="#3e5066"/>
        <ellipse id="타원_64-2" data-name="타원 64" cx="5.191" cy="5.191" rx="5.191" ry="5.191" transform="translate(91.502 0)" fill="#3e5066"/>
        <ellipse id="타원_65-2" data-name="타원 65" cx="5.192" cy="5.192" rx="5.192" ry="5.192" transform="translate(122.002 0)" fill="#3e5066"/>
        <ellipse id="타원_66-2" data-name="타원 66" cx="5.191" cy="5.191" rx="5.191" ry="5.191" transform="translate(152.502 0)" fill="#3e5066"/>
        <ellipse id="타원_67-2" data-name="타원 67" cx="5.192" cy="5.192" rx="5.192" ry="5.192" transform="translate(183.002 0)" fill="#3e5066"/>
        <ellipse id="타원_68-2" data-name="타원 68" cx="5.191" cy="5.191" rx="5.191" ry="5.191" transform="translate(213.502 0)" fill="#3e5066"/>
      </g>
      <g id="그룹_70-2" data-name="그룹 70" transform="translate(0 32.287)">
        <path id="패스_205-2" data-name="패스 205" d="M10.386,5.188A5.193,5.193,0,1,1,5.193,0,5.193,5.193,0,0,1,10.386,5.188Z" transform="translate(0 0.001)" fill="#3e5066"/>
        <path id="패스_206-2" data-name="패스 206" d="M10.381,5.188A5.191,5.191,0,1,1,5.188,0,5.19,5.19,0,0,1,10.381,5.188Z" transform="translate(30.502 0.001)" fill="#3e5066"/>
        <path id="패스_207-2" data-name="패스 207" d="M10.386,5.188A5.193,5.193,0,1,1,5.193,0,5.193,5.193,0,0,1,10.386,5.188Z" transform="translate(61 0.001)" fill="#3e5066"/>
        <ellipse id="타원_69-2" data-name="타원 69" cx="5.191" cy="5.191" rx="5.191" ry="5.191" transform="translate(91.502 0)" fill="#3e5066"/>
        <ellipse id="타원_70-2" data-name="타원 70" cx="5.192" cy="5.192" rx="5.192" ry="5.192" transform="translate(122.002 0)" fill="#3e5066"/>
        <ellipse id="타원_71-2" data-name="타원 71" cx="5.191" cy="5.191" rx="5.191" ry="5.191" transform="translate(152.502 0)" fill="#3e5066"/>
        <ellipse id="타원_72-2" data-name="타원 72" cx="5.192" cy="5.192" rx="5.192" ry="5.192" transform="translate(183.002 0)" fill="#3e5066"/>
        <ellipse id="타원_73-2" data-name="타원 73" cx="5.191" cy="5.191" rx="5.191" ry="5.191" transform="translate(213.502 0)" fill="#3e5066"/>
      </g>
      <g id="그룹_71-2" data-name="그룹 71" transform="translate(0 64.574)">
        <path id="패스_208-2" data-name="패스 208" d="M10.386,5.188A5.193,5.193,0,1,1,5.193,0,5.193,5.193,0,0,1,10.386,5.188Z" transform="translate(0 0.001)" fill="#3e5066"/>
        <path id="패스_209-2" data-name="패스 209" d="M10.381,5.188A5.191,5.191,0,1,1,5.188,0,5.19,5.19,0,0,1,10.381,5.188Z" transform="translate(30.502 0.001)" fill="#3e5066"/>
        <path id="패스_210-2" data-name="패스 210" d="M10.386,5.188A5.193,5.193,0,1,1,5.193,0,5.193,5.193,0,0,1,10.386,5.188Z" transform="translate(61 0.001)" fill="#3e5066"/>
        <ellipse id="타원_74-2" data-name="타원 74" cx="5.191" cy="5.191" rx="5.191" ry="5.191" transform="translate(91.502 0)" fill="#3e5066"/>
        <ellipse id="타원_75-2" data-name="타원 75" cx="5.192" cy="5.192" rx="5.192" ry="5.192" transform="translate(122.002 0)" fill="#3e5066"/>
        <ellipse id="타원_76-2" data-name="타원 76" cx="5.191" cy="5.191" rx="5.191" ry="5.191" transform="translate(152.502 0)" fill="#3e5066"/>
        <ellipse id="타원_77-2" data-name="타원 77" cx="5.192" cy="5.192" rx="5.192" ry="5.192" transform="translate(183.002 0)" fill="#3e5066"/>
        <ellipse id="타원_78-2" data-name="타원 78" cx="5.191" cy="5.191" rx="5.191" ry="5.191" transform="translate(213.502 0)" fill="#3e5066"/>
      </g>
      <g id="그룹_72-2" data-name="그룹 72" transform="translate(0 96.861)">
        <path id="패스_211-2" data-name="패스 211" d="M10.386,5.188A5.193,5.193,0,1,1,5.193,0,5.193,5.193,0,0,1,10.386,5.188Z" transform="translate(0 0.001)" fill="#3e5066"/>
        <path id="패스_212-2" data-name="패스 212" d="M10.381,5.188A5.191,5.191,0,1,1,5.188,0,5.19,5.19,0,0,1,10.381,5.188Z" transform="translate(30.502 0.001)" fill="#3e5066"/>
        <path id="패스_213-2" data-name="패스 213" d="M10.386,5.188A5.193,5.193,0,1,1,5.193,0,5.193,5.193,0,0,1,10.386,5.188Z" transform="translate(61 0.001)" fill="#3e5066"/>
        <ellipse id="타원_79-2" data-name="타원 79" cx="5.191" cy="5.191" rx="5.191" ry="5.191" transform="translate(91.502 0)" fill="#3e5066"/>
        <ellipse id="타원_80-2" data-name="타원 80" cx="5.192" cy="5.192" rx="5.192" ry="5.192" transform="translate(122.002 0)" fill="#3e5066"/>
        <ellipse id="타원_81-2" data-name="타원 81" cx="5.191" cy="5.191" rx="5.191" ry="5.191" transform="translate(152.502 0)" fill="#3e5066"/>
        <ellipse id="타원_82-2" data-name="타원 82" cx="5.192" cy="5.192" rx="5.192" ry="5.192" transform="translate(183.002 0)" fill="#3e5066"/>
        <ellipse id="타원_83-2" data-name="타원 83" cx="5.191" cy="5.191" rx="5.191" ry="5.191" transform="translate(213.502 0)" fill="#3e5066"/>
      </g>
    </g>
    <g id="그룹_225" data-name="그룹 225" transform="translate(5509.224 1985.521)">
      <g id="그룹_69-3" data-name="그룹 69" transform="translate(0 0)">
        <path id="패스_202-3" data-name="패스 202" d="M10.386,5.188A5.193,5.193,0,1,1,5.193,0,5.193,5.193,0,0,1,10.386,5.188Z" transform="translate(0 0.001)" fill="#3e5066"/>
        <path id="패스_203-3" data-name="패스 203" d="M10.381,5.188A5.191,5.191,0,1,1,5.188,0,5.19,5.19,0,0,1,10.381,5.188Z" transform="translate(30.502 0.001)" fill="#3e5066"/>
        <path id="패스_204-3" data-name="패스 204" d="M10.386,5.188A5.193,5.193,0,1,1,5.193,0,5.193,5.193,0,0,1,10.386,5.188Z" transform="translate(61 0.001)" fill="#3e5066"/>
        <ellipse id="타원_64-3" data-name="타원 64" cx="5.191" cy="5.191" rx="5.191" ry="5.191" transform="translate(91.502 0)" fill="#3e5066"/>
        <ellipse id="타원_65-3" data-name="타원 65" cx="5.192" cy="5.192" rx="5.192" ry="5.192" transform="translate(122.002 0)" fill="#3e5066"/>
        <ellipse id="타원_66-3" data-name="타원 66" cx="5.191" cy="5.191" rx="5.191" ry="5.191" transform="translate(152.502 0)" fill="#3e5066"/>
        <ellipse id="타원_67-3" data-name="타원 67" cx="5.192" cy="5.192" rx="5.192" ry="5.192" transform="translate(183.002 0)" fill="#3e5066"/>
        <ellipse id="타원_68-3" data-name="타원 68" cx="5.191" cy="5.191" rx="5.191" ry="5.191" transform="translate(213.502 0)" fill="#3e5066"/>
      </g>
      <g id="그룹_70-3" data-name="그룹 70" transform="translate(0 32.287)">
        <path id="패스_205-3" data-name="패스 205" d="M10.386,5.188A5.193,5.193,0,1,1,5.193,0,5.193,5.193,0,0,1,10.386,5.188Z" transform="translate(0 0.001)" fill="#3e5066"/>
        <path id="패스_206-3" data-name="패스 206" d="M10.381,5.188A5.191,5.191,0,1,1,5.188,0,5.19,5.19,0,0,1,10.381,5.188Z" transform="translate(30.502 0.001)" fill="#3e5066"/>
        <path id="패스_207-3" data-name="패스 207" d="M10.386,5.188A5.193,5.193,0,1,1,5.193,0,5.193,5.193,0,0,1,10.386,5.188Z" transform="translate(61 0.001)" fill="#3e5066"/>
        <ellipse id="타원_69-3" data-name="타원 69" cx="5.191" cy="5.191" rx="5.191" ry="5.191" transform="translate(91.502 0)" fill="#3e5066"/>
        <ellipse id="타원_70-3" data-name="타원 70" cx="5.192" cy="5.192" rx="5.192" ry="5.192" transform="translate(122.002 0)" fill="#3e5066"/>
        <ellipse id="타원_71-3" data-name="타원 71" cx="5.191" cy="5.191" rx="5.191" ry="5.191" transform="translate(152.502 0)" fill="#3e5066"/>
        <ellipse id="타원_72-3" data-name="타원 72" cx="5.192" cy="5.192" rx="5.192" ry="5.192" transform="translate(183.002 0)" fill="#3e5066"/>
        <ellipse id="타원_73-3" data-name="타원 73" cx="5.191" cy="5.191" rx="5.191" ry="5.191" transform="translate(213.502 0)" fill="#3e5066"/>
      </g>
      <g id="그룹_71-3" data-name="그룹 71" transform="translate(0 64.574)">
        <path id="패스_208-3" data-name="패스 208" d="M10.386,5.188A5.193,5.193,0,1,1,5.193,0,5.193,5.193,0,0,1,10.386,5.188Z" transform="translate(0 0.001)" fill="#3e5066"/>
        <path id="패스_209-3" data-name="패스 209" d="M10.381,5.188A5.191,5.191,0,1,1,5.188,0,5.19,5.19,0,0,1,10.381,5.188Z" transform="translate(30.502 0.001)" fill="#3e5066"/>
        <path id="패스_210-3" data-name="패스 210" d="M10.386,5.188A5.193,5.193,0,1,1,5.193,0,5.193,5.193,0,0,1,10.386,5.188Z" transform="translate(61 0.001)" fill="#3e5066"/>
        <ellipse id="타원_74-3" data-name="타원 74" cx="5.191" cy="5.191" rx="5.191" ry="5.191" transform="translate(91.502 0)" fill="#3e5066"/>
        <ellipse id="타원_75-3" data-name="타원 75" cx="5.192" cy="5.192" rx="5.192" ry="5.192" transform="translate(122.002 0)" fill="#3e5066"/>
        <ellipse id="타원_76-3" data-name="타원 76" cx="5.191" cy="5.191" rx="5.191" ry="5.191" transform="translate(152.502 0)" fill="#3e5066"/>
        <ellipse id="타원_77-3" data-name="타원 77" cx="5.192" cy="5.192" rx="5.192" ry="5.192" transform="translate(183.002 0)" fill="#3e5066"/>
        <ellipse id="타원_78-3" data-name="타원 78" cx="5.191" cy="5.191" rx="5.191" ry="5.191" transform="translate(213.502 0)" fill="#3e5066"/>
      </g>
      <g id="그룹_72-3" data-name="그룹 72" transform="translate(0 96.861)">
        <path id="패스_211-3" data-name="패스 211" d="M10.386,5.188A5.193,5.193,0,1,1,5.193,0,5.193,5.193,0,0,1,10.386,5.188Z" transform="translate(0 0.001)" fill="#3e5066"/>
        <path id="패스_212-3" data-name="패스 212" d="M10.381,5.188A5.191,5.191,0,1,1,5.188,0,5.19,5.19,0,0,1,10.381,5.188Z" transform="translate(30.502 0.001)" fill="#3e5066"/>
        <path id="패스_213-3" data-name="패스 213" d="M10.386,5.188A5.193,5.193,0,1,1,5.193,0,5.193,5.193,0,0,1,10.386,5.188Z" transform="translate(61 0.001)" fill="#3e5066"/>
        <ellipse id="타원_79-3" data-name="타원 79" cx="5.191" cy="5.191" rx="5.191" ry="5.191" transform="translate(91.502 0)" fill="#3e5066"/>
        <ellipse id="타원_80-3" data-name="타원 80" cx="5.192" cy="5.192" rx="5.192" ry="5.192" transform="translate(122.002 0)" fill="#3e5066"/>
        <ellipse id="타원_81-3" data-name="타원 81" cx="5.191" cy="5.191" rx="5.191" ry="5.191" transform="translate(152.502 0)" fill="#3e5066"/>
        <ellipse id="타원_82-3" data-name="타원 82" cx="5.192" cy="5.192" rx="5.192" ry="5.192" transform="translate(183.002 0)" fill="#3e5066"/>
        <ellipse id="타원_83-3" data-name="타원 83" cx="5.191" cy="5.191" rx="5.191" ry="5.191" transform="translate(213.502 0)" fill="#3e5066"/>
      </g>
    </g>
    <g id="그룹_226" data-name="그룹 226" transform="translate(5509.224 1854.521)">
      <g id="그룹_69-4" data-name="그룹 69" transform="translate(0 0)">
        <path id="패스_202-4" data-name="패스 202" d="M10.386,5.188A5.193,5.193,0,1,1,5.193,0,5.193,5.193,0,0,1,10.386,5.188Z" transform="translate(0 0.001)" fill="#3e5066"/>
        <path id="패스_203-4" data-name="패스 203" d="M10.381,5.188A5.191,5.191,0,1,1,5.188,0,5.19,5.19,0,0,1,10.381,5.188Z" transform="translate(30.502 0.001)" fill="#3e5066"/>
        <path id="패스_204-4" data-name="패스 204" d="M10.386,5.188A5.193,5.193,0,1,1,5.193,0,5.193,5.193,0,0,1,10.386,5.188Z" transform="translate(61 0.001)" fill="#3e5066"/>
        <ellipse id="타원_64-4" data-name="타원 64" cx="5.191" cy="5.191" rx="5.191" ry="5.191" transform="translate(91.502 0)" fill="#3e5066"/>
        <ellipse id="타원_65-4" data-name="타원 65" cx="5.192" cy="5.192" rx="5.192" ry="5.192" transform="translate(122.002 0)" fill="#3e5066"/>
        <ellipse id="타원_66-4" data-name="타원 66" cx="5.191" cy="5.191" rx="5.191" ry="5.191" transform="translate(152.502 0)" fill="#3e5066"/>
        <ellipse id="타원_67-4" data-name="타원 67" cx="5.192" cy="5.192" rx="5.192" ry="5.192" transform="translate(183.002 0)" fill="#3e5066"/>
        <ellipse id="타원_68-4" data-name="타원 68" cx="5.191" cy="5.191" rx="5.191" ry="5.191" transform="translate(213.502 0)" fill="#3e5066"/>
      </g>
      <g id="그룹_70-4" data-name="그룹 70" transform="translate(0 32.287)">
        <path id="패스_205-4" data-name="패스 205" d="M10.386,5.188A5.193,5.193,0,1,1,5.193,0,5.193,5.193,0,0,1,10.386,5.188Z" transform="translate(0 0.001)" fill="#3e5066"/>
        <path id="패스_206-4" data-name="패스 206" d="M10.381,5.188A5.191,5.191,0,1,1,5.188,0,5.19,5.19,0,0,1,10.381,5.188Z" transform="translate(30.502 0.001)" fill="#3e5066"/>
        <path id="패스_207-4" data-name="패스 207" d="M10.386,5.188A5.193,5.193,0,1,1,5.193,0,5.193,5.193,0,0,1,10.386,5.188Z" transform="translate(61 0.001)" fill="#3e5066"/>
        <ellipse id="타원_69-4" data-name="타원 69" cx="5.191" cy="5.191" rx="5.191" ry="5.191" transform="translate(91.502 0)" fill="#3e5066"/>
        <ellipse id="타원_70-4" data-name="타원 70" cx="5.192" cy="5.192" rx="5.192" ry="5.192" transform="translate(122.002 0)" fill="#3e5066"/>
        <ellipse id="타원_71-4" data-name="타원 71" cx="5.191" cy="5.191" rx="5.191" ry="5.191" transform="translate(152.502 0)" fill="#3e5066"/>
        <ellipse id="타원_72-4" data-name="타원 72" cx="5.192" cy="5.192" rx="5.192" ry="5.192" transform="translate(183.002 0)" fill="#3e5066"/>
        <ellipse id="타원_73-4" data-name="타원 73" cx="5.191" cy="5.191" rx="5.191" ry="5.191" transform="translate(213.502 0)" fill="#3e5066"/>
      </g>
      <g id="그룹_71-4" data-name="그룹 71" transform="translate(0 64.574)">
        <path id="패스_208-4" data-name="패스 208" d="M10.386,5.188A5.193,5.193,0,1,1,5.193,0,5.193,5.193,0,0,1,10.386,5.188Z" transform="translate(0 0.001)" fill="#3e5066"/>
        <path id="패스_209-4" data-name="패스 209" d="M10.381,5.188A5.191,5.191,0,1,1,5.188,0,5.19,5.19,0,0,1,10.381,5.188Z" transform="translate(30.502 0.001)" fill="#3e5066"/>
        <path id="패스_210-4" data-name="패스 210" d="M10.386,5.188A5.193,5.193,0,1,1,5.193,0,5.193,5.193,0,0,1,10.386,5.188Z" transform="translate(61 0.001)" fill="#3e5066"/>
        <ellipse id="타원_74-4" data-name="타원 74" cx="5.191" cy="5.191" rx="5.191" ry="5.191" transform="translate(91.502 0)" fill="#3e5066"/>
        <ellipse id="타원_75-4" data-name="타원 75" cx="5.192" cy="5.192" rx="5.192" ry="5.192" transform="translate(122.002 0)" fill="#3e5066"/>
        <ellipse id="타원_76-4" data-name="타원 76" cx="5.191" cy="5.191" rx="5.191" ry="5.191" transform="translate(152.502 0)" fill="#3e5066"/>
        <ellipse id="타원_77-4" data-name="타원 77" cx="5.192" cy="5.192" rx="5.192" ry="5.192" transform="translate(183.002 0)" fill="#3e5066"/>
        <ellipse id="타원_78-4" data-name="타원 78" cx="5.191" cy="5.191" rx="5.191" ry="5.191" transform="translate(213.502 0)" fill="#3e5066"/>
      </g>
      <g id="그룹_72-4" data-name="그룹 72" transform="translate(0 96.861)">
        <path id="패스_211-4" data-name="패스 211" d="M10.386,5.188A5.193,5.193,0,1,1,5.193,0,5.193,5.193,0,0,1,10.386,5.188Z" transform="translate(0 0.001)" fill="#3e5066"/>
        <path id="패스_212-4" data-name="패스 212" d="M10.381,5.188A5.191,5.191,0,1,1,5.188,0,5.19,5.19,0,0,1,10.381,5.188Z" transform="translate(30.502 0.001)" fill="#3e5066"/>
        <path id="패스_213-4" data-name="패스 213" d="M10.386,5.188A5.193,5.193,0,1,1,5.193,0,5.193,5.193,0,0,1,10.386,5.188Z" transform="translate(61 0.001)" fill="#3e5066"/>
        <ellipse id="타원_79-4" data-name="타원 79" cx="5.191" cy="5.191" rx="5.191" ry="5.191" transform="translate(91.502 0)" fill="#3e5066"/>
        <ellipse id="타원_80-4" data-name="타원 80" cx="5.192" cy="5.192" rx="5.192" ry="5.192" transform="translate(122.002 0)" fill="#3e5066"/>
        <ellipse id="타원_81-4" data-name="타원 81" cx="5.191" cy="5.191" rx="5.191" ry="5.191" transform="translate(152.502 0)" fill="#3e5066"/>
        <ellipse id="타원_82-4" data-name="타원 82" cx="5.192" cy="5.192" rx="5.192" ry="5.192" transform="translate(183.002 0)" fill="#3e5066"/>
        <ellipse id="타원_83-4" data-name="타원 83" cx="5.191" cy="5.191" rx="5.191" ry="5.191" transform="translate(213.502 0)" fill="#3e5066"/>
      </g>
    </g>
    <g id="그룹_227" data-name="그룹 227" transform="translate(5509.224 1723.521)">
      <g id="그룹_69-5" data-name="그룹 69" transform="translate(0 0)">
        <path id="패스_202-5" data-name="패스 202" d="M10.386,5.188A5.193,5.193,0,1,1,5.193,0,5.193,5.193,0,0,1,10.386,5.188Z" transform="translate(0 0.001)" fill="#3e5066"/>
        <path id="패스_203-5" data-name="패스 203" d="M10.381,5.188A5.191,5.191,0,1,1,5.188,0,5.19,5.19,0,0,1,10.381,5.188Z" transform="translate(30.502 0.001)" fill="#3e5066"/>
        <path id="패스_204-5" data-name="패스 204" d="M10.386,5.188A5.193,5.193,0,1,1,5.193,0,5.193,5.193,0,0,1,10.386,5.188Z" transform="translate(61 0.001)" fill="#3e5066"/>
        <ellipse id="타원_64-5" data-name="타원 64" cx="5.191" cy="5.191" rx="5.191" ry="5.191" transform="translate(91.502 0)" fill="#3e5066"/>
        <ellipse id="타원_65-5" data-name="타원 65" cx="5.192" cy="5.192" rx="5.192" ry="5.192" transform="translate(122.002 0)" fill="#3e5066"/>
        <ellipse id="타원_66-5" data-name="타원 66" cx="5.191" cy="5.191" rx="5.191" ry="5.191" transform="translate(152.502 0)" fill="#3e5066"/>
        <ellipse id="타원_67-5" data-name="타원 67" cx="5.192" cy="5.192" rx="5.192" ry="5.192" transform="translate(183.002 0)" fill="#3e5066"/>
        <ellipse id="타원_68-5" data-name="타원 68" cx="5.191" cy="5.191" rx="5.191" ry="5.191" transform="translate(213.502 0)" fill="#3e5066"/>
      </g>
      <g id="그룹_70-5" data-name="그룹 70" transform="translate(0 32.287)">
        <path id="패스_205-5" data-name="패스 205" d="M10.386,5.188A5.193,5.193,0,1,1,5.193,0,5.193,5.193,0,0,1,10.386,5.188Z" transform="translate(0 0.001)" fill="#3e5066"/>
        <path id="패스_206-5" data-name="패스 206" d="M10.381,5.188A5.191,5.191,0,1,1,5.188,0,5.19,5.19,0,0,1,10.381,5.188Z" transform="translate(30.502 0.001)" fill="#3e5066"/>
        <path id="패스_207-5" data-name="패스 207" d="M10.386,5.188A5.193,5.193,0,1,1,5.193,0,5.193,5.193,0,0,1,10.386,5.188Z" transform="translate(61 0.001)" fill="#3e5066"/>
        <ellipse id="타원_69-5" data-name="타원 69" cx="5.191" cy="5.191" rx="5.191" ry="5.191" transform="translate(91.502 0)" fill="#3e5066"/>
        <ellipse id="타원_70-5" data-name="타원 70" cx="5.192" cy="5.192" rx="5.192" ry="5.192" transform="translate(122.002 0)" fill="#3e5066"/>
        <ellipse id="타원_71-5" data-name="타원 71" cx="5.191" cy="5.191" rx="5.191" ry="5.191" transform="translate(152.502 0)" fill="#3e5066"/>
        <ellipse id="타원_72-5" data-name="타원 72" cx="5.192" cy="5.192" rx="5.192" ry="5.192" transform="translate(183.002 0)" fill="#3e5066"/>
        <ellipse id="타원_73-5" data-name="타원 73" cx="5.191" cy="5.191" rx="5.191" ry="5.191" transform="translate(213.502 0)" fill="#3e5066"/>
      </g>
      <g id="그룹_71-5" data-name="그룹 71" transform="translate(0 64.574)">
        <path id="패스_208-5" data-name="패스 208" d="M10.386,5.188A5.193,5.193,0,1,1,5.193,0,5.193,5.193,0,0,1,10.386,5.188Z" transform="translate(0 0.001)" fill="#3e5066"/>
        <path id="패스_209-5" data-name="패스 209" d="M10.381,5.188A5.191,5.191,0,1,1,5.188,0,5.19,5.19,0,0,1,10.381,5.188Z" transform="translate(30.502 0.001)" fill="#3e5066"/>
        <path id="패스_210-5" data-name="패스 210" d="M10.386,5.188A5.193,5.193,0,1,1,5.193,0,5.193,5.193,0,0,1,10.386,5.188Z" transform="translate(61 0.001)" fill="#3e5066"/>
        <ellipse id="타원_74-5" data-name="타원 74" cx="5.191" cy="5.191" rx="5.191" ry="5.191" transform="translate(91.502 0)" fill="#3e5066"/>
        <ellipse id="타원_75-5" data-name="타원 75" cx="5.192" cy="5.192" rx="5.192" ry="5.192" transform="translate(122.002 0)" fill="#3e5066"/>
        <ellipse id="타원_76-5" data-name="타원 76" cx="5.191" cy="5.191" rx="5.191" ry="5.191" transform="translate(152.502 0)" fill="#3e5066"/>
        <ellipse id="타원_77-5" data-name="타원 77" cx="5.192" cy="5.192" rx="5.192" ry="5.192" transform="translate(183.002 0)" fill="#3e5066"/>
        <ellipse id="타원_78-5" data-name="타원 78" cx="5.191" cy="5.191" rx="5.191" ry="5.191" transform="translate(213.502 0)" fill="#3e5066"/>
      </g>
      <g id="그룹_72-5" data-name="그룹 72" transform="translate(0 96.861)">
        <path id="패스_211-5" data-name="패스 211" d="M10.386,5.188A5.193,5.193,0,1,1,5.193,0,5.193,5.193,0,0,1,10.386,5.188Z" transform="translate(0 0.001)" fill="#3e5066"/>
        <path id="패스_212-5" data-name="패스 212" d="M10.381,5.188A5.191,5.191,0,1,1,5.188,0,5.19,5.19,0,0,1,10.381,5.188Z" transform="translate(30.502 0.001)" fill="#3e5066"/>
        <path id="패스_213-5" data-name="패스 213" d="M10.386,5.188A5.193,5.193,0,1,1,5.193,0,5.193,5.193,0,0,1,10.386,5.188Z" transform="translate(61 0.001)" fill="#3e5066"/>
        <ellipse id="타원_79-5" data-name="타원 79" cx="5.191" cy="5.191" rx="5.191" ry="5.191" transform="translate(91.502 0)" fill="#3e5066"/>
        <ellipse id="타원_80-5" data-name="타원 80" cx="5.192" cy="5.192" rx="5.192" ry="5.192" transform="translate(122.002 0)" fill="#3e5066"/>
        <ellipse id="타원_81-5" data-name="타원 81" cx="5.191" cy="5.191" rx="5.191" ry="5.191" transform="translate(152.502 0)" fill="#3e5066"/>
        <ellipse id="타원_82-5" data-name="타원 82" cx="5.192" cy="5.192" rx="5.192" ry="5.192" transform="translate(183.002 0)" fill="#3e5066"/>
        <ellipse id="타원_83-5" data-name="타원 83" cx="5.191" cy="5.191" rx="5.191" ry="5.191" transform="translate(213.502 0)" fill="#3e5066"/>
      </g>
    </g>
    <g id="그룹_228" data-name="그룹 228" transform="translate(5509.224 1592.521)">
      <g id="그룹_69-6" data-name="그룹 69" transform="translate(0 0)">
        <path id="패스_202-6" data-name="패스 202" d="M10.386,5.188A5.193,5.193,0,1,1,5.193,0,5.193,5.193,0,0,1,10.386,5.188Z" transform="translate(0 0.001)" fill="#3e5066"/>
        <path id="패스_203-6" data-name="패스 203" d="M10.381,5.188A5.191,5.191,0,1,1,5.188,0,5.19,5.19,0,0,1,10.381,5.188Z" transform="translate(30.502 0.001)" fill="#3e5066"/>
        <path id="패스_204-6" data-name="패스 204" d="M10.386,5.188A5.193,5.193,0,1,1,5.193,0,5.193,5.193,0,0,1,10.386,5.188Z" transform="translate(61 0.001)" fill="#3e5066"/>
        <ellipse id="타원_64-6" data-name="타원 64" cx="5.191" cy="5.191" rx="5.191" ry="5.191" transform="translate(91.502 0)" fill="#3e5066"/>
        <ellipse id="타원_65-6" data-name="타원 65" cx="5.192" cy="5.192" rx="5.192" ry="5.192" transform="translate(122.002 0)" fill="#3e5066"/>
        <ellipse id="타원_66-6" data-name="타원 66" cx="5.191" cy="5.191" rx="5.191" ry="5.191" transform="translate(152.502 0)" fill="#3e5066"/>
        <ellipse id="타원_67-6" data-name="타원 67" cx="5.192" cy="5.192" rx="5.192" ry="5.192" transform="translate(183.002 0)" fill="#3e5066"/>
        <ellipse id="타원_68-6" data-name="타원 68" cx="5.191" cy="5.191" rx="5.191" ry="5.191" transform="translate(213.502 0)" fill="#3e5066"/>
      </g>
      <g id="그룹_70-6" data-name="그룹 70" transform="translate(0 32.287)">
        <path id="패스_205-6" data-name="패스 205" d="M10.386,5.188A5.193,5.193,0,1,1,5.193,0,5.193,5.193,0,0,1,10.386,5.188Z" transform="translate(0 0.001)" fill="#3e5066"/>
        <path id="패스_206-6" data-name="패스 206" d="M10.381,5.188A5.191,5.191,0,1,1,5.188,0,5.19,5.19,0,0,1,10.381,5.188Z" transform="translate(30.502 0.001)" fill="#3e5066"/>
        <path id="패스_207-6" data-name="패스 207" d="M10.386,5.188A5.193,5.193,0,1,1,5.193,0,5.193,5.193,0,0,1,10.386,5.188Z" transform="translate(61 0.001)" fill="#3e5066"/>
        <ellipse id="타원_69-6" data-name="타원 69" cx="5.191" cy="5.191" rx="5.191" ry="5.191" transform="translate(91.502 0)" fill="#3e5066"/>
        <ellipse id="타원_70-6" data-name="타원 70" cx="5.192" cy="5.192" rx="5.192" ry="5.192" transform="translate(122.002 0)" fill="#3e5066"/>
        <ellipse id="타원_71-6" data-name="타원 71" cx="5.191" cy="5.191" rx="5.191" ry="5.191" transform="translate(152.502 0)" fill="#3e5066"/>
        <ellipse id="타원_72-6" data-name="타원 72" cx="5.192" cy="5.192" rx="5.192" ry="5.192" transform="translate(183.002 0)" fill="#3e5066"/>
        <ellipse id="타원_73-6" data-name="타원 73" cx="5.191" cy="5.191" rx="5.191" ry="5.191" transform="translate(213.502 0)" fill="#3e5066"/>
      </g>
      <g id="그룹_71-6" data-name="그룹 71" transform="translate(0 64.574)">
        <path id="패스_208-6" data-name="패스 208" d="M10.386,5.188A5.193,5.193,0,1,1,5.193,0,5.193,5.193,0,0,1,10.386,5.188Z" transform="translate(0 0.001)" fill="#3e5066"/>
        <path id="패스_209-6" data-name="패스 209" d="M10.381,5.188A5.191,5.191,0,1,1,5.188,0,5.19,5.19,0,0,1,10.381,5.188Z" transform="translate(30.502 0.001)" fill="#3e5066"/>
        <path id="패스_210-6" data-name="패스 210" d="M10.386,5.188A5.193,5.193,0,1,1,5.193,0,5.193,5.193,0,0,1,10.386,5.188Z" transform="translate(61 0.001)" fill="#3e5066"/>
        <ellipse id="타원_74-6" data-name="타원 74" cx="5.191" cy="5.191" rx="5.191" ry="5.191" transform="translate(91.502 0)" fill="#3e5066"/>
        <ellipse id="타원_75-6" data-name="타원 75" cx="5.192" cy="5.192" rx="5.192" ry="5.192" transform="translate(122.002 0)" fill="#3e5066"/>
        <ellipse id="타원_76-6" data-name="타원 76" cx="5.191" cy="5.191" rx="5.191" ry="5.191" transform="translate(152.502 0)" fill="#3e5066"/>
        <ellipse id="타원_77-6" data-name="타원 77" cx="5.192" cy="5.192" rx="5.192" ry="5.192" transform="translate(183.002 0)" fill="#3e5066"/>
        <ellipse id="타원_78-6" data-name="타원 78" cx="5.191" cy="5.191" rx="5.191" ry="5.191" transform="translate(213.502 0)" fill="#3e5066"/>
      </g>
      <g id="그룹_72-6" data-name="그룹 72" transform="translate(0 96.861)">
        <path id="패스_211-6" data-name="패스 211" d="M10.386,5.188A5.193,5.193,0,1,1,5.193,0,5.193,5.193,0,0,1,10.386,5.188Z" transform="translate(0 0.001)" fill="#3e5066"/>
        <path id="패스_212-6" data-name="패스 212" d="M10.381,5.188A5.191,5.191,0,1,1,5.188,0,5.19,5.19,0,0,1,10.381,5.188Z" transform="translate(30.502 0.001)" fill="#3e5066"/>
        <path id="패스_213-6" data-name="패스 213" d="M10.386,5.188A5.193,5.193,0,1,1,5.193,0,5.193,5.193,0,0,1,10.386,5.188Z" transform="translate(61 0.001)" fill="#3e5066"/>
        <ellipse id="타원_79-6" data-name="타원 79" cx="5.191" cy="5.191" rx="5.191" ry="5.191" transform="translate(91.502 0)" fill="#3e5066"/>
        <ellipse id="타원_80-6" data-name="타원 80" cx="5.192" cy="5.192" rx="5.192" ry="5.192" transform="translate(122.002 0)" fill="#3e5066"/>
        <ellipse id="타원_81-6" data-name="타원 81" cx="5.191" cy="5.191" rx="5.191" ry="5.191" transform="translate(152.502 0)" fill="#3e5066"/>
        <ellipse id="타원_82-6" data-name="타원 82" cx="5.192" cy="5.192" rx="5.192" ry="5.192" transform="translate(183.002 0)" fill="#3e5066"/>
        <ellipse id="타원_83-6" data-name="타원 83" cx="5.191" cy="5.191" rx="5.191" ry="5.191" transform="translate(213.502 0)" fill="#3e5066"/>
      </g>
    </g>
    <rect id="사각형_157" data-name="사각형 157" width="514" height="560" transform="translate(5172 1483.388)" fill="#b0b0b0"/>
  </g>
</svg>
