<svg xmlns="http://www.w3.org/2000/svg" width="20" height="20" viewBox="0 0 20 20">
  <g id="인스타그램" transform="translate(-32 -32)">
    <path id="패스_480" data-name="패스 480" d="M46.167,33.667a4.179,4.179,0,0,1,4.167,4.167v8.333a4.179,4.179,0,0,1-4.167,4.167H37.833a4.179,4.179,0,0,1-4.167-4.167V37.833a4.179,4.179,0,0,1,4.167-4.167h8.333m0-1.667H37.833A5.851,5.851,0,0,0,32,37.833v8.333A5.851,5.851,0,0,0,37.833,52h8.333A5.851,5.851,0,0,0,52,46.167V37.833A5.851,5.851,0,0,0,46.167,32Z" fill="#e9e9e9"/>
    <path id="패스_481" data-name="패스 481" d="M154.583,109.21a1.267,1.267,0,1,1,.9-.371A1.27,1.27,0,0,1,154.583,109.21Zm-5.5.846a3.387,3.387,0,1,1-3.387,3.387,3.387,3.387,0,0,1,3.387-3.387m0-1.693a5.08,5.08,0,1,0,5.08,5.08A5.08,5.08,0,0,0,149.08,108.363Z" transform="translate(-107.112 -71.411)" fill="#e9e9e9"/>
  </g>
</svg>
