<svg xmlns="http://www.w3.org/2000/svg" width="11130.203" height="14054.69" viewBox="0 0 11130.203 14054.69">
  <g id="sub_bg_main" transform="translate(768.055 -26.988)">
    <g id="그룹_215" data-name="그룹 215" transform="translate(-767.738 27.583)">
      <path id="패스_239" data-name="패스 239" d="M4373.4,13255.346S11623.62,11072.2,10050.941,9526.47,2621.487,10766.284,2927.4,8492.841s4661.433-3188.478,4581.923-4680.3S5385.11,2026.691,5385.11,2026.691,4264.447,1886.974,3140.226,1234.4s-913.042-878.607-886.065-915.1" transform="translate(-148.127 -319.294)" fill="none" stroke="#f5df4d" stroke-width="2" opacity="0.61"/>
      <path id="패스_240" data-name="패스 240" d="M3034.708,11487.859s7250.22-2183.151,5677.542-3728.876S1282.8,8998.8,1588.707,6725.354,6250.14,3536.876,6170.63,2045.056,4046.419,259.2,4046.419,259.2,2425.276-194.986,0,99.08" transform="translate(2388.46 958.333) rotate(12)" fill="none" stroke="#707070" stroke-width="2" opacity="0.35"/>
    </g>
    <g id="신청서작성" transform="translate(3052.04 6485.999)">
      <g id="그룹_194" data-name="그룹 194">
        <text id="신청서_작성" data-name="신청서 작성" transform="translate(292.952 78)" fill="#707070" font-size="67" font-family="NotoSansKR-Medium, Noto Sans KR" font-weight="500"><tspan x="0" y="0">신청서 작성</tspan></text>
        <circle id="타원_86" data-name="타원 86" cx="24.413" cy="24.413" r="24.413" transform="translate(0 24.413)" fill="#f5df4d"/>
      </g>
      <text id="광명원에는_지금_무슨_일이_일어나고_있을까요_광명원에는_지금_무슨_일이_일어나고_있을까요" data-name="광명원에는 지금 무슨 일이 일어나고 있을까요?광명원에는 지금 
무슨 일이 일어나고 있을까요" transform="translate(308.21 86.341)" fill="#fff" font-size="6" font-family="NotoSansKR-Thin, Noto Sans KR" font-weight="200" opacity="0"><tspan x="0" y="0">광명원에는 지금 무슨 일이 일어나고 있을까요?광명원에는 지금 </tspan><tspan x="0" y="9">무슨 일이 일어나고 있을까요</tspan></text>
    </g>
    <g id="구성_요소_20_1" data-name="구성 요소 20 – 1" transform="translate(3729.491 5970.282)">
      <text id="봉사활동분야_선택" data-name="봉사활동분야 선택" transform="translate(292.952 78)" fill="#707070" font-size="67" font-family="NotoSansKR-Medium, Noto Sans KR" font-weight="500"><tspan x="0" y="0">봉사활동분야 선택</tspan></text>
      <circle id="타원_85" data-name="타원 85" cx="24.413" cy="24.413" r="24.413" transform="translate(0 24.413)" fill="#f5df4d"/>
      <text id="다양한_광명원의_봉사활동_프로그램_중_자신의_적성에_알맞는_활동을_선택합니다." data-name="다양한 광명원의 봉사활동 프로그램 중
자신의 적성에 알맞는 활동을 선택합니다." transform="translate(292.952 213.424)" fill="#434343" font-size="60" font-family="NotoSansKR-Thin, Noto Sans KR" font-weight="200" opacity="0"><tspan x="0" y="0">다양한 광명원의 봉사활동 프로그램 중</tspan><tspan x="0" y="84">자신의 적성에 알맞는 활동을 선택합니다.</tspan></text>
    </g>
    <g id="구성_요소_19_1" data-name="구성 요소 19 – 1" transform="translate(4440.509 5512.544)">
      <text id="문의_및_상담_전화_및_방문_" data-name="문의 및 상담 (전화 및 방문)" transform="translate(292.952 78)" fill="#707070" font-size="67" font-family="NotoSansKR-Medium, Noto Sans KR" font-weight="500"><tspan x="0" y="0">문의 및 상담 (전화 및 방문)</tspan></text>
      <circle id="타원_84" data-name="타원 84" cx="24.413" cy="24.413" r="24.413" transform="translate(0 24.413)" fill="#f5df4d"/>
      <text id="인천_광명원에_전화_혹은_방문하여_봉사활동에_대한_문의_및_상담을_진행합니다." data-name="인천 광명원에 전화, 혹은 방문하여 봉사활동에 대한
문의 및 상담을 진행합니다." transform="translate(292.952 213.424)" fill="#434343" font-size="60" font-family="NotoSansKR-Thin, Noto Sans KR" font-weight="200" opacity="0"><tspan x="0" y="0">인천 광명원에 전화, 혹은 방문하여 봉사활동에 대한</tspan><tspan x="0" y="84">문의 및 상담을 진행합니다.</tspan></text>
    </g>
    <g id="구성_요소_21_1" data-name="구성 요소 21 – 1" transform="translate(2399.002 7172.604)">
      <text id="자원봉사_기초교육" data-name="자원봉사 기초교육" transform="translate(292.952 78)" fill="#707070" font-size="67" font-family="NotoSansKR-Medium, Noto Sans KR" font-weight="500"><tspan x="0" y="0">자원봉사 기초교육</tspan></text>
      <circle id="타원_87" data-name="타원 87" cx="24.413" cy="24.413" r="24.413" transform="translate(0 24.413)" fill="#f5df4d"/>
      <text id="실전에_투입되기_전에_자원봉사에_대해_간단한_기초교육을_진행합니다." data-name="실전에 투입되기 전에 자원봉사에 대해
간단한 기초교육을 진행합니다." transform="translate(292.952 213.424)" fill="#434343" font-size="60" font-family="NotoSansKR-Thin, Noto Sans KR" font-weight="200" opacity="0"><tspan x="0" y="0">실전에 투입되기 전에 자원봉사에 대해</tspan><tspan x="0" y="84">간단한 기초교육을 진행합니다.</tspan></text>
    </g>
    <g id="구성_요소_22_1" data-name="구성 요소 22 – 1" transform="translate(2020.606 7978.221)">
      <text id="배치_및_활동" data-name="배치 및 활동" transform="translate(296.003 78)" fill="#707070" font-size="67" font-family="NotoSansKR-Medium, Noto Sans KR" font-weight="500"><tspan x="0" y="0">배치 및 활동</tspan></text>
      <circle id="타원_88" data-name="타원 88" cx="24.413" cy="24.413" r="24.413" transform="translate(0 27.464)" fill="#f5df4d"/>
      <text id="기초교육_수료_후_신청서에_작성된_분야_중_알맞다고_판단되는_부서로_배치됩니다." data-name="기초교육 수료 후, 신청서에 작성된 분야 중
알맞다고 판단되는 부서로 배치됩니다." transform="translate(296.003 213.424)" fill="#434343" font-size="60" font-family="NotoSansKR-Thin, Noto Sans KR" font-weight="200" opacity="0"><tspan x="0" y="0">기초교육 수료 후, 신청서에 작성된 분야 중</tspan><tspan x="0" y="84">알맞다고 판단되는 부서로 배치됩니다.</tspan></text>
    </g>
    <g id="구성_요소_23_1" data-name="구성 요소 23 – 1" transform="translate(2185.392 8826.561)">
      <text id="평가_및_사후관리" data-name="평가 및 사후관리" transform="translate(326.519 78)" fill="#707070" font-size="67" font-family="NotoSansKR-Medium, Noto Sans KR" font-weight="500"><tspan x="0" y="0">평가 및 사후관리</tspan></text>
      <circle id="타원_89" data-name="타원 89" cx="24.413" cy="24.413" r="24.413" transform="translate(0 27.464)" fill="#f5df4d"/>
      <text id="봉사활동_완료_후_기관에_대한_평가를_진행하며_봉사시간_관리_등_사후_관리를_진행합니다." data-name="봉사활동 완료 후, 기관에 대한 평가를 진행하며
봉사시간 관리 등 사후 관리를 진행합니다." transform="translate(326.519 213.424)" fill="#434343" font-size="60" font-family="NotoSansKR-Thin, Noto Sans KR" font-weight="200" opacity="0"><tspan x="0" y="0">봉사활동 완료 후, 기관에 대한 평가를 진행하며</tspan><tspan x="0" y="84">봉사시간 관리 등 사후 관리를 진행합니다.</tspan></text>
    </g>
  </g>
</svg>
